<?xml version="1.0" encoding="utf-8" standalone="no"?>
<!DOCTYPE svg PUBLIC "-//W3C//DTD SVG 1.1//EN"
  "http://www.w3.org/Graphics/SVG/1.1/DTD/svg11.dtd">
<svg height="321.466687pt" version="1.1" viewBox="0 0 398.560625 321.466687" width="398.560625pt" xmlns="http://www.w3.org/2000/svg" xmlns:xlink="http://www.w3.org/1999/xlink">
 <metadata>
  <rdf:RDF xmlns:cc="http://creativecommons.org/ns#" xmlns:dc="http://purl.org/dc/elements/1.1/" xmlns:rdf="http://www.w3.org/1999/02/22-rdf-syntax-ns#">
   <cc:Work>
    <dc:type rdf:resource="http://purl.org/dc/dcmitype/StillImage"/>
    <dc:date>2021-09-24T21:36:49.618783</dc:date>
    <dc:format>image/svg+xml</dc:format>
    <dc:creator>
     <cc:Agent>
      <dc:title>Matplotlib v3.4.3, https://matplotlib.org/</dc:title>
     </cc:Agent>
    </dc:creator>
   </cc:Work>
  </rdf:RDF>
 </metadata>
 <defs>
  <style type="text/css">*{stroke-linecap:butt;stroke-linejoin:round;}</style>
 </defs>
 <g id="figure_1">
  <g id="patch_1">
   <path d="M 0 321.466687 
L 398.560625 321.466687 
L 398.560625 0 
L 0 0 
z
" style="fill:#ffffff;"/>
  </g>
  <g id="axes_1">
   <g id="patch_2">
    <path d="M 34.240625 283.910437 
L 391.360625 283.910437 
L 391.360625 17.798437 
L 34.240625 17.798437 
z
" style="fill:#ffffff;"/>
   </g>
   <g id="patch_3">
    <path clip-path="url(#pa57d587f07)" d="M 50.473352 283.910437 
L 52.096625 283.910437 
L 52.096625 281.036968 
L 50.473352 281.036968 
z
" style="fill:#1f77b4;"/>
   </g>
   <g id="patch_4">
    <path clip-path="url(#pa57d587f07)" d="M 52.096625 283.910437 
L 53.719898 283.910437 
L 53.719898 275.577376 
L 52.096625 275.577376 
z
" style="fill:#1f77b4;"/>
   </g>
   <g id="patch_5">
    <path clip-path="url(#pa57d587f07)" d="M 53.719898 283.910437 
L 55.34317 283.910437 
L 55.34317 268.68105 
L 53.719898 268.68105 
z
" style="fill:#1f77b4;"/>
   </g>
   <g id="patch_6">
    <path clip-path="url(#pa57d587f07)" d="M 55.34317 283.910437 
L 56.966443 283.910437 
L 56.966443 259.485948 
L 55.34317 259.485948 
z
" style="fill:#1f77b4;"/>
   </g>
   <g id="patch_7">
    <path clip-path="url(#pa57d587f07)" d="M 56.966443 283.910437 
L 58.589716 283.910437 
L 58.589716 250.578193 
L 56.966443 250.578193 
z
" style="fill:#1f77b4;"/>
   </g>
   <g id="patch_8">
    <path clip-path="url(#pa57d587f07)" d="M 58.589716 283.910437 
L 60.212989 283.910437 
L 60.212989 239.084315 
L 58.589716 239.084315 
z
" style="fill:#1f77b4;"/>
   </g>
   <g id="patch_9">
    <path clip-path="url(#pa57d587f07)" d="M 60.212989 283.910437 
L 61.836261 283.910437 
L 61.836261 215.809213 
L 60.212989 215.809213 
z
" style="fill:#1f77b4;"/>
   </g>
   <g id="patch_10">
    <path clip-path="url(#pa57d587f07)" d="M 61.836261 283.910437 
L 63.459534 283.910437 
L 63.459534 214.659825 
L 61.836261 214.659825 
z
" style="fill:#1f77b4;"/>
   </g>
   <g id="patch_11">
    <path clip-path="url(#pa57d587f07)" d="M 63.459534 283.910437 
L 65.082807 283.910437 
L 65.082807 197.993703 
L 63.459534 197.993703 
z
" style="fill:#1f77b4;"/>
   </g>
   <g id="patch_12">
    <path clip-path="url(#pa57d587f07)" d="M 65.082807 283.910437 
L 66.70608 283.910437 
L 66.70608 180.46554 
L 65.082807 180.46554 
z
" style="fill:#1f77b4;"/>
   </g>
   <g id="patch_13">
    <path clip-path="url(#pa57d587f07)" d="M 66.70608 283.910437 
L 68.329352 283.910437 
L 68.329352 166.38554 
L 66.70608 166.38554 
z
" style="fill:#1f77b4;"/>
   </g>
   <g id="patch_14">
    <path clip-path="url(#pa57d587f07)" d="M 68.329352 283.910437 
L 69.952625 283.910437 
L 69.952625 161.787989 
L 68.329352 161.787989 
z
" style="fill:#1f77b4;"/>
   </g>
   <g id="patch_15">
    <path clip-path="url(#pa57d587f07)" d="M 69.952625 283.910437 
L 71.575898 283.910437 
L 71.575898 145.121866 
L 69.952625 145.121866 
z
" style="fill:#1f77b4;"/>
   </g>
   <g id="patch_16">
    <path clip-path="url(#pa57d587f07)" d="M 71.575898 283.910437 
L 73.19917 283.910437 
L 73.19917 131.61656 
L 71.575898 131.61656 
z
" style="fill:#1f77b4;"/>
   </g>
   <g id="patch_17">
    <path clip-path="url(#pa57d587f07)" d="M 73.19917 283.910437 
L 74.822443 283.910437 
L 74.822443 126.156968 
L 73.19917 126.156968 
z
" style="fill:#1f77b4;"/>
   </g>
   <g id="patch_18">
    <path clip-path="url(#pa57d587f07)" d="M 74.822443 283.910437 
L 76.445716 283.910437 
L 76.445716 93.974111 
L 74.822443 93.974111 
z
" style="fill:#1f77b4;"/>
   </g>
   <g id="patch_19">
    <path clip-path="url(#pa57d587f07)" d="M 76.445716 283.910437 
L 78.068989 283.910437 
L 78.068989 107.19207 
L 76.445716 107.19207 
z
" style="fill:#1f77b4;"/>
   </g>
   <g id="patch_20">
    <path clip-path="url(#pa57d587f07)" d="M 78.068989 283.910437 
L 79.692261 283.910437 
L 79.692261 100.008397 
L 78.068989 100.008397 
z
" style="fill:#1f77b4;"/>
   </g>
   <g id="patch_21">
    <path clip-path="url(#pa57d587f07)" d="M 79.692261 283.910437 
L 81.315534 283.910437 
L 81.315534 87.077784 
L 79.692261 87.077784 
z
" style="fill:#1f77b4;"/>
   </g>
   <g id="patch_22">
    <path clip-path="url(#pa57d587f07)" d="M 81.315534 283.910437 
L 82.938807 283.910437 
L 82.938807 79.319417 
L 81.315534 79.319417 
z
" style="fill:#1f77b4;"/>
   </g>
   <g id="patch_23">
    <path clip-path="url(#pa57d587f07)" d="M 82.938807 283.910437 
L 84.56208 283.910437 
L 84.56208 62.078601 
L 82.938807 62.078601 
z
" style="fill:#1f77b4;"/>
   </g>
   <g id="patch_24">
    <path clip-path="url(#pa57d587f07)" d="M 84.56208 283.910437 
L 86.185352 283.910437 
L 86.185352 65.239417 
L 84.56208 65.239417 
z
" style="fill:#1f77b4;"/>
   </g>
   <g id="patch_25">
    <path clip-path="url(#pa57d587f07)" d="M 86.185352 283.910437 
L 87.808625 283.910437 
L 87.808625 72.423091 
L 86.185352 72.423091 
z
" style="fill:#1f77b4;"/>
   </g>
   <g id="patch_26">
    <path clip-path="url(#pa57d587f07)" d="M 87.808625 283.910437 
L 89.431898 283.910437 
L 89.431898 45.987172 
L 87.808625 45.987172 
z
" style="fill:#1f77b4;"/>
   </g>
   <g id="patch_27">
    <path clip-path="url(#pa57d587f07)" d="M 89.431898 283.910437 
L 91.05517 283.910437 
L 91.05517 46.561866 
L 89.431898 46.561866 
z
" style="fill:#1f77b4;"/>
   </g>
   <g id="patch_28">
    <path clip-path="url(#pa57d587f07)" d="M 91.05517 283.910437 
L 92.678443 283.910437 
L 92.678443 37.079417 
L 91.05517 37.079417 
z
" style="fill:#1f77b4;"/>
   </g>
   <g id="patch_29">
    <path clip-path="url(#pa57d587f07)" d="M 92.678443 283.910437 
L 94.301716 283.910437 
L 94.301716 50.584723 
L 92.678443 50.584723 
z
" style="fill:#1f77b4;"/>
   </g>
   <g id="patch_30">
    <path clip-path="url(#pa57d587f07)" d="M 94.301716 283.910437 
L 95.924989 283.910437 
L 95.924989 59.492478 
L 94.301716 59.492478 
z
" style="fill:#1f77b4;"/>
   </g>
   <g id="patch_31">
    <path clip-path="url(#pa57d587f07)" d="M 95.924989 283.910437 
L 97.548261 283.910437 
L 97.548261 47.13656 
L 95.924989 47.13656 
z
" style="fill:#1f77b4;"/>
   </g>
   <g id="patch_32">
    <path clip-path="url(#pa57d587f07)" d="M 97.548261 283.910437 
L 99.171534 283.910437 
L 99.171534 46.561866 
L 97.548261 46.561866 
z
" style="fill:#1f77b4;"/>
   </g>
   <g id="patch_33">
    <path clip-path="url(#pa57d587f07)" d="M 99.171534 283.910437 
L 100.794807 283.910437 
L 100.794807 50.010029 
L 99.171534 50.010029 
z
" style="fill:#1f77b4;"/>
   </g>
   <g id="patch_34">
    <path clip-path="url(#pa57d587f07)" d="M 100.794807 283.910437 
L 102.41808 283.910437 
L 102.41808 53.458193 
L 100.794807 53.458193 
z
" style="fill:#1f77b4;"/>
   </g>
   <g id="patch_35">
    <path clip-path="url(#pa57d587f07)" d="M 102.41808 283.910437 
L 104.041352 283.910437 
L 104.041352 50.010029 
L 102.41808 50.010029 
z
" style="fill:#1f77b4;"/>
   </g>
   <g id="patch_36">
    <path clip-path="url(#pa57d587f07)" d="M 104.041352 283.910437 
L 105.664625 283.910437 
L 105.664625 30.470437 
L 104.041352 30.470437 
z
" style="fill:#1f77b4;"/>
   </g>
   <g id="patch_37">
    <path clip-path="url(#pa57d587f07)" d="M 105.664625 283.910437 
L 107.287898 283.910437 
L 107.287898 48.860642 
L 105.664625 48.860642 
z
" style="fill:#1f77b4;"/>
   </g>
   <g id="patch_38">
    <path clip-path="url(#pa57d587f07)" d="M 107.287898 283.910437 
L 108.91117 283.910437 
L 108.91117 55.756968 
L 107.287898 55.756968 
z
" style="fill:#1f77b4;"/>
   </g>
   <g id="patch_39">
    <path clip-path="url(#pa57d587f07)" d="M 108.91117 283.910437 
L 110.534443 283.910437 
L 110.534443 47.998601 
L 108.91117 47.998601 
z
" style="fill:#1f77b4;"/>
   </g>
   <g id="patch_40">
    <path clip-path="url(#pa57d587f07)" d="M 110.534443 283.910437 
L 112.157716 283.910437 
L 112.157716 61.21656 
L 110.534443 61.21656 
z
" style="fill:#1f77b4;"/>
   </g>
   <g id="patch_41">
    <path clip-path="url(#pa57d587f07)" d="M 112.157716 283.910437 
L 113.780989 283.910437 
L 113.780989 80.468805 
L 112.157716 80.468805 
z
" style="fill:#1f77b4;"/>
   </g>
   <g id="patch_42">
    <path clip-path="url(#pa57d587f07)" d="M 113.780989 283.910437 
L 115.404261 283.910437 
L 115.404261 64.377376 
L 113.780989 64.377376 
z
" style="fill:#1f77b4;"/>
   </g>
   <g id="patch_43">
    <path clip-path="url(#pa57d587f07)" d="M 115.404261 283.910437 
L 117.027534 283.910437 
L 117.027534 83.054927 
L 115.404261 83.054927 
z
" style="fill:#1f77b4;"/>
   </g>
   <g id="patch_44">
    <path clip-path="url(#pa57d587f07)" d="M 117.027534 283.910437 
L 118.650807 283.910437 
L 118.650807 79.894111 
L 117.027534 79.894111 
z
" style="fill:#1f77b4;"/>
   </g>
   <g id="patch_45">
    <path clip-path="url(#pa57d587f07)" d="M 118.650807 283.910437 
L 120.27408 283.910437 
L 120.27408 66.963499 
L 118.650807 66.963499 
z
" style="fill:#1f77b4;"/>
   </g>
   <g id="patch_46">
    <path clip-path="url(#pa57d587f07)" d="M 120.27408 283.910437 
L 121.897352 283.910437 
L 121.897352 109.490846 
L 120.27408 109.490846 
z
" style="fill:#1f77b4;"/>
   </g>
   <g id="patch_47">
    <path clip-path="url(#pa57d587f07)" d="M 121.897352 283.910437 
L 123.520625 283.910437 
L 123.520625 100.583091 
L 121.897352 100.583091 
z
" style="fill:#1f77b4;"/>
   </g>
   <g id="patch_48">
    <path clip-path="url(#pa57d587f07)" d="M 123.520625 283.910437 
L 125.143898 283.910437 
L 125.143898 103.169213 
L 123.520625 103.169213 
z
" style="fill:#1f77b4;"/>
   </g>
   <g id="patch_49">
    <path clip-path="url(#pa57d587f07)" d="M 125.143898 283.910437 
L 126.76717 283.910437 
L 126.76717 110.06554 
L 125.143898 110.06554 
z
" style="fill:#1f77b4;"/>
   </g>
   <g id="patch_50">
    <path clip-path="url(#pa57d587f07)" d="M 126.76717 283.910437 
L 128.390443 283.910437 
L 128.390443 109.778193 
L 126.76717 109.778193 
z
" style="fill:#1f77b4;"/>
   </g>
   <g id="patch_51">
    <path clip-path="url(#pa57d587f07)" d="M 128.390443 283.910437 
L 130.013716 283.910437 
L 130.013716 130.754519 
L 128.390443 130.754519 
z
" style="fill:#1f77b4;"/>
   </g>
   <g id="patch_52">
    <path clip-path="url(#pa57d587f07)" d="M 130.013716 283.910437 
L 131.636989 283.910437 
L 131.636989 126.731662 
L 130.013716 126.731662 
z
" style="fill:#1f77b4;"/>
   </g>
   <g id="patch_53">
    <path clip-path="url(#pa57d587f07)" d="M 131.636989 283.910437 
L 133.260261 283.910437 
L 133.260261 145.121866 
L 131.636989 145.121866 
z
" style="fill:#1f77b4;"/>
   </g>
   <g id="patch_54">
    <path clip-path="url(#pa57d587f07)" d="M 133.260261 283.910437 
L 134.883534 283.910437 
L 134.883534 146.558601 
L 133.260261 146.558601 
z
" style="fill:#1f77b4;"/>
   </g>
   <g id="patch_55">
    <path clip-path="url(#pa57d587f07)" d="M 134.883534 283.910437 
L 136.506807 283.910437 
L 136.506807 154.891662 
L 134.883534 154.891662 
z
" style="fill:#1f77b4;"/>
   </g>
   <g id="patch_56">
    <path clip-path="url(#pa57d587f07)" d="M 136.506807 283.910437 
L 138.13008 283.910437 
L 138.13008 157.765131 
L 136.506807 157.765131 
z
" style="fill:#1f77b4;"/>
   </g>
   <g id="patch_57">
    <path clip-path="url(#pa57d587f07)" d="M 138.13008 283.910437 
L 139.753352 283.910437 
L 139.753352 152.592886 
L 138.13008 152.592886 
z
" style="fill:#1f77b4;"/>
   </g>
   <g id="patch_58">
    <path clip-path="url(#pa57d587f07)" d="M 139.753352 283.910437 
L 141.376625 283.910437 
L 141.376625 176.442682 
L 139.753352 176.442682 
z
" style="fill:#1f77b4;"/>
   </g>
   <g id="patch_59">
    <path clip-path="url(#pa57d587f07)" d="M 141.376625 283.910437 
L 142.999898 283.910437 
L 142.999898 173.281866 
L 141.376625 173.281866 
z
" style="fill:#1f77b4;"/>
   </g>
   <g id="patch_60">
    <path clip-path="url(#pa57d587f07)" d="M 142.999898 283.910437 
L 144.62317 283.910437 
L 144.62317 170.983091 
L 142.999898 170.983091 
z
" style="fill:#1f77b4;"/>
   </g>
   <g id="patch_61">
    <path clip-path="url(#pa57d587f07)" d="M 144.62317 283.910437 
L 146.246443 283.910437 
L 146.246443 174.718601 
L 144.62317 174.718601 
z
" style="fill:#1f77b4;"/>
   </g>
   <g id="patch_62">
    <path clip-path="url(#pa57d587f07)" d="M 146.246443 283.910437 
L 147.869716 283.910437 
L 147.869716 192.821458 
L 146.246443 192.821458 
z
" style="fill:#1f77b4;"/>
   </g>
   <g id="patch_63">
    <path clip-path="url(#pa57d587f07)" d="M 147.869716 283.910437 
L 149.492989 283.910437 
L 149.492989 186.212478 
L 147.869716 186.212478 
z
" style="fill:#1f77b4;"/>
   </g>
   <g id="patch_64">
    <path clip-path="url(#pa57d587f07)" d="M 149.492989 283.910437 
L 151.116261 283.910437 
L 151.116261 188.223907 
L 149.492989 188.223907 
z
" style="fill:#1f77b4;"/>
   </g>
   <g id="patch_65">
    <path clip-path="url(#pa57d587f07)" d="M 151.116261 283.910437 
L 152.739534 283.910437 
L 152.739534 192.534111 
L 151.116261 192.534111 
z
" style="fill:#1f77b4;"/>
   </g>
   <g id="patch_66">
    <path clip-path="url(#pa57d587f07)" d="M 152.739534 283.910437 
L 154.362807 283.910437 
L 154.362807 204.315335 
L 152.739534 204.315335 
z
" style="fill:#1f77b4;"/>
   </g>
   <g id="patch_67">
    <path clip-path="url(#pa57d587f07)" d="M 154.362807 283.910437 
L 155.98608 283.910437 
L 155.98608 212.648397 
L 154.362807 212.648397 
z
" style="fill:#1f77b4;"/>
   </g>
   <g id="patch_68">
    <path clip-path="url(#pa57d587f07)" d="M 155.98608 283.910437 
L 157.609352 283.910437 
L 157.609352 208.62554 
L 155.98608 208.62554 
z
" style="fill:#1f77b4;"/>
   </g>
   <g id="patch_69">
    <path clip-path="url(#pa57d587f07)" d="M 157.609352 283.910437 
L 159.232625 283.910437 
L 159.232625 205.464723 
L 157.609352 205.464723 
z
" style="fill:#1f77b4;"/>
   </g>
   <g id="patch_70">
    <path clip-path="url(#pa57d587f07)" d="M 159.232625 283.910437 
L 160.855898 283.910437 
L 160.855898 211.786356 
L 159.232625 211.786356 
z
" style="fill:#1f77b4;"/>
   </g>
   <g id="patch_71">
    <path clip-path="url(#pa57d587f07)" d="M 160.855898 283.910437 
L 162.47917 283.910437 
L 162.47917 217.533295 
L 160.855898 217.533295 
z
" style="fill:#1f77b4;"/>
   </g>
   <g id="patch_72">
    <path clip-path="url(#pa57d587f07)" d="M 162.47917 283.910437 
L 164.102443 283.910437 
L 164.102443 218.395335 
L 162.47917 218.395335 
z
" style="fill:#1f77b4;"/>
   </g>
   <g id="patch_73">
    <path clip-path="url(#pa57d587f07)" d="M 164.102443 283.910437 
L 165.725716 283.910437 
L 165.725716 229.314519 
L 164.102443 229.314519 
z
" style="fill:#1f77b4;"/>
   </g>
   <g id="patch_74">
    <path clip-path="url(#pa57d587f07)" d="M 165.725716 283.910437 
L 167.348989 283.910437 
L 167.348989 232.475335 
L 165.725716 232.475335 
z
" style="fill:#1f77b4;"/>
   </g>
   <g id="patch_75">
    <path clip-path="url(#pa57d587f07)" d="M 167.348989 283.910437 
L 168.972261 283.910437 
L 168.972261 229.314519 
L 167.348989 229.314519 
z
" style="fill:#1f77b4;"/>
   </g>
   <g id="patch_76">
    <path clip-path="url(#pa57d587f07)" d="M 168.972261 283.910437 
L 170.595534 283.910437 
L 170.595534 234.199417 
L 168.972261 234.199417 
z
" style="fill:#1f77b4;"/>
   </g>
   <g id="patch_77">
    <path clip-path="url(#pa57d587f07)" d="M 170.595534 283.910437 
L 172.218807 283.910437 
L 172.218807 242.819825 
L 170.595534 242.819825 
z
" style="fill:#1f77b4;"/>
   </g>
   <g id="patch_78">
    <path clip-path="url(#pa57d587f07)" d="M 172.218807 283.910437 
L 173.84208 283.910437 
L 173.84208 240.808397 
L 172.218807 240.808397 
z
" style="fill:#1f77b4;"/>
   </g>
   <g id="patch_79">
    <path clip-path="url(#pa57d587f07)" d="M 173.84208 283.910437 
L 175.465352 283.910437 
L 175.465352 241.957784 
L 173.84208 241.957784 
z
" style="fill:#1f77b4;"/>
   </g>
   <g id="patch_80">
    <path clip-path="url(#pa57d587f07)" d="M 175.465352 283.910437 
L 177.088625 283.910437 
L 177.088625 240.808397 
L 175.465352 240.808397 
z
" style="fill:#1f77b4;"/>
   </g>
   <g id="patch_81">
    <path clip-path="url(#pa57d587f07)" d="M 177.088625 283.910437 
L 178.711898 283.910437 
L 178.711898 245.980642 
L 177.088625 245.980642 
z
" style="fill:#1f77b4;"/>
   </g>
   <g id="patch_82">
    <path clip-path="url(#pa57d587f07)" d="M 178.711898 283.910437 
L 180.33517 283.910437 
L 180.33517 251.72758 
L 178.711898 251.72758 
z
" style="fill:#1f77b4;"/>
   </g>
   <g id="patch_83">
    <path clip-path="url(#pa57d587f07)" d="M 180.33517 283.910437 
L 181.958443 283.910437 
L 181.958443 251.152886 
L 180.33517 251.152886 
z
" style="fill:#1f77b4;"/>
   </g>
   <g id="patch_84">
    <path clip-path="url(#pa57d587f07)" d="M 181.958443 283.910437 
L 183.581716 283.910437 
L 183.581716 247.417376 
L 181.958443 247.417376 
z
" style="fill:#1f77b4;"/>
   </g>
   <g id="patch_85">
    <path clip-path="url(#pa57d587f07)" d="M 183.581716 283.910437 
L 185.204989 283.910437 
L 185.204989 251.72758 
L 183.581716 251.72758 
z
" style="fill:#1f77b4;"/>
   </g>
   <g id="patch_86">
    <path clip-path="url(#pa57d587f07)" d="M 185.204989 283.910437 
L 186.828261 283.910437 
L 186.828261 259.485948 
L 185.204989 259.485948 
z
" style="fill:#1f77b4;"/>
   </g>
   <g id="patch_87">
    <path clip-path="url(#pa57d587f07)" d="M 186.828261 283.910437 
L 188.451534 283.910437 
L 188.451534 260.060642 
L 186.828261 260.060642 
z
" style="fill:#1f77b4;"/>
   </g>
   <g id="patch_88">
    <path clip-path="url(#pa57d587f07)" d="M 188.451534 283.910437 
L 190.074807 283.910437 
L 190.074807 262.07207 
L 188.451534 262.07207 
z
" style="fill:#1f77b4;"/>
   </g>
   <g id="patch_89">
    <path clip-path="url(#pa57d587f07)" d="M 190.074807 283.910437 
L 191.69808 283.910437 
L 191.69808 260.922682 
L 190.074807 260.922682 
z
" style="fill:#1f77b4;"/>
   </g>
   <g id="patch_90">
    <path clip-path="url(#pa57d587f07)" d="M 191.69808 283.910437 
L 193.321352 283.910437 
L 193.321352 263.508805 
L 191.69808 263.508805 
z
" style="fill:#1f77b4;"/>
   </g>
   <g id="patch_91">
    <path clip-path="url(#pa57d587f07)" d="M 193.321352 283.910437 
L 194.944625 283.910437 
L 194.944625 257.474519 
L 193.321352 257.474519 
z
" style="fill:#1f77b4;"/>
   </g>
   <g id="patch_92">
    <path clip-path="url(#pa57d587f07)" d="M 194.944625 283.910437 
L 196.567898 283.910437 
L 196.567898 266.094927 
L 194.944625 266.094927 
z
" style="fill:#1f77b4;"/>
   </g>
   <g id="patch_93">
    <path clip-path="url(#pa57d587f07)" d="M 196.567898 283.910437 
L 198.19117 283.910437 
L 198.19117 266.669621 
L 196.567898 266.669621 
z
" style="fill:#1f77b4;"/>
   </g>
   <g id="patch_94">
    <path clip-path="url(#pa57d587f07)" d="M 198.19117 283.910437 
L 199.814443 283.910437 
L 199.814443 265.80758 
L 198.19117 265.80758 
z
" style="fill:#1f77b4;"/>
   </g>
   <g id="patch_95">
    <path clip-path="url(#pa57d587f07)" d="M 199.814443 283.910437 
L 201.437716 283.910437 
L 201.437716 266.382274 
L 199.814443 266.382274 
z
" style="fill:#1f77b4;"/>
   </g>
   <g id="patch_96">
    <path clip-path="url(#pa57d587f07)" d="M 201.437716 283.910437 
L 203.060989 283.910437 
L 203.060989 267.244315 
L 201.437716 267.244315 
z
" style="fill:#1f77b4;"/>
   </g>
   <g id="patch_97">
    <path clip-path="url(#pa57d587f07)" d="M 203.060989 283.910437 
L 204.684261 283.910437 
L 204.684261 270.117784 
L 203.060989 270.117784 
z
" style="fill:#1f77b4;"/>
   </g>
   <g id="patch_98">
    <path clip-path="url(#pa57d587f07)" d="M 204.684261 283.910437 
L 206.307534 283.910437 
L 206.307534 269.830437 
L 204.684261 269.830437 
z
" style="fill:#1f77b4;"/>
   </g>
   <g id="patch_99">
    <path clip-path="url(#pa57d587f07)" d="M 206.307534 283.910437 
L 207.930807 283.910437 
L 207.930807 272.129213 
L 206.307534 272.129213 
z
" style="fill:#1f77b4;"/>
   </g>
   <g id="patch_100">
    <path clip-path="url(#pa57d587f07)" d="M 207.930807 283.910437 
L 209.55408 283.910437 
L 209.55408 274.140642 
L 207.930807 274.140642 
z
" style="fill:#1f77b4;"/>
   </g>
   <g id="patch_101">
    <path clip-path="url(#pa57d587f07)" d="M 209.55408 283.910437 
L 211.177352 283.910437 
L 211.177352 275.002682 
L 209.55408 275.002682 
z
" style="fill:#1f77b4;"/>
   </g>
   <g id="patch_102">
    <path clip-path="url(#pa57d587f07)" d="M 211.177352 283.910437 
L 212.800625 283.910437 
L 212.800625 274.140642 
L 211.177352 274.140642 
z
" style="fill:#1f77b4;"/>
   </g>
   <g id="patch_103">
    <path clip-path="url(#pa57d587f07)" d="M 212.800625 283.910437 
L 214.423898 283.910437 
L 214.423898 275.002682 
L 212.800625 275.002682 
z
" style="fill:#1f77b4;"/>
   </g>
   <g id="patch_104">
    <path clip-path="url(#pa57d587f07)" d="M 214.423898 283.910437 
L 216.04717 283.910437 
L 216.04717 276.726764 
L 214.423898 276.726764 
z
" style="fill:#1f77b4;"/>
   </g>
   <g id="patch_105">
    <path clip-path="url(#pa57d587f07)" d="M 216.04717 283.910437 
L 217.670443 283.910437 
L 217.670443 277.588805 
L 216.04717 277.588805 
z
" style="fill:#1f77b4;"/>
   </g>
   <g id="patch_106">
    <path clip-path="url(#pa57d587f07)" d="M 217.670443 283.910437 
L 219.293716 283.910437 
L 219.293716 275.290029 
L 217.670443 275.290029 
z
" style="fill:#1f77b4;"/>
   </g>
   <g id="patch_107">
    <path clip-path="url(#pa57d587f07)" d="M 219.293716 283.910437 
L 220.916989 283.910437 
L 220.916989 276.726764 
L 219.293716 276.726764 
z
" style="fill:#1f77b4;"/>
   </g>
   <g id="patch_108">
    <path clip-path="url(#pa57d587f07)" d="M 220.916989 283.910437 
L 222.540261 283.910437 
L 222.540261 277.301458 
L 220.916989 277.301458 
z
" style="fill:#1f77b4;"/>
   </g>
   <g id="patch_109">
    <path clip-path="url(#pa57d587f07)" d="M 222.540261 283.910437 
L 224.163534 283.910437 
L 224.163534 278.738193 
L 222.540261 278.738193 
z
" style="fill:#1f77b4;"/>
   </g>
   <g id="patch_110">
    <path clip-path="url(#pa57d587f07)" d="M 224.163534 283.910437 
L 225.786807 283.910437 
L 225.786807 277.876152 
L 224.163534 277.876152 
z
" style="fill:#1f77b4;"/>
   </g>
   <g id="patch_111">
    <path clip-path="url(#pa57d587f07)" d="M 225.786807 283.910437 
L 227.41008 283.910437 
L 227.41008 278.163499 
L 225.786807 278.163499 
z
" style="fill:#1f77b4;"/>
   </g>
   <g id="patch_112">
    <path clip-path="url(#pa57d587f07)" d="M 227.41008 283.910437 
L 229.033352 283.910437 
L 229.033352 280.749621 
L 227.41008 280.749621 
z
" style="fill:#1f77b4;"/>
   </g>
   <g id="patch_113">
    <path clip-path="url(#pa57d587f07)" d="M 229.033352 283.910437 
L 230.656625 283.910437 
L 230.656625 279.312886 
L 229.033352 279.312886 
z
" style="fill:#1f77b4;"/>
   </g>
   <g id="patch_114">
    <path clip-path="url(#pa57d587f07)" d="M 230.656625 283.910437 
L 232.279898 283.910437 
L 232.279898 278.163499 
L 230.656625 278.163499 
z
" style="fill:#1f77b4;"/>
   </g>
   <g id="patch_115">
    <path clip-path="url(#pa57d587f07)" d="M 232.279898 283.910437 
L 233.90317 283.910437 
L 233.90317 280.462274 
L 232.279898 280.462274 
z
" style="fill:#1f77b4;"/>
   </g>
   <g id="patch_116">
    <path clip-path="url(#pa57d587f07)" d="M 233.90317 283.910437 
L 235.526443 283.910437 
L 235.526443 278.163499 
L 233.90317 278.163499 
z
" style="fill:#1f77b4;"/>
   </g>
   <g id="patch_117">
    <path clip-path="url(#pa57d587f07)" d="M 235.526443 283.910437 
L 237.149716 283.910437 
L 237.149716 279.600233 
L 235.526443 279.600233 
z
" style="fill:#1f77b4;"/>
   </g>
   <g id="patch_118">
    <path clip-path="url(#pa57d587f07)" d="M 237.149716 283.910437 
L 238.772989 283.910437 
L 238.772989 279.88758 
L 237.149716 279.88758 
z
" style="fill:#1f77b4;"/>
   </g>
   <g id="patch_119">
    <path clip-path="url(#pa57d587f07)" d="M 238.772989 283.910437 
L 240.396261 283.910437 
L 240.396261 280.174927 
L 238.772989 280.174927 
z
" style="fill:#1f77b4;"/>
   </g>
   <g id="patch_120">
    <path clip-path="url(#pa57d587f07)" d="M 240.396261 283.910437 
L 242.019534 283.910437 
L 242.019534 281.324315 
L 240.396261 281.324315 
z
" style="fill:#1f77b4;"/>
   </g>
   <g id="patch_121">
    <path clip-path="url(#pa57d587f07)" d="M 242.019534 283.910437 
L 243.642807 283.910437 
L 243.642807 280.749621 
L 242.019534 280.749621 
z
" style="fill:#1f77b4;"/>
   </g>
   <g id="patch_122">
    <path clip-path="url(#pa57d587f07)" d="M 243.642807 283.910437 
L 245.26608 283.910437 
L 245.26608 280.462274 
L 243.642807 280.462274 
z
" style="fill:#1f77b4;"/>
   </g>
   <g id="patch_123">
    <path clip-path="url(#pa57d587f07)" d="M 245.26608 283.910437 
L 246.889352 283.910437 
L 246.889352 281.611662 
L 245.26608 281.611662 
z
" style="fill:#1f77b4;"/>
   </g>
   <g id="patch_124">
    <path clip-path="url(#pa57d587f07)" d="M 246.889352 283.910437 
L 248.512625 283.910437 
L 248.512625 280.462274 
L 246.889352 280.462274 
z
" style="fill:#1f77b4;"/>
   </g>
   <g id="patch_125">
    <path clip-path="url(#pa57d587f07)" d="M 248.512625 283.910437 
L 250.135898 283.910437 
L 250.135898 281.611662 
L 248.512625 281.611662 
z
" style="fill:#1f77b4;"/>
   </g>
   <g id="patch_126">
    <path clip-path="url(#pa57d587f07)" d="M 250.135898 283.910437 
L 251.75917 283.910437 
L 251.75917 281.899009 
L 250.135898 281.899009 
z
" style="fill:#1f77b4;"/>
   </g>
   <g id="patch_127">
    <path clip-path="url(#pa57d587f07)" d="M 251.75917 283.910437 
L 253.382443 283.910437 
L 253.382443 280.174927 
L 251.75917 280.174927 
z
" style="fill:#1f77b4;"/>
   </g>
   <g id="patch_128">
    <path clip-path="url(#pa57d587f07)" d="M 253.382443 283.910437 
L 255.005716 283.910437 
L 255.005716 282.186356 
L 253.382443 282.186356 
z
" style="fill:#1f77b4;"/>
   </g>
   <g id="patch_129">
    <path clip-path="url(#pa57d587f07)" d="M 255.005716 283.910437 
L 256.628989 283.910437 
L 256.628989 283.048397 
L 255.005716 283.048397 
z
" style="fill:#1f77b4;"/>
   </g>
   <g id="patch_130">
    <path clip-path="url(#pa57d587f07)" d="M 256.628989 283.910437 
L 258.252261 283.910437 
L 258.252261 282.473703 
L 256.628989 282.473703 
z
" style="fill:#1f77b4;"/>
   </g>
   <g id="patch_131">
    <path clip-path="url(#pa57d587f07)" d="M 258.252261 283.910437 
L 259.875534 283.910437 
L 259.875534 283.048397 
L 258.252261 283.048397 
z
" style="fill:#1f77b4;"/>
   </g>
   <g id="patch_132">
    <path clip-path="url(#pa57d587f07)" d="M 259.875534 283.910437 
L 261.498807 283.910437 
L 261.498807 282.76105 
L 259.875534 282.76105 
z
" style="fill:#1f77b4;"/>
   </g>
   <g id="patch_133">
    <path clip-path="url(#pa57d587f07)" d="M 261.498807 283.910437 
L 263.12208 283.910437 
L 263.12208 282.76105 
L 261.498807 282.76105 
z
" style="fill:#1f77b4;"/>
   </g>
   <g id="patch_134">
    <path clip-path="url(#pa57d587f07)" d="M 263.12208 283.910437 
L 264.745352 283.910437 
L 264.745352 282.473703 
L 263.12208 282.473703 
z
" style="fill:#1f77b4;"/>
   </g>
   <g id="patch_135">
    <path clip-path="url(#pa57d587f07)" d="M 264.745352 283.910437 
L 266.368625 283.910437 
L 266.368625 282.76105 
L 264.745352 282.76105 
z
" style="fill:#1f77b4;"/>
   </g>
   <g id="patch_136">
    <path clip-path="url(#pa57d587f07)" d="M 266.368625 283.910437 
L 267.991898 283.910437 
L 267.991898 283.335744 
L 266.368625 283.335744 
z
" style="fill:#1f77b4;"/>
   </g>
   <g id="patch_137">
    <path clip-path="url(#pa57d587f07)" d="M 267.991898 283.910437 
L 269.61517 283.910437 
L 269.61517 281.899009 
L 267.991898 281.899009 
z
" style="fill:#1f77b4;"/>
   </g>
   <g id="patch_138">
    <path clip-path="url(#pa57d587f07)" d="M 269.61517 283.910437 
L 271.238443 283.910437 
L 271.238443 283.048397 
L 269.61517 283.048397 
z
" style="fill:#1f77b4;"/>
   </g>
   <g id="patch_139">
    <path clip-path="url(#pa57d587f07)" d="M 271.238443 283.910437 
L 272.861716 283.910437 
L 272.861716 283.623091 
L 271.238443 283.623091 
z
" style="fill:#1f77b4;"/>
   </g>
   <g id="patch_140">
    <path clip-path="url(#pa57d587f07)" d="M 272.861716 283.910437 
L 274.484989 283.910437 
L 274.484989 282.76105 
L 272.861716 282.76105 
z
" style="fill:#1f77b4;"/>
   </g>
   <g id="patch_141">
    <path clip-path="url(#pa57d587f07)" d="M 274.484989 283.910437 
L 276.108261 283.910437 
L 276.108261 283.335744 
L 274.484989 283.335744 
z
" style="fill:#1f77b4;"/>
   </g>
   <g id="patch_142">
    <path clip-path="url(#pa57d587f07)" d="M 276.108261 283.910437 
L 277.731534 283.910437 
L 277.731534 282.473703 
L 276.108261 282.473703 
z
" style="fill:#1f77b4;"/>
   </g>
   <g id="patch_143">
    <path clip-path="url(#pa57d587f07)" d="M 277.731534 283.910437 
L 279.354807 283.910437 
L 279.354807 283.048397 
L 277.731534 283.048397 
z
" style="fill:#1f77b4;"/>
   </g>
   <g id="patch_144">
    <path clip-path="url(#pa57d587f07)" d="M 279.354807 283.910437 
L 280.97808 283.910437 
L 280.97808 283.623091 
L 279.354807 283.623091 
z
" style="fill:#1f77b4;"/>
   </g>
   <g id="patch_145">
    <path clip-path="url(#pa57d587f07)" d="M 280.97808 283.910437 
L 282.601352 283.910437 
L 282.601352 283.623091 
L 280.97808 283.623091 
z
" style="fill:#1f77b4;"/>
   </g>
   <g id="patch_146">
    <path clip-path="url(#pa57d587f07)" d="M 282.601352 283.910437 
L 284.224625 283.910437 
L 284.224625 282.473703 
L 282.601352 282.473703 
z
" style="fill:#1f77b4;"/>
   </g>
   <g id="patch_147">
    <path clip-path="url(#pa57d587f07)" d="M 284.224625 283.910437 
L 285.847898 283.910437 
L 285.847898 283.335744 
L 284.224625 283.335744 
z
" style="fill:#1f77b4;"/>
   </g>
   <g id="patch_148">
    <path clip-path="url(#pa57d587f07)" d="M 285.847898 283.910437 
L 287.47117 283.910437 
L 287.47117 283.623091 
L 285.847898 283.623091 
z
" style="fill:#1f77b4;"/>
   </g>
   <g id="patch_149">
    <path clip-path="url(#pa57d587f07)" d="M 287.47117 283.910437 
L 289.094443 283.910437 
L 289.094443 283.910437 
L 287.47117 283.910437 
z
" style="fill:#1f77b4;"/>
   </g>
   <g id="patch_150">
    <path clip-path="url(#pa57d587f07)" d="M 289.094443 283.910437 
L 290.717716 283.910437 
L 290.717716 283.335744 
L 289.094443 283.335744 
z
" style="fill:#1f77b4;"/>
   </g>
   <g id="patch_151">
    <path clip-path="url(#pa57d587f07)" d="M 290.717716 283.910437 
L 292.340989 283.910437 
L 292.340989 283.623091 
L 290.717716 283.623091 
z
" style="fill:#1f77b4;"/>
   </g>
   <g id="patch_152">
    <path clip-path="url(#pa57d587f07)" d="M 292.340989 283.910437 
L 293.964261 283.910437 
L 293.964261 283.910437 
L 292.340989 283.910437 
z
" style="fill:#1f77b4;"/>
   </g>
   <g id="patch_153">
    <path clip-path="url(#pa57d587f07)" d="M 293.964261 283.910437 
L 295.587534 283.910437 
L 295.587534 283.910437 
L 293.964261 283.910437 
z
" style="fill:#1f77b4;"/>
   </g>
   <g id="patch_154">
    <path clip-path="url(#pa57d587f07)" d="M 295.587534 283.910437 
L 297.210807 283.910437 
L 297.210807 283.910437 
L 295.587534 283.910437 
z
" style="fill:#1f77b4;"/>
   </g>
   <g id="patch_155">
    <path clip-path="url(#pa57d587f07)" d="M 297.210807 283.910437 
L 298.83408 283.910437 
L 298.83408 283.910437 
L 297.210807 283.910437 
z
" style="fill:#1f77b4;"/>
   </g>
   <g id="patch_156">
    <path clip-path="url(#pa57d587f07)" d="M 298.83408 283.910437 
L 300.457352 283.910437 
L 300.457352 283.910437 
L 298.83408 283.910437 
z
" style="fill:#1f77b4;"/>
   </g>
   <g id="patch_157">
    <path clip-path="url(#pa57d587f07)" d="M 300.457352 283.910437 
L 302.080625 283.910437 
L 302.080625 283.623091 
L 300.457352 283.623091 
z
" style="fill:#1f77b4;"/>
   </g>
   <g id="patch_158">
    <path clip-path="url(#pa57d587f07)" d="M 302.080625 283.910437 
L 303.703898 283.910437 
L 303.703898 283.910437 
L 302.080625 283.910437 
z
" style="fill:#1f77b4;"/>
   </g>
   <g id="patch_159">
    <path clip-path="url(#pa57d587f07)" d="M 303.703898 283.910437 
L 305.32717 283.910437 
L 305.32717 283.910437 
L 303.703898 283.910437 
z
" style="fill:#1f77b4;"/>
   </g>
   <g id="patch_160">
    <path clip-path="url(#pa57d587f07)" d="M 305.32717 283.910437 
L 306.950443 283.910437 
L 306.950443 283.910437 
L 305.32717 283.910437 
z
" style="fill:#1f77b4;"/>
   </g>
   <g id="patch_161">
    <path clip-path="url(#pa57d587f07)" d="M 306.950443 283.910437 
L 308.573716 283.910437 
L 308.573716 283.910437 
L 306.950443 283.910437 
z
" style="fill:#1f77b4;"/>
   </g>
   <g id="patch_162">
    <path clip-path="url(#pa57d587f07)" d="M 308.573716 283.910437 
L 310.196989 283.910437 
L 310.196989 283.335744 
L 308.573716 283.335744 
z
" style="fill:#1f77b4;"/>
   </g>
   <g id="patch_163">
    <path clip-path="url(#pa57d587f07)" d="M 310.196989 283.910437 
L 311.820261 283.910437 
L 311.820261 283.910437 
L 310.196989 283.910437 
z
" style="fill:#1f77b4;"/>
   </g>
   <g id="patch_164">
    <path clip-path="url(#pa57d587f07)" d="M 311.820261 283.910437 
L 313.443534 283.910437 
L 313.443534 283.910437 
L 311.820261 283.910437 
z
" style="fill:#1f77b4;"/>
   </g>
   <g id="patch_165">
    <path clip-path="url(#pa57d587f07)" d="M 313.443534 283.910437 
L 315.066807 283.910437 
L 315.066807 283.910437 
L 313.443534 283.910437 
z
" style="fill:#1f77b4;"/>
   </g>
   <g id="patch_166">
    <path clip-path="url(#pa57d587f07)" d="M 315.066807 283.910437 
L 316.69008 283.910437 
L 316.69008 283.623091 
L 315.066807 283.623091 
z
" style="fill:#1f77b4;"/>
   </g>
   <g id="patch_167">
    <path clip-path="url(#pa57d587f07)" d="M 316.69008 283.910437 
L 318.313352 283.910437 
L 318.313352 283.623091 
L 316.69008 283.623091 
z
" style="fill:#1f77b4;"/>
   </g>
   <g id="patch_168">
    <path clip-path="url(#pa57d587f07)" d="M 318.313352 283.910437 
L 319.936625 283.910437 
L 319.936625 283.910437 
L 318.313352 283.910437 
z
" style="fill:#1f77b4;"/>
   </g>
   <g id="patch_169">
    <path clip-path="url(#pa57d587f07)" d="M 319.936625 283.910437 
L 321.559898 283.910437 
L 321.559898 283.910437 
L 319.936625 283.910437 
z
" style="fill:#1f77b4;"/>
   </g>
   <g id="patch_170">
    <path clip-path="url(#pa57d587f07)" d="M 321.559898 283.910437 
L 323.18317 283.910437 
L 323.18317 283.910437 
L 321.559898 283.910437 
z
" style="fill:#1f77b4;"/>
   </g>
   <g id="patch_171">
    <path clip-path="url(#pa57d587f07)" d="M 323.18317 283.910437 
L 324.806443 283.910437 
L 324.806443 283.623091 
L 323.18317 283.623091 
z
" style="fill:#1f77b4;"/>
   </g>
   <g id="patch_172">
    <path clip-path="url(#pa57d587f07)" d="M 324.806443 283.910437 
L 326.429716 283.910437 
L 326.429716 283.910437 
L 324.806443 283.910437 
z
" style="fill:#1f77b4;"/>
   </g>
   <g id="patch_173">
    <path clip-path="url(#pa57d587f07)" d="M 326.429716 283.910437 
L 328.052989 283.910437 
L 328.052989 283.910437 
L 326.429716 283.910437 
z
" style="fill:#1f77b4;"/>
   </g>
   <g id="patch_174">
    <path clip-path="url(#pa57d587f07)" d="M 328.052989 283.910437 
L 329.676261 283.910437 
L 329.676261 283.910437 
L 328.052989 283.910437 
z
" style="fill:#1f77b4;"/>
   </g>
   <g id="patch_175">
    <path clip-path="url(#pa57d587f07)" d="M 329.676261 283.910437 
L 331.299534 283.910437 
L 331.299534 283.910437 
L 329.676261 283.910437 
z
" style="fill:#1f77b4;"/>
   </g>
   <g id="patch_176">
    <path clip-path="url(#pa57d587f07)" d="M 331.299534 283.910437 
L 332.922807 283.910437 
L 332.922807 283.910437 
L 331.299534 283.910437 
z
" style="fill:#1f77b4;"/>
   </g>
   <g id="patch_177">
    <path clip-path="url(#pa57d587f07)" d="M 332.922807 283.910437 
L 334.54608 283.910437 
L 334.54608 283.910437 
L 332.922807 283.910437 
z
" style="fill:#1f77b4;"/>
   </g>
   <g id="patch_178">
    <path clip-path="url(#pa57d587f07)" d="M 334.54608 283.910437 
L 336.169352 283.910437 
L 336.169352 283.910437 
L 334.54608 283.910437 
z
" style="fill:#1f77b4;"/>
   </g>
   <g id="patch_179">
    <path clip-path="url(#pa57d587f07)" d="M 336.169352 283.910437 
L 337.792625 283.910437 
L 337.792625 283.910437 
L 336.169352 283.910437 
z
" style="fill:#1f77b4;"/>
   </g>
   <g id="patch_180">
    <path clip-path="url(#pa57d587f07)" d="M 337.792625 283.910437 
L 339.415898 283.910437 
L 339.415898 283.910437 
L 337.792625 283.910437 
z
" style="fill:#1f77b4;"/>
   </g>
   <g id="patch_181">
    <path clip-path="url(#pa57d587f07)" d="M 339.415898 283.910437 
L 341.03917 283.910437 
L 341.03917 283.910437 
L 339.415898 283.910437 
z
" style="fill:#1f77b4;"/>
   </g>
   <g id="patch_182">
    <path clip-path="url(#pa57d587f07)" d="M 341.03917 283.910437 
L 342.662443 283.910437 
L 342.662443 283.910437 
L 341.03917 283.910437 
z
" style="fill:#1f77b4;"/>
   </g>
   <g id="patch_183">
    <path clip-path="url(#pa57d587f07)" d="M 342.662443 283.910437 
L 344.285716 283.910437 
L 344.285716 283.910437 
L 342.662443 283.910437 
z
" style="fill:#1f77b4;"/>
   </g>
   <g id="patch_184">
    <path clip-path="url(#pa57d587f07)" d="M 344.285716 283.910437 
L 345.908989 283.910437 
L 345.908989 283.910437 
L 344.285716 283.910437 
z
" style="fill:#1f77b4;"/>
   </g>
   <g id="patch_185">
    <path clip-path="url(#pa57d587f07)" d="M 345.908989 283.910437 
L 347.532261 283.910437 
L 347.532261 283.910437 
L 345.908989 283.910437 
z
" style="fill:#1f77b4;"/>
   </g>
   <g id="patch_186">
    <path clip-path="url(#pa57d587f07)" d="M 347.532261 283.910437 
L 349.155534 283.910437 
L 349.155534 283.910437 
L 347.532261 283.910437 
z
" style="fill:#1f77b4;"/>
   </g>
   <g id="patch_187">
    <path clip-path="url(#pa57d587f07)" d="M 349.155534 283.910437 
L 350.778807 283.910437 
L 350.778807 283.910437 
L 349.155534 283.910437 
z
" style="fill:#1f77b4;"/>
   </g>
   <g id="patch_188">
    <path clip-path="url(#pa57d587f07)" d="M 350.778807 283.910437 
L 352.40208 283.910437 
L 352.40208 283.910437 
L 350.778807 283.910437 
z
" style="fill:#1f77b4;"/>
   </g>
   <g id="patch_189">
    <path clip-path="url(#pa57d587f07)" d="M 352.40208 283.910437 
L 354.025352 283.910437 
L 354.025352 283.910437 
L 352.40208 283.910437 
z
" style="fill:#1f77b4;"/>
   </g>
   <g id="patch_190">
    <path clip-path="url(#pa57d587f07)" d="M 354.025352 283.910437 
L 355.648625 283.910437 
L 355.648625 283.910437 
L 354.025352 283.910437 
z
" style="fill:#1f77b4;"/>
   </g>
   <g id="patch_191">
    <path clip-path="url(#pa57d587f07)" d="M 355.648625 283.910437 
L 357.271898 283.910437 
L 357.271898 283.910437 
L 355.648625 283.910437 
z
" style="fill:#1f77b4;"/>
   </g>
   <g id="patch_192">
    <path clip-path="url(#pa57d587f07)" d="M 357.271898 283.910437 
L 358.89517 283.910437 
L 358.89517 283.910437 
L 357.271898 283.910437 
z
" style="fill:#1f77b4;"/>
   </g>
   <g id="patch_193">
    <path clip-path="url(#pa57d587f07)" d="M 358.89517 283.910437 
L 360.518443 283.910437 
L 360.518443 283.910437 
L 358.89517 283.910437 
z
" style="fill:#1f77b4;"/>
   </g>
   <g id="patch_194">
    <path clip-path="url(#pa57d587f07)" d="M 360.518443 283.910437 
L 362.141716 283.910437 
L 362.141716 283.910437 
L 360.518443 283.910437 
z
" style="fill:#1f77b4;"/>
   </g>
   <g id="patch_195">
    <path clip-path="url(#pa57d587f07)" d="M 362.141716 283.910437 
L 363.764989 283.910437 
L 363.764989 283.910437 
L 362.141716 283.910437 
z
" style="fill:#1f77b4;"/>
   </g>
   <g id="patch_196">
    <path clip-path="url(#pa57d587f07)" d="M 363.764989 283.910437 
L 365.388261 283.910437 
L 365.388261 283.910437 
L 363.764989 283.910437 
z
" style="fill:#1f77b4;"/>
   </g>
   <g id="patch_197">
    <path clip-path="url(#pa57d587f07)" d="M 365.388261 283.910437 
L 367.011534 283.910437 
L 367.011534 283.910437 
L 365.388261 283.910437 
z
" style="fill:#1f77b4;"/>
   </g>
   <g id="patch_198">
    <path clip-path="url(#pa57d587f07)" d="M 367.011534 283.910437 
L 368.634807 283.910437 
L 368.634807 283.910437 
L 367.011534 283.910437 
z
" style="fill:#1f77b4;"/>
   </g>
   <g id="patch_199">
    <path clip-path="url(#pa57d587f07)" d="M 368.634807 283.910437 
L 370.25808 283.910437 
L 370.25808 283.910437 
L 368.634807 283.910437 
z
" style="fill:#1f77b4;"/>
   </g>
   <g id="patch_200">
    <path clip-path="url(#pa57d587f07)" d="M 370.25808 283.910437 
L 371.881352 283.910437 
L 371.881352 283.910437 
L 370.25808 283.910437 
z
" style="fill:#1f77b4;"/>
   </g>
   <g id="patch_201">
    <path clip-path="url(#pa57d587f07)" d="M 371.881352 283.910437 
L 373.504625 283.910437 
L 373.504625 283.910437 
L 371.881352 283.910437 
z
" style="fill:#1f77b4;"/>
   </g>
   <g id="patch_202">
    <path clip-path="url(#pa57d587f07)" d="M 373.504625 283.910437 
L 375.127898 283.910437 
L 375.127898 283.623091 
L 373.504625 283.623091 
z
" style="fill:#1f77b4;"/>
   </g>
   <g id="matplotlib.axis_1">
    <g id="xtick_1">
     <g id="line2d_1">
      <defs>
       <path d="M 0 0 
L 0 3.5 
" id="me360928fff" style="stroke:#000000;stroke-width:0.8;"/>
      </defs>
      <g>
       <use style="stroke:#000000;stroke-width:0.8;" x="48.902618" xlink:href="#me360928fff" y="283.910437"/>
      </g>
     </g>
     <g id="text_1">
      <!-- 0.0 -->
      <g transform="translate(40.951056 298.508875)scale(0.1 -0.1)">
       <defs>
        <path d="M 2034 4250 
Q 1547 4250 1301 3770 
Q 1056 3291 1056 2328 
Q 1056 1369 1301 889 
Q 1547 409 2034 409 
Q 2525 409 2770 889 
Q 3016 1369 3016 2328 
Q 3016 3291 2770 3770 
Q 2525 4250 2034 4250 
z
M 2034 4750 
Q 2819 4750 3233 4129 
Q 3647 3509 3647 2328 
Q 3647 1150 3233 529 
Q 2819 -91 2034 -91 
Q 1250 -91 836 529 
Q 422 1150 422 2328 
Q 422 3509 836 4129 
Q 1250 4750 2034 4750 
z
" id="DejaVuSans-30" transform="scale(0.015625)"/>
        <path d="M 684 794 
L 1344 794 
L 1344 0 
L 684 0 
L 684 794 
z
" id="DejaVuSans-2e" transform="scale(0.015625)"/>
       </defs>
       <use xlink:href="#DejaVuSans-30"/>
       <use x="63.623047" xlink:href="#DejaVuSans-2e"/>
       <use x="95.410156" xlink:href="#DejaVuSans-30"/>
      </g>
     </g>
    </g>
    <g id="xtick_2">
     <g id="line2d_2">
      <g>
       <use style="stroke:#000000;stroke-width:0.8;" x="89.909586" xlink:href="#me360928fff" y="283.910437"/>
      </g>
     </g>
     <g id="text_2">
      <!-- 0.5 -->
      <g transform="translate(81.958023 298.508875)scale(0.1 -0.1)">
       <defs>
        <path d="M 691 4666 
L 3169 4666 
L 3169 4134 
L 1269 4134 
L 1269 2991 
Q 1406 3038 1543 3061 
Q 1681 3084 1819 3084 
Q 2600 3084 3056 2656 
Q 3513 2228 3513 1497 
Q 3513 744 3044 326 
Q 2575 -91 1722 -91 
Q 1428 -91 1123 -41 
Q 819 9 494 109 
L 494 744 
Q 775 591 1075 516 
Q 1375 441 1709 441 
Q 2250 441 2565 725 
Q 2881 1009 2881 1497 
Q 2881 1984 2565 2268 
Q 2250 2553 1709 2553 
Q 1456 2553 1204 2497 
Q 953 2441 691 2322 
L 691 4666 
z
" id="DejaVuSans-35" transform="scale(0.015625)"/>
       </defs>
       <use xlink:href="#DejaVuSans-30"/>
       <use x="63.623047" xlink:href="#DejaVuSans-2e"/>
       <use x="95.410156" xlink:href="#DejaVuSans-35"/>
      </g>
     </g>
    </g>
    <g id="xtick_3">
     <g id="line2d_3">
      <g>
       <use style="stroke:#000000;stroke-width:0.8;" x="130.916554" xlink:href="#me360928fff" y="283.910437"/>
      </g>
     </g>
     <g id="text_3">
      <!-- 1.0 -->
      <g transform="translate(122.964991 298.508875)scale(0.1 -0.1)">
       <defs>
        <path d="M 794 531 
L 1825 531 
L 1825 4091 
L 703 3866 
L 703 4441 
L 1819 4666 
L 2450 4666 
L 2450 531 
L 3481 531 
L 3481 0 
L 794 0 
L 794 531 
z
" id="DejaVuSans-31" transform="scale(0.015625)"/>
       </defs>
       <use xlink:href="#DejaVuSans-31"/>
       <use x="63.623047" xlink:href="#DejaVuSans-2e"/>
       <use x="95.410156" xlink:href="#DejaVuSans-30"/>
      </g>
     </g>
    </g>
    <g id="xtick_4">
     <g id="line2d_4">
      <g>
       <use style="stroke:#000000;stroke-width:0.8;" x="171.923521" xlink:href="#me360928fff" y="283.910437"/>
      </g>
     </g>
     <g id="text_4">
      <!-- 1.5 -->
      <g transform="translate(163.971959 298.508875)scale(0.1 -0.1)">
       <use xlink:href="#DejaVuSans-31"/>
       <use x="63.623047" xlink:href="#DejaVuSans-2e"/>
       <use x="95.410156" xlink:href="#DejaVuSans-35"/>
      </g>
     </g>
    </g>
    <g id="xtick_5">
     <g id="line2d_5">
      <g>
       <use style="stroke:#000000;stroke-width:0.8;" x="212.930489" xlink:href="#me360928fff" y="283.910437"/>
      </g>
     </g>
     <g id="text_5">
      <!-- 2.0 -->
      <g transform="translate(204.978926 298.508875)scale(0.1 -0.1)">
       <defs>
        <path d="M 1228 531 
L 3431 531 
L 3431 0 
L 469 0 
L 469 531 
Q 828 903 1448 1529 
Q 2069 2156 2228 2338 
Q 2531 2678 2651 2914 
Q 2772 3150 2772 3378 
Q 2772 3750 2511 3984 
Q 2250 4219 1831 4219 
Q 1534 4219 1204 4116 
Q 875 4013 500 3803 
L 500 4441 
Q 881 4594 1212 4672 
Q 1544 4750 1819 4750 
Q 2544 4750 2975 4387 
Q 3406 4025 3406 3419 
Q 3406 3131 3298 2873 
Q 3191 2616 2906 2266 
Q 2828 2175 2409 1742 
Q 1991 1309 1228 531 
z
" id="DejaVuSans-32" transform="scale(0.015625)"/>
       </defs>
       <use xlink:href="#DejaVuSans-32"/>
       <use x="63.623047" xlink:href="#DejaVuSans-2e"/>
       <use x="95.410156" xlink:href="#DejaVuSans-30"/>
      </g>
     </g>
    </g>
    <g id="xtick_6">
     <g id="line2d_6">
      <g>
       <use style="stroke:#000000;stroke-width:0.8;" x="253.937457" xlink:href="#me360928fff" y="283.910437"/>
      </g>
     </g>
     <g id="text_6">
      <!-- 2.5 -->
      <g transform="translate(245.985894 298.508875)scale(0.1 -0.1)">
       <use xlink:href="#DejaVuSans-32"/>
       <use x="63.623047" xlink:href="#DejaVuSans-2e"/>
       <use x="95.410156" xlink:href="#DejaVuSans-35"/>
      </g>
     </g>
    </g>
    <g id="xtick_7">
     <g id="line2d_7">
      <g>
       <use style="stroke:#000000;stroke-width:0.8;" x="294.944424" xlink:href="#me360928fff" y="283.910437"/>
      </g>
     </g>
     <g id="text_7">
      <!-- 3.0 -->
      <g transform="translate(286.992862 298.508875)scale(0.1 -0.1)">
       <defs>
        <path d="M 2597 2516 
Q 3050 2419 3304 2112 
Q 3559 1806 3559 1356 
Q 3559 666 3084 287 
Q 2609 -91 1734 -91 
Q 1441 -91 1130 -33 
Q 819 25 488 141 
L 488 750 
Q 750 597 1062 519 
Q 1375 441 1716 441 
Q 2309 441 2620 675 
Q 2931 909 2931 1356 
Q 2931 1769 2642 2001 
Q 2353 2234 1838 2234 
L 1294 2234 
L 1294 2753 
L 1863 2753 
Q 2328 2753 2575 2939 
Q 2822 3125 2822 3475 
Q 2822 3834 2567 4026 
Q 2313 4219 1838 4219 
Q 1578 4219 1281 4162 
Q 984 4106 628 3988 
L 628 4550 
Q 988 4650 1302 4700 
Q 1616 4750 1894 4750 
Q 2613 4750 3031 4423 
Q 3450 4097 3450 3541 
Q 3450 3153 3228 2886 
Q 3006 2619 2597 2516 
z
" id="DejaVuSans-33" transform="scale(0.015625)"/>
       </defs>
       <use xlink:href="#DejaVuSans-33"/>
       <use x="63.623047" xlink:href="#DejaVuSans-2e"/>
       <use x="95.410156" xlink:href="#DejaVuSans-30"/>
      </g>
     </g>
    </g>
    <g id="xtick_8">
     <g id="line2d_8">
      <g>
       <use style="stroke:#000000;stroke-width:0.8;" x="335.951392" xlink:href="#me360928fff" y="283.910437"/>
      </g>
     </g>
     <g id="text_8">
      <!-- 3.5 -->
      <g transform="translate(327.99983 298.508875)scale(0.1 -0.1)">
       <use xlink:href="#DejaVuSans-33"/>
       <use x="63.623047" xlink:href="#DejaVuSans-2e"/>
       <use x="95.410156" xlink:href="#DejaVuSans-35"/>
      </g>
     </g>
    </g>
    <g id="xtick_9">
     <g id="line2d_9">
      <g>
       <use style="stroke:#000000;stroke-width:0.8;" x="376.95836" xlink:href="#me360928fff" y="283.910437"/>
      </g>
     </g>
     <g id="text_9">
      <!-- 4.0 -->
      <g transform="translate(369.006797 298.508875)scale(0.1 -0.1)">
       <defs>
        <path d="M 2419 4116 
L 825 1625 
L 2419 1625 
L 2419 4116 
z
M 2253 4666 
L 3047 4666 
L 3047 1625 
L 3713 1625 
L 3713 1100 
L 3047 1100 
L 3047 0 
L 2419 0 
L 2419 1100 
L 313 1100 
L 313 1709 
L 2253 4666 
z
" id="DejaVuSans-34" transform="scale(0.015625)"/>
       </defs>
       <use xlink:href="#DejaVuSans-34"/>
       <use x="63.623047" xlink:href="#DejaVuSans-2e"/>
       <use x="95.410156" xlink:href="#DejaVuSans-30"/>
      </g>
     </g>
    </g>
    <g id="text_10">
     <!-- Frequency (Hz) -->
     <g transform="translate(175.095938 312.187)scale(0.1 -0.1)">
      <defs>
       <path d="M 628 4666 
L 3309 4666 
L 3309 4134 
L 1259 4134 
L 1259 2759 
L 3109 2759 
L 3109 2228 
L 1259 2228 
L 1259 0 
L 628 0 
L 628 4666 
z
" id="DejaVuSans-46" transform="scale(0.015625)"/>
       <path d="M 2631 2963 
Q 2534 3019 2420 3045 
Q 2306 3072 2169 3072 
Q 1681 3072 1420 2755 
Q 1159 2438 1159 1844 
L 1159 0 
L 581 0 
L 581 3500 
L 1159 3500 
L 1159 2956 
Q 1341 3275 1631 3429 
Q 1922 3584 2338 3584 
Q 2397 3584 2469 3576 
Q 2541 3569 2628 3553 
L 2631 2963 
z
" id="DejaVuSans-72" transform="scale(0.015625)"/>
       <path d="M 3597 1894 
L 3597 1613 
L 953 1613 
Q 991 1019 1311 708 
Q 1631 397 2203 397 
Q 2534 397 2845 478 
Q 3156 559 3463 722 
L 3463 178 
Q 3153 47 2828 -22 
Q 2503 -91 2169 -91 
Q 1331 -91 842 396 
Q 353 884 353 1716 
Q 353 2575 817 3079 
Q 1281 3584 2069 3584 
Q 2775 3584 3186 3129 
Q 3597 2675 3597 1894 
z
M 3022 2063 
Q 3016 2534 2758 2815 
Q 2500 3097 2075 3097 
Q 1594 3097 1305 2825 
Q 1016 2553 972 2059 
L 3022 2063 
z
" id="DejaVuSans-65" transform="scale(0.015625)"/>
       <path d="M 947 1747 
Q 947 1113 1208 752 
Q 1469 391 1925 391 
Q 2381 391 2643 752 
Q 2906 1113 2906 1747 
Q 2906 2381 2643 2742 
Q 2381 3103 1925 3103 
Q 1469 3103 1208 2742 
Q 947 2381 947 1747 
z
M 2906 525 
Q 2725 213 2448 61 
Q 2172 -91 1784 -91 
Q 1150 -91 751 415 
Q 353 922 353 1747 
Q 353 2572 751 3078 
Q 1150 3584 1784 3584 
Q 2172 3584 2448 3432 
Q 2725 3281 2906 2969 
L 2906 3500 
L 3481 3500 
L 3481 -1331 
L 2906 -1331 
L 2906 525 
z
" id="DejaVuSans-71" transform="scale(0.015625)"/>
       <path d="M 544 1381 
L 544 3500 
L 1119 3500 
L 1119 1403 
Q 1119 906 1312 657 
Q 1506 409 1894 409 
Q 2359 409 2629 706 
Q 2900 1003 2900 1516 
L 2900 3500 
L 3475 3500 
L 3475 0 
L 2900 0 
L 2900 538 
Q 2691 219 2414 64 
Q 2138 -91 1772 -91 
Q 1169 -91 856 284 
Q 544 659 544 1381 
z
M 1991 3584 
L 1991 3584 
z
" id="DejaVuSans-75" transform="scale(0.015625)"/>
       <path d="M 3513 2113 
L 3513 0 
L 2938 0 
L 2938 2094 
Q 2938 2591 2744 2837 
Q 2550 3084 2163 3084 
Q 1697 3084 1428 2787 
Q 1159 2491 1159 1978 
L 1159 0 
L 581 0 
L 581 3500 
L 1159 3500 
L 1159 2956 
Q 1366 3272 1645 3428 
Q 1925 3584 2291 3584 
Q 2894 3584 3203 3211 
Q 3513 2838 3513 2113 
z
" id="DejaVuSans-6e" transform="scale(0.015625)"/>
       <path d="M 3122 3366 
L 3122 2828 
Q 2878 2963 2633 3030 
Q 2388 3097 2138 3097 
Q 1578 3097 1268 2742 
Q 959 2388 959 1747 
Q 959 1106 1268 751 
Q 1578 397 2138 397 
Q 2388 397 2633 464 
Q 2878 531 3122 666 
L 3122 134 
Q 2881 22 2623 -34 
Q 2366 -91 2075 -91 
Q 1284 -91 818 406 
Q 353 903 353 1747 
Q 353 2603 823 3093 
Q 1294 3584 2113 3584 
Q 2378 3584 2631 3529 
Q 2884 3475 3122 3366 
z
" id="DejaVuSans-63" transform="scale(0.015625)"/>
       <path d="M 2059 -325 
Q 1816 -950 1584 -1140 
Q 1353 -1331 966 -1331 
L 506 -1331 
L 506 -850 
L 844 -850 
Q 1081 -850 1212 -737 
Q 1344 -625 1503 -206 
L 1606 56 
L 191 3500 
L 800 3500 
L 1894 763 
L 2988 3500 
L 3597 3500 
L 2059 -325 
z
" id="DejaVuSans-79" transform="scale(0.015625)"/>
       <path id="DejaVuSans-20" transform="scale(0.015625)"/>
       <path d="M 1984 4856 
Q 1566 4138 1362 3434 
Q 1159 2731 1159 2009 
Q 1159 1288 1364 580 
Q 1569 -128 1984 -844 
L 1484 -844 
Q 1016 -109 783 600 
Q 550 1309 550 2009 
Q 550 2706 781 3412 
Q 1013 4119 1484 4856 
L 1984 4856 
z
" id="DejaVuSans-28" transform="scale(0.015625)"/>
       <path d="M 628 4666 
L 1259 4666 
L 1259 2753 
L 3553 2753 
L 3553 4666 
L 4184 4666 
L 4184 0 
L 3553 0 
L 3553 2222 
L 1259 2222 
L 1259 0 
L 628 0 
L 628 4666 
z
" id="DejaVuSans-48" transform="scale(0.015625)"/>
       <path d="M 353 3500 
L 3084 3500 
L 3084 2975 
L 922 459 
L 3084 459 
L 3084 0 
L 275 0 
L 275 525 
L 2438 3041 
L 353 3041 
L 353 3500 
z
" id="DejaVuSans-7a" transform="scale(0.015625)"/>
       <path d="M 513 4856 
L 1013 4856 
Q 1481 4119 1714 3412 
Q 1947 2706 1947 2009 
Q 1947 1309 1714 600 
Q 1481 -109 1013 -844 
L 513 -844 
Q 928 -128 1133 580 
Q 1338 1288 1338 2009 
Q 1338 2731 1133 3434 
Q 928 4138 513 4856 
z
" id="DejaVuSans-29" transform="scale(0.015625)"/>
      </defs>
      <use xlink:href="#DejaVuSans-46"/>
      <use x="50.269531" xlink:href="#DejaVuSans-72"/>
      <use x="89.132812" xlink:href="#DejaVuSans-65"/>
      <use x="150.65625" xlink:href="#DejaVuSans-71"/>
      <use x="214.132812" xlink:href="#DejaVuSans-75"/>
      <use x="277.511719" xlink:href="#DejaVuSans-65"/>
      <use x="339.035156" xlink:href="#DejaVuSans-6e"/>
      <use x="402.414062" xlink:href="#DejaVuSans-63"/>
      <use x="457.394531" xlink:href="#DejaVuSans-79"/>
      <use x="516.574219" xlink:href="#DejaVuSans-20"/>
      <use x="548.361328" xlink:href="#DejaVuSans-28"/>
      <use x="587.375" xlink:href="#DejaVuSans-48"/>
      <use x="662.570312" xlink:href="#DejaVuSans-7a"/>
      <use x="715.060547" xlink:href="#DejaVuSans-29"/>
     </g>
    </g>
    <g id="text_11">
     <!-- 1e15 -->
     <g transform="translate(366.12 311.187)scale(0.1 -0.1)">
      <use xlink:href="#DejaVuSans-31"/>
      <use x="63.623047" xlink:href="#DejaVuSans-65"/>
      <use x="125.146484" xlink:href="#DejaVuSans-31"/>
      <use x="188.769531" xlink:href="#DejaVuSans-35"/>
     </g>
    </g>
   </g>
   <g id="matplotlib.axis_2">
    <g id="ytick_1">
     <g id="line2d_10">
      <defs>
       <path d="M 0 0 
L -3.5 0 
" id="mdf5b6f53c0" style="stroke:#000000;stroke-width:0.8;"/>
      </defs>
      <g>
       <use style="stroke:#000000;stroke-width:0.8;" x="34.240625" xlink:href="#mdf5b6f53c0" y="283.910437"/>
      </g>
     </g>
     <g id="text_12">
      <!-- 0 -->
      <g transform="translate(20.878125 287.709656)scale(0.1 -0.1)">
       <use xlink:href="#DejaVuSans-30"/>
      </g>
     </g>
    </g>
    <g id="ytick_2">
     <g id="line2d_11">
      <g>
       <use style="stroke:#000000;stroke-width:0.8;" x="34.240625" xlink:href="#mdf5b6f53c0" y="251.247948"/>
      </g>
     </g>
     <g id="text_13">
      <!-- 1 -->
      <g transform="translate(20.878125 255.047167)scale(0.1 -0.1)">
       <use xlink:href="#DejaVuSans-31"/>
      </g>
     </g>
    </g>
    <g id="ytick_3">
     <g id="line2d_12">
      <g>
       <use style="stroke:#000000;stroke-width:0.8;" x="34.240625" xlink:href="#mdf5b6f53c0" y="218.585458"/>
      </g>
     </g>
     <g id="text_14">
      <!-- 2 -->
      <g transform="translate(20.878125 222.384677)scale(0.1 -0.1)">
       <use xlink:href="#DejaVuSans-32"/>
      </g>
     </g>
    </g>
    <g id="ytick_4">
     <g id="line2d_13">
      <g>
       <use style="stroke:#000000;stroke-width:0.8;" x="34.240625" xlink:href="#mdf5b6f53c0" y="185.922968"/>
      </g>
     </g>
     <g id="text_15">
      <!-- 3 -->
      <g transform="translate(20.878125 189.722187)scale(0.1 -0.1)">
       <use xlink:href="#DejaVuSans-33"/>
      </g>
     </g>
    </g>
    <g id="ytick_5">
     <g id="line2d_14">
      <g>
       <use style="stroke:#000000;stroke-width:0.8;" x="34.240625" xlink:href="#mdf5b6f53c0" y="153.260479"/>
      </g>
     </g>
     <g id="text_16">
      <!-- 4 -->
      <g transform="translate(20.878125 157.059697)scale(0.1 -0.1)">
       <use xlink:href="#DejaVuSans-34"/>
      </g>
     </g>
    </g>
    <g id="ytick_6">
     <g id="line2d_15">
      <g>
       <use style="stroke:#000000;stroke-width:0.8;" x="34.240625" xlink:href="#mdf5b6f53c0" y="120.597989"/>
      </g>
     </g>
     <g id="text_17">
      <!-- 5 -->
      <g transform="translate(20.878125 124.397208)scale(0.1 -0.1)">
       <use xlink:href="#DejaVuSans-35"/>
      </g>
     </g>
    </g>
    <g id="ytick_7">
     <g id="line2d_16">
      <g>
       <use style="stroke:#000000;stroke-width:0.8;" x="34.240625" xlink:href="#mdf5b6f53c0" y="87.935499"/>
      </g>
     </g>
     <g id="text_18">
      <!-- 6 -->
      <g transform="translate(20.878125 91.734718)scale(0.1 -0.1)">
       <defs>
        <path d="M 2113 2584 
Q 1688 2584 1439 2293 
Q 1191 2003 1191 1497 
Q 1191 994 1439 701 
Q 1688 409 2113 409 
Q 2538 409 2786 701 
Q 3034 994 3034 1497 
Q 3034 2003 2786 2293 
Q 2538 2584 2113 2584 
z
M 3366 4563 
L 3366 3988 
Q 3128 4100 2886 4159 
Q 2644 4219 2406 4219 
Q 1781 4219 1451 3797 
Q 1122 3375 1075 2522 
Q 1259 2794 1537 2939 
Q 1816 3084 2150 3084 
Q 2853 3084 3261 2657 
Q 3669 2231 3669 1497 
Q 3669 778 3244 343 
Q 2819 -91 2113 -91 
Q 1303 -91 875 529 
Q 447 1150 447 2328 
Q 447 3434 972 4092 
Q 1497 4750 2381 4750 
Q 2619 4750 2861 4703 
Q 3103 4656 3366 4563 
z
" id="DejaVuSans-36" transform="scale(0.015625)"/>
       </defs>
       <use xlink:href="#DejaVuSans-36"/>
      </g>
     </g>
    </g>
    <g id="ytick_8">
     <g id="line2d_17">
      <g>
       <use style="stroke:#000000;stroke-width:0.8;" x="34.240625" xlink:href="#mdf5b6f53c0" y="55.27301"/>
      </g>
     </g>
     <g id="text_19">
      <!-- 7 -->
      <g transform="translate(20.878125 59.072228)scale(0.1 -0.1)">
       <defs>
        <path d="M 525 4666 
L 3525 4666 
L 3525 4397 
L 1831 0 
L 1172 0 
L 2766 4134 
L 525 4134 
L 525 4666 
z
" id="DejaVuSans-37" transform="scale(0.015625)"/>
       </defs>
       <use xlink:href="#DejaVuSans-37"/>
      </g>
     </g>
    </g>
    <g id="ytick_9">
     <g id="line2d_18">
      <g>
       <use style="stroke:#000000;stroke-width:0.8;" x="34.240625" xlink:href="#mdf5b6f53c0" y="22.61052"/>
      </g>
     </g>
     <g id="text_20">
      <!-- 8 -->
      <g transform="translate(20.878125 26.409739)scale(0.1 -0.1)">
       <defs>
        <path d="M 2034 2216 
Q 1584 2216 1326 1975 
Q 1069 1734 1069 1313 
Q 1069 891 1326 650 
Q 1584 409 2034 409 
Q 2484 409 2743 651 
Q 3003 894 3003 1313 
Q 3003 1734 2745 1975 
Q 2488 2216 2034 2216 
z
M 1403 2484 
Q 997 2584 770 2862 
Q 544 3141 544 3541 
Q 544 4100 942 4425 
Q 1341 4750 2034 4750 
Q 2731 4750 3128 4425 
Q 3525 4100 3525 3541 
Q 3525 3141 3298 2862 
Q 3072 2584 2669 2484 
Q 3125 2378 3379 2068 
Q 3634 1759 3634 1313 
Q 3634 634 3220 271 
Q 2806 -91 2034 -91 
Q 1263 -91 848 271 
Q 434 634 434 1313 
Q 434 1759 690 2068 
Q 947 2378 1403 2484 
z
M 1172 3481 
Q 1172 3119 1398 2916 
Q 1625 2713 2034 2713 
Q 2441 2713 2670 2916 
Q 2900 3119 2900 3481 
Q 2900 3844 2670 4047 
Q 2441 4250 2034 4250 
Q 1625 4250 1398 4047 
Q 1172 3844 1172 3481 
z
" id="DejaVuSans-38" transform="scale(0.015625)"/>
       </defs>
       <use xlink:href="#DejaVuSans-38"/>
      </g>
     </g>
    </g>
    <g id="text_21">
     <!-- Luminosity density w.r.t. frequency (erg/s/Hz) -->
     <g transform="translate(14.798438 264.325531)rotate(-90)scale(0.1 -0.1)">
      <defs>
       <path d="M 628 4666 
L 1259 4666 
L 1259 531 
L 3531 531 
L 3531 0 
L 628 0 
L 628 4666 
z
" id="DejaVuSans-4c" transform="scale(0.015625)"/>
       <path d="M 3328 2828 
Q 3544 3216 3844 3400 
Q 4144 3584 4550 3584 
Q 5097 3584 5394 3201 
Q 5691 2819 5691 2113 
L 5691 0 
L 5113 0 
L 5113 2094 
Q 5113 2597 4934 2840 
Q 4756 3084 4391 3084 
Q 3944 3084 3684 2787 
Q 3425 2491 3425 1978 
L 3425 0 
L 2847 0 
L 2847 2094 
Q 2847 2600 2669 2842 
Q 2491 3084 2119 3084 
Q 1678 3084 1418 2786 
Q 1159 2488 1159 1978 
L 1159 0 
L 581 0 
L 581 3500 
L 1159 3500 
L 1159 2956 
Q 1356 3278 1631 3431 
Q 1906 3584 2284 3584 
Q 2666 3584 2933 3390 
Q 3200 3197 3328 2828 
z
" id="DejaVuSans-6d" transform="scale(0.015625)"/>
       <path d="M 603 3500 
L 1178 3500 
L 1178 0 
L 603 0 
L 603 3500 
z
M 603 4863 
L 1178 4863 
L 1178 4134 
L 603 4134 
L 603 4863 
z
" id="DejaVuSans-69" transform="scale(0.015625)"/>
       <path d="M 1959 3097 
Q 1497 3097 1228 2736 
Q 959 2375 959 1747 
Q 959 1119 1226 758 
Q 1494 397 1959 397 
Q 2419 397 2687 759 
Q 2956 1122 2956 1747 
Q 2956 2369 2687 2733 
Q 2419 3097 1959 3097 
z
M 1959 3584 
Q 2709 3584 3137 3096 
Q 3566 2609 3566 1747 
Q 3566 888 3137 398 
Q 2709 -91 1959 -91 
Q 1206 -91 779 398 
Q 353 888 353 1747 
Q 353 2609 779 3096 
Q 1206 3584 1959 3584 
z
" id="DejaVuSans-6f" transform="scale(0.015625)"/>
       <path d="M 2834 3397 
L 2834 2853 
Q 2591 2978 2328 3040 
Q 2066 3103 1784 3103 
Q 1356 3103 1142 2972 
Q 928 2841 928 2578 
Q 928 2378 1081 2264 
Q 1234 2150 1697 2047 
L 1894 2003 
Q 2506 1872 2764 1633 
Q 3022 1394 3022 966 
Q 3022 478 2636 193 
Q 2250 -91 1575 -91 
Q 1294 -91 989 -36 
Q 684 19 347 128 
L 347 722 
Q 666 556 975 473 
Q 1284 391 1588 391 
Q 1994 391 2212 530 
Q 2431 669 2431 922 
Q 2431 1156 2273 1281 
Q 2116 1406 1581 1522 
L 1381 1569 
Q 847 1681 609 1914 
Q 372 2147 372 2553 
Q 372 3047 722 3315 
Q 1072 3584 1716 3584 
Q 2034 3584 2315 3537 
Q 2597 3491 2834 3397 
z
" id="DejaVuSans-73" transform="scale(0.015625)"/>
       <path d="M 1172 4494 
L 1172 3500 
L 2356 3500 
L 2356 3053 
L 1172 3053 
L 1172 1153 
Q 1172 725 1289 603 
Q 1406 481 1766 481 
L 2356 481 
L 2356 0 
L 1766 0 
Q 1100 0 847 248 
Q 594 497 594 1153 
L 594 3053 
L 172 3053 
L 172 3500 
L 594 3500 
L 594 4494 
L 1172 4494 
z
" id="DejaVuSans-74" transform="scale(0.015625)"/>
       <path d="M 2906 2969 
L 2906 4863 
L 3481 4863 
L 3481 0 
L 2906 0 
L 2906 525 
Q 2725 213 2448 61 
Q 2172 -91 1784 -91 
Q 1150 -91 751 415 
Q 353 922 353 1747 
Q 353 2572 751 3078 
Q 1150 3584 1784 3584 
Q 2172 3584 2448 3432 
Q 2725 3281 2906 2969 
z
M 947 1747 
Q 947 1113 1208 752 
Q 1469 391 1925 391 
Q 2381 391 2643 752 
Q 2906 1113 2906 1747 
Q 2906 2381 2643 2742 
Q 2381 3103 1925 3103 
Q 1469 3103 1208 2742 
Q 947 2381 947 1747 
z
" id="DejaVuSans-64" transform="scale(0.015625)"/>
       <path d="M 269 3500 
L 844 3500 
L 1563 769 
L 2278 3500 
L 2956 3500 
L 3675 769 
L 4391 3500 
L 4966 3500 
L 4050 0 
L 3372 0 
L 2619 2869 
L 1863 0 
L 1184 0 
L 269 3500 
z
" id="DejaVuSans-77" transform="scale(0.015625)"/>
       <path d="M 2375 4863 
L 2375 4384 
L 1825 4384 
Q 1516 4384 1395 4259 
Q 1275 4134 1275 3809 
L 1275 3500 
L 2222 3500 
L 2222 3053 
L 1275 3053 
L 1275 0 
L 697 0 
L 697 3053 
L 147 3053 
L 147 3500 
L 697 3500 
L 697 3744 
Q 697 4328 969 4595 
Q 1241 4863 1831 4863 
L 2375 4863 
z
" id="DejaVuSans-66" transform="scale(0.015625)"/>
       <path d="M 2906 1791 
Q 2906 2416 2648 2759 
Q 2391 3103 1925 3103 
Q 1463 3103 1205 2759 
Q 947 2416 947 1791 
Q 947 1169 1205 825 
Q 1463 481 1925 481 
Q 2391 481 2648 825 
Q 2906 1169 2906 1791 
z
M 3481 434 
Q 3481 -459 3084 -895 
Q 2688 -1331 1869 -1331 
Q 1566 -1331 1297 -1286 
Q 1028 -1241 775 -1147 
L 775 -588 
Q 1028 -725 1275 -790 
Q 1522 -856 1778 -856 
Q 2344 -856 2625 -561 
Q 2906 -266 2906 331 
L 2906 616 
Q 2728 306 2450 153 
Q 2172 0 1784 0 
Q 1141 0 747 490 
Q 353 981 353 1791 
Q 353 2603 747 3093 
Q 1141 3584 1784 3584 
Q 2172 3584 2450 3431 
Q 2728 3278 2906 2969 
L 2906 3500 
L 3481 3500 
L 3481 434 
z
" id="DejaVuSans-67" transform="scale(0.015625)"/>
       <path d="M 1625 4666 
L 2156 4666 
L 531 -594 
L 0 -594 
L 1625 4666 
z
" id="DejaVuSans-2f" transform="scale(0.015625)"/>
      </defs>
      <use xlink:href="#DejaVuSans-4c"/>
      <use x="53.962891" xlink:href="#DejaVuSans-75"/>
      <use x="117.341797" xlink:href="#DejaVuSans-6d"/>
      <use x="214.753906" xlink:href="#DejaVuSans-69"/>
      <use x="242.537109" xlink:href="#DejaVuSans-6e"/>
      <use x="305.916016" xlink:href="#DejaVuSans-6f"/>
      <use x="367.097656" xlink:href="#DejaVuSans-73"/>
      <use x="419.197266" xlink:href="#DejaVuSans-69"/>
      <use x="446.980469" xlink:href="#DejaVuSans-74"/>
      <use x="486.189453" xlink:href="#DejaVuSans-79"/>
      <use x="545.369141" xlink:href="#DejaVuSans-20"/>
      <use x="577.15625" xlink:href="#DejaVuSans-64"/>
      <use x="640.632812" xlink:href="#DejaVuSans-65"/>
      <use x="702.15625" xlink:href="#DejaVuSans-6e"/>
      <use x="765.535156" xlink:href="#DejaVuSans-73"/>
      <use x="817.634766" xlink:href="#DejaVuSans-69"/>
      <use x="845.417969" xlink:href="#DejaVuSans-74"/>
      <use x="884.626953" xlink:href="#DejaVuSans-79"/>
      <use x="943.806641" xlink:href="#DejaVuSans-20"/>
      <use x="975.59375" xlink:href="#DejaVuSans-77"/>
      <use x="1048.255859" xlink:href="#DejaVuSans-2e"/>
      <use x="1080.042969" xlink:href="#DejaVuSans-72"/>
      <use x="1112.03125" xlink:href="#DejaVuSans-2e"/>
      <use x="1143.818359" xlink:href="#DejaVuSans-74"/>
      <use x="1183.027344" xlink:href="#DejaVuSans-2e"/>
      <use x="1214.814453" xlink:href="#DejaVuSans-20"/>
      <use x="1246.601562" xlink:href="#DejaVuSans-66"/>
      <use x="1281.806641" xlink:href="#DejaVuSans-72"/>
      <use x="1320.669922" xlink:href="#DejaVuSans-65"/>
      <use x="1382.193359" xlink:href="#DejaVuSans-71"/>
      <use x="1445.669922" xlink:href="#DejaVuSans-75"/>
      <use x="1509.048828" xlink:href="#DejaVuSans-65"/>
      <use x="1570.572266" xlink:href="#DejaVuSans-6e"/>
      <use x="1633.951172" xlink:href="#DejaVuSans-63"/>
      <use x="1688.931641" xlink:href="#DejaVuSans-79"/>
      <use x="1748.111328" xlink:href="#DejaVuSans-20"/>
      <use x="1779.898438" xlink:href="#DejaVuSans-28"/>
      <use x="1818.912109" xlink:href="#DejaVuSans-65"/>
      <use x="1880.435547" xlink:href="#DejaVuSans-72"/>
      <use x="1919.798828" xlink:href="#DejaVuSans-67"/>
      <use x="1983.275391" xlink:href="#DejaVuSans-2f"/>
      <use x="2016.966797" xlink:href="#DejaVuSans-73"/>
      <use x="2069.066406" xlink:href="#DejaVuSans-2f"/>
      <use x="2102.757812" xlink:href="#DejaVuSans-48"/>
      <use x="2177.953125" xlink:href="#DejaVuSans-7a"/>
      <use x="2230.443359" xlink:href="#DejaVuSans-29"/>
     </g>
    </g>
    <g id="text_22">
     <!-- 1e27 -->
     <g transform="translate(34.240625 14.798437)scale(0.1 -0.1)">
      <use xlink:href="#DejaVuSans-31"/>
      <use x="63.623047" xlink:href="#DejaVuSans-65"/>
      <use x="125.146484" xlink:href="#DejaVuSans-32"/>
      <use x="188.769531" xlink:href="#DejaVuSans-37"/>
     </g>
    </g>
   </g>
   <g id="line2d_19">
    <path clip-path="url(#pa57d587f07)" d="M 50.473352 282.529488 
L 52.104782 278.445942 
L 53.736212 272.064712 
L 55.367642 263.764449 
L 56.999072 253.895696 
L 58.630502 242.781334 
L 61.893361 217.972493 
L 71.681941 139.185655 
L 74.9448 115.821708 
L 76.57623 105.167407 
L 78.20766 95.283939 
L 79.83909 86.217347 
L 81.47052 78.000564 
L 83.10195 70.654623 
L 84.73338 64.189839 
L 86.36481 58.60696 
L 87.996239 53.898261 
L 89.627669 50.048603 
L 91.259099 47.036429 
L 92.890529 44.834711 
L 94.521959 43.41183 
L 96.153389 42.732399 
L 97.784819 42.758027 
L 99.416249 43.448012 
L 101.047678 44.759982 
L 102.679108 46.65047 
L 104.310538 49.07543 
L 105.941968 51.990698 
L 107.573398 55.352396 
L 109.204828 59.117288 
L 110.836258 63.243081 
L 114.099117 72.41443 
L 117.361977 82.555775 
L 120.624837 93.38394 
L 127.150556 116.121767 
L 135.307706 144.576645 
L 140.201995 160.81969 
L 145.096285 176.061588 
L 148.359145 185.573097 
L 151.622005 194.52537 
L 154.884864 202.901182 
L 158.147724 210.695362 
L 161.410584 217.91259 
L 164.673444 224.565411 
L 167.936303 230.672483 
L 171.199163 236.257052 
L 174.462023 241.345644 
L 177.724883 245.966956 
L 180.987742 250.150941 
L 184.250602 253.928046 
L 187.513462 257.328611 
L 190.776322 260.382393 
L 194.039181 263.118192 
L 197.302041 265.56359 
L 200.564901 267.744752 
L 203.827761 269.686306 
L 207.09062 271.411269 
L 210.35348 272.941021 
L 213.61634 274.295313 
L 218.51063 276.037057 
L 223.404919 277.479359 
L 228.299209 278.66982 
L 233.193498 279.649434 
L 239.719218 280.687411 
L 246.244937 281.481077 
L 254.402087 282.212061 
L 264.190666 282.81197 
L 275.610675 283.254883 
L 290.293544 283.576581 
L 311.502133 283.786875 
L 349.02502 283.890111 
L 375.127898 283.904809 
L 375.127898 283.904809 
" style="fill:none;stroke:#ff7f0e;stroke-linecap:square;stroke-width:1.5;"/>
   </g>
   <g id="patch_203">
    <path d="M 34.240625 283.910437 
L 34.240625 17.798437 
" style="fill:none;stroke:#000000;stroke-linecap:square;stroke-linejoin:miter;stroke-width:0.8;"/>
   </g>
   <g id="patch_204">
    <path d="M 391.360625 283.910437 
L 391.360625 17.798437 
" style="fill:none;stroke:#000000;stroke-linecap:square;stroke-linejoin:miter;stroke-width:0.8;"/>
   </g>
   <g id="patch_205">
    <path d="M 34.240625 283.910437 
L 391.360625 283.910437 
" style="fill:none;stroke:#000000;stroke-linecap:square;stroke-linejoin:miter;stroke-width:0.8;"/>
   </g>
   <g id="patch_206">
    <path d="M 34.240625 17.798437 
L 391.360625 17.798437 
" style="fill:none;stroke:#000000;stroke-linecap:square;stroke-linejoin:miter;stroke-width:0.8;"/>
   </g>
  </g>
 </g>
 <defs>
  <clipPath id="pa57d587f07">
   <rect height="266.112" width="357.12" x="34.240625" y="17.798438"/>
  </clipPath>
 </defs>
</svg>
