<?xml version="1.0" encoding="utf-8" standalone="no"?>
<!DOCTYPE svg PUBLIC "-//W3C//DTD SVG 1.1//EN"
  "http://www.w3.org/Graphics/SVG/1.1/DTD/svg11.dtd">
<svg height="310.86825pt" version="1.1" viewBox="0 0 408.10125 310.86825" width="408.10125pt" xmlns="http://www.w3.org/2000/svg" xmlns:xlink="http://www.w3.org/1999/xlink">
 <metadata>
  <rdf:RDF xmlns:cc="http://creativecommons.org/ns#" xmlns:dc="http://purl.org/dc/elements/1.1/" xmlns:rdf="http://www.w3.org/1999/02/22-rdf-syntax-ns#">
   <cc:Work>
    <dc:type rdf:resource="http://purl.org/dc/dcmitype/StillImage"/>
    <dc:date>2021-09-24T21:36:51.718643</dc:date>
    <dc:format>image/svg+xml</dc:format>
    <dc:creator>
     <cc:Agent>
      <dc:title>Matplotlib v3.4.3, https://matplotlib.org/</dc:title>
     </cc:Agent>
    </dc:creator>
   </cc:Work>
  </rdf:RDF>
 </metadata>
 <defs>
  <style type="text/css">*{stroke-linecap:butt;stroke-linejoin:round;}</style>
 </defs>
 <g id="figure_1">
  <g id="patch_1">
   <path d="M 0 310.86825 
L 408.10125 310.86825 
L 408.10125 0 
L 0 0 
z
" style="fill:#ffffff;"/>
  </g>
  <g id="axes_1">
   <g id="patch_2">
    <path d="M 43.78125 273.312 
L 400.90125 273.312 
L 400.90125 7.2 
L 43.78125 7.2 
z
" style="fill:#ffffff;"/>
   </g>
   <g id="patch_3">
    <path clip-path="url(#p07e5d9e430)" d="M 61.177808 273.312 
L 62.789842 273.312 
L 62.789842 268.826336 
L 61.177808 268.826336 
z
" style="fill:#1f77b4;"/>
   </g>
   <g id="patch_4">
    <path clip-path="url(#p07e5d9e430)" d="M 62.789842 273.312 
L 64.401877 273.312 
L 64.401877 265.835894 
L 62.789842 265.835894 
z
" style="fill:#1f77b4;"/>
   </g>
   <g id="patch_5">
    <path clip-path="url(#p07e5d9e430)" d="M 64.401877 273.312 
L 66.013911 273.312 
L 66.013911 259.855009 
L 64.401877 259.855009 
z
" style="fill:#1f77b4;"/>
   </g>
   <g id="patch_6">
    <path clip-path="url(#p07e5d9e430)" d="M 66.013911 273.312 
L 67.625945 273.312 
L 67.625945 262.097841 
L 66.013911 262.097841 
z
" style="fill:#1f77b4;"/>
   </g>
   <g id="patch_7">
    <path clip-path="url(#p07e5d9e430)" d="M 67.625945 273.312 
L 69.23798 273.312 
L 69.23798 257.612177 
L 67.625945 257.612177 
z
" style="fill:#1f77b4;"/>
   </g>
   <g id="patch_8">
    <path clip-path="url(#p07e5d9e430)" d="M 69.23798 273.312 
L 70.850014 273.312 
L 70.850014 258.359788 
L 69.23798 258.359788 
z
" style="fill:#1f77b4;"/>
   </g>
   <g id="patch_9">
    <path clip-path="url(#p07e5d9e430)" d="M 70.850014 273.312 
L 72.462048 273.312 
L 72.462048 248.64085 
L 70.850014 248.64085 
z
" style="fill:#1f77b4;"/>
   </g>
   <g id="patch_10">
    <path clip-path="url(#p07e5d9e430)" d="M 72.462048 273.312 
L 74.074083 273.312 
L 74.074083 244.902796 
L 72.462048 244.902796 
z
" style="fill:#1f77b4;"/>
   </g>
   <g id="patch_11">
    <path clip-path="url(#p07e5d9e430)" d="M 74.074083 273.312 
L 75.686117 273.312 
L 75.686117 241.164743 
L 74.074083 241.164743 
z
" style="fill:#1f77b4;"/>
   </g>
   <g id="patch_12">
    <path clip-path="url(#p07e5d9e430)" d="M 75.686117 273.312 
L 77.298151 273.312 
L 77.298151 234.436248 
L 75.686117 234.436248 
z
" style="fill:#1f77b4;"/>
   </g>
   <g id="patch_13">
    <path clip-path="url(#p07e5d9e430)" d="M 77.298151 273.312 
L 78.910185 273.312 
L 78.910185 231.445805 
L 77.298151 231.445805 
z
" style="fill:#1f77b4;"/>
   </g>
   <g id="patch_14">
    <path clip-path="url(#p07e5d9e430)" d="M 78.910185 273.312 
L 80.52222 273.312 
L 80.52222 220.231646 
L 78.910185 220.231646 
z
" style="fill:#1f77b4;"/>
   </g>
   <g id="patch_15">
    <path clip-path="url(#p07e5d9e430)" d="M 80.52222 273.312 
L 82.134254 273.312 
L 82.134254 220.979257 
L 80.52222 220.979257 
z
" style="fill:#1f77b4;"/>
   </g>
   <g id="patch_16">
    <path clip-path="url(#p07e5d9e430)" d="M 82.134254 273.312 
L 83.746288 273.312 
L 83.746288 215.745982 
L 82.134254 215.745982 
z
" style="fill:#1f77b4;"/>
   </g>
   <g id="patch_17">
    <path clip-path="url(#p07e5d9e430)" d="M 83.746288 273.312 
L 85.358323 273.312 
L 85.358323 220.231646 
L 83.746288 220.231646 
z
" style="fill:#1f77b4;"/>
   </g>
   <g id="patch_18">
    <path clip-path="url(#p07e5d9e430)" d="M 85.358323 273.312 
L 86.970357 273.312 
L 86.970357 214.250761 
L 85.358323 214.250761 
z
" style="fill:#1f77b4;"/>
   </g>
   <g id="patch_19">
    <path clip-path="url(#p07e5d9e430)" d="M 86.970357 273.312 
L 88.582391 273.312 
L 88.582391 212.75554 
L 86.970357 212.75554 
z
" style="fill:#1f77b4;"/>
   </g>
   <g id="patch_20">
    <path clip-path="url(#p07e5d9e430)" d="M 88.582391 273.312 
L 90.194425 273.312 
L 90.194425 208.269876 
L 88.582391 208.269876 
z
" style="fill:#1f77b4;"/>
   </g>
   <g id="patch_21">
    <path clip-path="url(#p07e5d9e430)" d="M 90.194425 273.312 
L 91.80646 273.312 
L 91.80646 206.774655 
L 90.194425 206.774655 
z
" style="fill:#1f77b4;"/>
   </g>
   <g id="patch_22">
    <path clip-path="url(#p07e5d9e430)" d="M 91.80646 273.312 
L 93.418494 273.312 
L 93.418494 201.541381 
L 91.80646 201.541381 
z
" style="fill:#1f77b4;"/>
   </g>
   <g id="patch_23">
    <path clip-path="url(#p07e5d9e430)" d="M 93.418494 273.312 
L 95.030528 273.312 
L 95.030528 199.298549 
L 93.418494 199.298549 
z
" style="fill:#1f77b4;"/>
   </g>
   <g id="patch_24">
    <path clip-path="url(#p07e5d9e430)" d="M 95.030528 273.312 
L 96.642563 273.312 
L 96.642563 183.598726 
L 95.030528 183.598726 
z
" style="fill:#1f77b4;"/>
   </g>
   <g id="patch_25">
    <path clip-path="url(#p07e5d9e430)" d="M 96.642563 273.312 
L 98.254597 273.312 
L 98.254597 195.560496 
L 96.642563 195.560496 
z
" style="fill:#1f77b4;"/>
   </g>
   <g id="patch_26">
    <path clip-path="url(#p07e5d9e430)" d="M 98.254597 273.312 
L 99.866631 273.312 
L 99.866631 189.579611 
L 98.254597 189.579611 
z
" style="fill:#1f77b4;"/>
   </g>
   <g id="patch_27">
    <path clip-path="url(#p07e5d9e430)" d="M 99.866631 273.312 
L 101.478665 273.312 
L 101.478665 179.113062 
L 99.866631 179.113062 
z
" style="fill:#1f77b4;"/>
   </g>
   <g id="patch_28">
    <path clip-path="url(#p07e5d9e430)" d="M 101.478665 273.312 
L 103.0907 273.312 
L 103.0907 182.851115 
L 101.478665 182.851115 
z
" style="fill:#1f77b4;"/>
   </g>
   <g id="patch_29">
    <path clip-path="url(#p07e5d9e430)" d="M 103.0907 273.312 
L 104.702734 273.312 
L 104.702734 170.889345 
L 103.0907 170.889345 
z
" style="fill:#1f77b4;"/>
   </g>
   <g id="patch_30">
    <path clip-path="url(#p07e5d9e430)" d="M 104.702734 273.312 
L 106.314768 273.312 
L 106.314768 170.889345 
L 104.702734 170.889345 
z
" style="fill:#1f77b4;"/>
   </g>
   <g id="patch_31">
    <path clip-path="url(#p07e5d9e430)" d="M 106.314768 273.312 
L 107.926803 273.312 
L 107.926803 173.879788 
L 106.314768 173.879788 
z
" style="fill:#1f77b4;"/>
   </g>
   <g id="patch_32">
    <path clip-path="url(#p07e5d9e430)" d="M 107.926803 273.312 
L 109.538837 273.312 
L 109.538837 166.403681 
L 107.926803 166.403681 
z
" style="fill:#1f77b4;"/>
   </g>
   <g id="patch_33">
    <path clip-path="url(#p07e5d9e430)" d="M 109.538837 273.312 
L 111.150871 273.312 
L 111.150871 158.927575 
L 109.538837 158.927575 
z
" style="fill:#1f77b4;"/>
   </g>
   <g id="patch_34">
    <path clip-path="url(#p07e5d9e430)" d="M 111.150871 273.312 
L 112.762905 273.312 
L 112.762905 169.394124 
L 111.150871 169.394124 
z
" style="fill:#1f77b4;"/>
   </g>
   <g id="patch_35">
    <path clip-path="url(#p07e5d9e430)" d="M 112.762905 273.312 
L 114.37494 273.312 
L 114.37494 165.656071 
L 112.762905 165.656071 
z
" style="fill:#1f77b4;"/>
   </g>
   <g id="patch_36">
    <path clip-path="url(#p07e5d9e430)" d="M 114.37494 273.312 
L 115.986974 273.312 
L 115.986974 141.732531 
L 114.37494 141.732531 
z
" style="fill:#1f77b4;"/>
   </g>
   <g id="patch_37">
    <path clip-path="url(#p07e5d9e430)" d="M 115.986974 273.312 
L 117.599008 273.312 
L 117.599008 140.23731 
L 115.986974 140.23731 
z
" style="fill:#1f77b4;"/>
   </g>
   <g id="patch_38">
    <path clip-path="url(#p07e5d9e430)" d="M 117.599008 273.312 
L 119.211043 273.312 
L 119.211043 139.489699 
L 117.599008 139.489699 
z
" style="fill:#1f77b4;"/>
   </g>
   <g id="patch_39">
    <path clip-path="url(#p07e5d9e430)" d="M 119.211043 273.312 
L 120.823077 273.312 
L 120.823077 134.256425 
L 119.211043 134.256425 
z
" style="fill:#1f77b4;"/>
   </g>
   <g id="patch_40">
    <path clip-path="url(#p07e5d9e430)" d="M 120.823077 273.312 
L 122.435111 273.312 
L 122.435111 163.413239 
L 120.823077 163.413239 
z
" style="fill:#1f77b4;"/>
   </g>
   <g id="patch_41">
    <path clip-path="url(#p07e5d9e430)" d="M 122.435111 273.312 
L 124.047145 273.312 
L 124.047145 123.042265 
L 122.435111 123.042265 
z
" style="fill:#1f77b4;"/>
   </g>
   <g id="patch_42">
    <path clip-path="url(#p07e5d9e430)" d="M 124.047145 273.312 
L 125.65918 273.312 
L 125.65918 147.713416 
L 124.047145 147.713416 
z
" style="fill:#1f77b4;"/>
   </g>
   <g id="patch_43">
    <path clip-path="url(#p07e5d9e430)" d="M 125.65918 273.312 
L 127.271214 273.312 
L 127.271214 143.227752 
L 125.65918 143.227752 
z
" style="fill:#1f77b4;"/>
   </g>
   <g id="patch_44">
    <path clip-path="url(#p07e5d9e430)" d="M 127.271214 273.312 
L 128.883248 273.312 
L 128.883248 138.742088 
L 127.271214 138.742088 
z
" style="fill:#1f77b4;"/>
   </g>
   <g id="patch_45">
    <path clip-path="url(#p07e5d9e430)" d="M 128.883248 273.312 
L 130.495283 273.312 
L 130.495283 108.090053 
L 128.883248 108.090053 
z
" style="fill:#1f77b4;"/>
   </g>
   <g id="patch_46">
    <path clip-path="url(#p07e5d9e430)" d="M 130.495283 273.312 
L 132.107317 273.312 
L 132.107317 123.789876 
L 130.495283 123.789876 
z
" style="fill:#1f77b4;"/>
   </g>
   <g id="patch_47">
    <path clip-path="url(#p07e5d9e430)" d="M 132.107317 273.312 
L 133.719351 273.312 
L 133.719351 134.256425 
L 132.107317 134.256425 
z
" style="fill:#1f77b4;"/>
   </g>
   <g id="patch_48">
    <path clip-path="url(#p07e5d9e430)" d="M 133.719351 273.312 
L 135.331385 273.312 
L 135.331385 96.128283 
L 133.719351 96.128283 
z
" style="fill:#1f77b4;"/>
   </g>
   <g id="patch_49">
    <path clip-path="url(#p07e5d9e430)" d="M 135.331385 273.312 
L 136.94342 273.312 
L 136.94342 120.799434 
L 135.331385 120.799434 
z
" style="fill:#1f77b4;"/>
   </g>
   <g id="patch_50">
    <path clip-path="url(#p07e5d9e430)" d="M 136.94342 273.312 
L 138.555454 273.312 
L 138.555454 127.527929 
L 136.94342 127.527929 
z
" style="fill:#1f77b4;"/>
   </g>
   <g id="patch_51">
    <path clip-path="url(#p07e5d9e430)" d="M 138.555454 273.312 
L 140.167488 273.312 
L 140.167488 100.613947 
L 138.555454 100.613947 
z
" style="fill:#1f77b4;"/>
   </g>
   <g id="patch_52">
    <path clip-path="url(#p07e5d9e430)" d="M 140.167488 273.312 
L 141.779523 273.312 
L 141.779523 107.342442 
L 140.167488 107.342442 
z
" style="fill:#1f77b4;"/>
   </g>
   <g id="patch_53">
    <path clip-path="url(#p07e5d9e430)" d="M 141.779523 273.312 
L 143.391557 273.312 
L 143.391557 127.527929 
L 141.779523 127.527929 
z
" style="fill:#1f77b4;"/>
   </g>
   <g id="patch_54">
    <path clip-path="url(#p07e5d9e430)" d="M 143.391557 273.312 
L 145.003591 273.312 
L 145.003591 120.051823 
L 143.391557 120.051823 
z
" style="fill:#1f77b4;"/>
   </g>
   <g id="patch_55">
    <path clip-path="url(#p07e5d9e430)" d="M 145.003591 273.312 
L 146.615625 273.312 
L 146.615625 111.828106 
L 145.003591 111.828106 
z
" style="fill:#1f77b4;"/>
   </g>
   <g id="patch_56">
    <path clip-path="url(#p07e5d9e430)" d="M 146.615625 273.312 
L 148.22766 273.312 
L 148.22766 84.166513 
L 146.615625 84.166513 
z
" style="fill:#1f77b4;"/>
   </g>
   <g id="patch_57">
    <path clip-path="url(#p07e5d9e430)" d="M 148.22766 273.312 
L 149.839694 273.312 
L 149.839694 102.109168 
L 148.22766 102.109168 
z
" style="fill:#1f77b4;"/>
   </g>
   <g id="patch_58">
    <path clip-path="url(#p07e5d9e430)" d="M 149.839694 273.312 
L 151.451728 273.312 
L 151.451728 78.933239 
L 149.839694 78.933239 
z
" style="fill:#1f77b4;"/>
   </g>
   <g id="patch_59">
    <path clip-path="url(#p07e5d9e430)" d="M 151.451728 273.312 
L 153.063763 273.312 
L 153.063763 71.457133 
L 151.451728 71.457133 
z
" style="fill:#1f77b4;"/>
   </g>
   <g id="patch_60">
    <path clip-path="url(#p07e5d9e430)" d="M 153.063763 273.312 
L 154.675797 273.312 
L 154.675797 90.147398 
L 153.063763 90.147398 
z
" style="fill:#1f77b4;"/>
   </g>
   <g id="patch_61">
    <path clip-path="url(#p07e5d9e430)" d="M 154.675797 273.312 
L 156.287831 273.312 
L 156.287831 79.68085 
L 154.675797 79.68085 
z
" style="fill:#1f77b4;"/>
   </g>
   <g id="patch_62">
    <path clip-path="url(#p07e5d9e430)" d="M 156.287831 273.312 
L 157.899865 273.312 
L 157.899865 85.661735 
L 156.287831 85.661735 
z
" style="fill:#1f77b4;"/>
   </g>
   <g id="patch_63">
    <path clip-path="url(#p07e5d9e430)" d="M 157.899865 273.312 
L 159.5119 273.312 
L 159.5119 67.71908 
L 157.899865 67.71908 
z
" style="fill:#1f77b4;"/>
   </g>
   <g id="patch_64">
    <path clip-path="url(#p07e5d9e430)" d="M 159.5119 273.312 
L 161.123934 273.312 
L 161.123934 79.68085 
L 159.5119 79.68085 
z
" style="fill:#1f77b4;"/>
   </g>
   <g id="patch_65">
    <path clip-path="url(#p07e5d9e430)" d="M 161.123934 273.312 
L 162.735968 273.312 
L 162.735968 71.457133 
L 161.123934 71.457133 
z
" style="fill:#1f77b4;"/>
   </g>
   <g id="patch_66">
    <path clip-path="url(#p07e5d9e430)" d="M 162.735968 273.312 
L 164.348003 273.312 
L 164.348003 61.738195 
L 162.735968 61.738195 
z
" style="fill:#1f77b4;"/>
   </g>
   <g id="patch_67">
    <path clip-path="url(#p07e5d9e430)" d="M 164.348003 273.312 
L 165.960037 273.312 
L 165.960037 81.176071 
L 164.348003 81.176071 
z
" style="fill:#1f77b4;"/>
   </g>
   <g id="patch_68">
    <path clip-path="url(#p07e5d9e430)" d="M 165.960037 273.312 
L 167.572071 273.312 
L 167.572071 81.923681 
L 165.960037 81.923681 
z
" style="fill:#1f77b4;"/>
   </g>
   <g id="patch_69">
    <path clip-path="url(#p07e5d9e430)" d="M 167.572071 273.312 
L 169.184105 273.312 
L 169.184105 86.409345 
L 167.572071 86.409345 
z
" style="fill:#1f77b4;"/>
   </g>
   <g id="patch_70">
    <path clip-path="url(#p07e5d9e430)" d="M 169.184105 273.312 
L 170.79614 273.312 
L 170.79614 52.766867 
L 169.184105 52.766867 
z
" style="fill:#1f77b4;"/>
   </g>
   <g id="patch_71">
    <path clip-path="url(#p07e5d9e430)" d="M 170.79614 273.312 
L 172.408174 273.312 
L 172.408174 56.50492 
L 170.79614 56.50492 
z
" style="fill:#1f77b4;"/>
   </g>
   <g id="patch_72">
    <path clip-path="url(#p07e5d9e430)" d="M 172.408174 273.312 
L 174.020208 273.312 
L 174.020208 57.252531 
L 172.408174 57.252531 
z
" style="fill:#1f77b4;"/>
   </g>
   <g id="patch_73">
    <path clip-path="url(#p07e5d9e430)" d="M 174.020208 273.312 
L 175.632243 273.312 
L 175.632243 60.242973 
L 174.020208 60.242973 
z
" style="fill:#1f77b4;"/>
   </g>
   <g id="patch_74">
    <path clip-path="url(#p07e5d9e430)" d="M 175.632243 273.312 
L 177.244277 273.312 
L 177.244277 78.933239 
L 175.632243 78.933239 
z
" style="fill:#1f77b4;"/>
   </g>
   <g id="patch_75">
    <path clip-path="url(#p07e5d9e430)" d="M 177.244277 273.312 
L 178.856311 273.312 
L 178.856311 62.485805 
L 177.244277 62.485805 
z
" style="fill:#1f77b4;"/>
   </g>
   <g id="patch_76">
    <path clip-path="url(#p07e5d9e430)" d="M 178.856311 273.312 
L 180.468345 273.312 
L 180.468345 53.514478 
L 178.856311 53.514478 
z
" style="fill:#1f77b4;"/>
   </g>
   <g id="patch_77">
    <path clip-path="url(#p07e5d9e430)" d="M 180.468345 273.312 
L 182.08038 273.312 
L 182.08038 64.728637 
L 180.468345 64.728637 
z
" style="fill:#1f77b4;"/>
   </g>
   <g id="patch_78">
    <path clip-path="url(#p07e5d9e430)" d="M 182.08038 273.312 
L 183.692414 273.312 
L 183.692414 70.709522 
L 182.08038 70.709522 
z
" style="fill:#1f77b4;"/>
   </g>
   <g id="patch_79">
    <path clip-path="url(#p07e5d9e430)" d="M 183.692414 273.312 
L 185.304448 273.312 
L 185.304448 72.952354 
L 183.692414 72.952354 
z
" style="fill:#1f77b4;"/>
   </g>
   <g id="patch_80">
    <path clip-path="url(#p07e5d9e430)" d="M 185.304448 273.312 
L 186.916483 273.312 
L 186.916483 55.009699 
L 185.304448 55.009699 
z
" style="fill:#1f77b4;"/>
   </g>
   <g id="patch_81">
    <path clip-path="url(#p07e5d9e430)" d="M 186.916483 273.312 
L 188.528517 273.312 
L 188.528517 46.785982 
L 186.916483 46.785982 
z
" style="fill:#1f77b4;"/>
   </g>
   <g id="patch_82">
    <path clip-path="url(#p07e5d9e430)" d="M 188.528517 273.312 
L 190.140551 273.312 
L 190.140551 60.990584 
L 188.528517 60.990584 
z
" style="fill:#1f77b4;"/>
   </g>
   <g id="patch_83">
    <path clip-path="url(#p07e5d9e430)" d="M 190.140551 273.312 
L 191.752585 273.312 
L 191.752585 43.79554 
L 190.140551 43.79554 
z
" style="fill:#1f77b4;"/>
   </g>
   <g id="patch_84">
    <path clip-path="url(#p07e5d9e430)" d="M 191.752585 273.312 
L 193.36462 273.312 
L 193.36462 52.019257 
L 191.752585 52.019257 
z
" style="fill:#1f77b4;"/>
   </g>
   <g id="patch_85">
    <path clip-path="url(#p07e5d9e430)" d="M 193.36462 273.312 
L 194.976654 273.312 
L 194.976654 66.223858 
L 193.36462 66.223858 
z
" style="fill:#1f77b4;"/>
   </g>
   <g id="patch_86">
    <path clip-path="url(#p07e5d9e430)" d="M 194.976654 273.312 
L 196.588688 273.312 
L 196.588688 39.309876 
L 194.976654 39.309876 
z
" style="fill:#1f77b4;"/>
   </g>
   <g id="patch_87">
    <path clip-path="url(#p07e5d9e430)" d="M 196.588688 273.312 
L 198.200723 273.312 
L 198.200723 53.514478 
L 196.588688 53.514478 
z
" style="fill:#1f77b4;"/>
   </g>
   <g id="patch_88">
    <path clip-path="url(#p07e5d9e430)" d="M 198.200723 273.312 
L 199.812757 273.312 
L 199.812757 30.338549 
L 198.200723 30.338549 
z
" style="fill:#1f77b4;"/>
   </g>
   <g id="patch_89">
    <path clip-path="url(#p07e5d9e430)" d="M 199.812757 273.312 
L 201.424791 273.312 
L 201.424791 35.571823 
L 199.812757 35.571823 
z
" style="fill:#1f77b4;"/>
   </g>
   <g id="patch_90">
    <path clip-path="url(#p07e5d9e430)" d="M 201.424791 273.312 
L 203.036825 273.312 
L 203.036825 66.223858 
L 201.424791 66.223858 
z
" style="fill:#1f77b4;"/>
   </g>
   <g id="patch_91">
    <path clip-path="url(#p07e5d9e430)" d="M 203.036825 273.312 
L 204.64886 273.312 
L 204.64886 59.495363 
L 203.036825 59.495363 
z
" style="fill:#1f77b4;"/>
   </g>
   <g id="patch_92">
    <path clip-path="url(#p07e5d9e430)" d="M 204.64886 273.312 
L 206.260894 273.312 
L 206.260894 42.300319 
L 204.64886 42.300319 
z
" style="fill:#1f77b4;"/>
   </g>
   <g id="patch_93">
    <path clip-path="url(#p07e5d9e430)" d="M 206.260894 273.312 
L 207.872928 273.312 
L 207.872928 59.495363 
L 206.260894 59.495363 
z
" style="fill:#1f77b4;"/>
   </g>
   <g id="patch_94">
    <path clip-path="url(#p07e5d9e430)" d="M 207.872928 273.312 
L 209.484963 273.312 
L 209.484963 25.852885 
L 207.872928 25.852885 
z
" style="fill:#1f77b4;"/>
   </g>
   <g id="patch_95">
    <path clip-path="url(#p07e5d9e430)" d="M 209.484963 273.312 
L 211.096997 273.312 
L 211.096997 68.46669 
L 209.484963 68.46669 
z
" style="fill:#1f77b4;"/>
   </g>
   <g id="patch_96">
    <path clip-path="url(#p07e5d9e430)" d="M 211.096997 273.312 
L 212.709031 273.312 
L 212.709031 21.367221 
L 211.096997 21.367221 
z
" style="fill:#1f77b4;"/>
   </g>
   <g id="patch_97">
    <path clip-path="url(#p07e5d9e430)" d="M 212.709031 273.312 
L 214.321066 273.312 
L 214.321066 58.747752 
L 212.709031 58.747752 
z
" style="fill:#1f77b4;"/>
   </g>
   <g id="patch_98">
    <path clip-path="url(#p07e5d9e430)" d="M 214.321066 273.312 
L 215.9331 273.312 
L 215.9331 34.824212 
L 214.321066 34.824212 
z
" style="fill:#1f77b4;"/>
   </g>
   <g id="patch_99">
    <path clip-path="url(#p07e5d9e430)" d="M 215.9331 273.312 
L 217.545134 273.312 
L 217.545134 39.309876 
L 215.9331 39.309876 
z
" style="fill:#1f77b4;"/>
   </g>
   <g id="patch_100">
    <path clip-path="url(#p07e5d9e430)" d="M 217.545134 273.312 
L 219.157168 273.312 
L 219.157168 42.300319 
L 217.545134 42.300319 
z
" style="fill:#1f77b4;"/>
   </g>
   <g id="patch_101">
    <path clip-path="url(#p07e5d9e430)" d="M 219.157168 273.312 
L 220.769203 273.312 
L 220.769203 26.600496 
L 219.157168 26.600496 
z
" style="fill:#1f77b4;"/>
   </g>
   <g id="patch_102">
    <path clip-path="url(#p07e5d9e430)" d="M 220.769203 273.312 
L 222.381237 273.312 
L 222.381237 46.785982 
L 220.769203 46.785982 
z
" style="fill:#1f77b4;"/>
   </g>
   <g id="patch_103">
    <path clip-path="url(#p07e5d9e430)" d="M 222.381237 273.312 
L 223.993271 273.312 
L 223.993271 60.242973 
L 222.381237 60.242973 
z
" style="fill:#1f77b4;"/>
   </g>
   <g id="patch_104">
    <path clip-path="url(#p07e5d9e430)" d="M 223.993271 273.312 
L 225.605306 273.312 
L 225.605306 58.000142 
L 223.993271 58.000142 
z
" style="fill:#1f77b4;"/>
   </g>
   <g id="patch_105">
    <path clip-path="url(#p07e5d9e430)" d="M 225.605306 273.312 
L 227.21734 273.312 
L 227.21734 38.562265 
L 225.605306 38.562265 
z
" style="fill:#1f77b4;"/>
   </g>
   <g id="patch_106">
    <path clip-path="url(#p07e5d9e430)" d="M 227.21734 273.312 
L 228.829374 273.312 
L 228.829374 46.785982 
L 227.21734 46.785982 
z
" style="fill:#1f77b4;"/>
   </g>
   <g id="patch_107">
    <path clip-path="url(#p07e5d9e430)" d="M 228.829374 273.312 
L 230.441408 273.312 
L 230.441408 40.057487 
L 228.829374 40.057487 
z
" style="fill:#1f77b4;"/>
   </g>
   <g id="patch_108">
    <path clip-path="url(#p07e5d9e430)" d="M 230.441408 273.312 
L 232.053443 273.312 
L 232.053443 38.562265 
L 230.441408 38.562265 
z
" style="fill:#1f77b4;"/>
   </g>
   <g id="patch_109">
    <path clip-path="url(#p07e5d9e430)" d="M 232.053443 273.312 
L 233.665477 273.312 
L 233.665477 32.581381 
L 232.053443 32.581381 
z
" style="fill:#1f77b4;"/>
   </g>
   <g id="patch_110">
    <path clip-path="url(#p07e5d9e430)" d="M 233.665477 273.312 
L 235.277511 273.312 
L 235.277511 36.319434 
L 233.665477 36.319434 
z
" style="fill:#1f77b4;"/>
   </g>
   <g id="patch_111">
    <path clip-path="url(#p07e5d9e430)" d="M 235.277511 273.312 
L 236.889546 273.312 
L 236.889546 25.852885 
L 235.277511 25.852885 
z
" style="fill:#1f77b4;"/>
   </g>
   <g id="patch_112">
    <path clip-path="url(#p07e5d9e430)" d="M 236.889546 273.312 
L 238.50158 273.312 
L 238.50158 52.019257 
L 236.889546 52.019257 
z
" style="fill:#1f77b4;"/>
   </g>
   <g id="patch_113">
    <path clip-path="url(#p07e5d9e430)" d="M 238.50158 273.312 
L 240.113614 273.312 
L 240.113614 50.524035 
L 238.50158 50.524035 
z
" style="fill:#1f77b4;"/>
   </g>
   <g id="patch_114">
    <path clip-path="url(#p07e5d9e430)" d="M 240.113614 273.312 
L 241.725648 273.312 
L 241.725648 19.872 
L 240.113614 19.872 
z
" style="fill:#1f77b4;"/>
   </g>
   <g id="patch_115">
    <path clip-path="url(#p07e5d9e430)" d="M 241.725648 273.312 
L 243.337683 273.312 
L 243.337683 34.824212 
L 241.725648 34.824212 
z
" style="fill:#1f77b4;"/>
   </g>
   <g id="patch_116">
    <path clip-path="url(#p07e5d9e430)" d="M 243.337683 273.312 
L 244.949717 273.312 
L 244.949717 64.728637 
L 243.337683 64.728637 
z
" style="fill:#1f77b4;"/>
   </g>
   <g id="patch_117">
    <path clip-path="url(#p07e5d9e430)" d="M 244.949717 273.312 
L 246.561751 273.312 
L 246.561751 65.476248 
L 244.949717 65.476248 
z
" style="fill:#1f77b4;"/>
   </g>
   <g id="patch_118">
    <path clip-path="url(#p07e5d9e430)" d="M 246.561751 273.312 
L 248.173786 273.312 
L 248.173786 35.571823 
L 246.561751 35.571823 
z
" style="fill:#1f77b4;"/>
   </g>
   <g id="patch_119">
    <path clip-path="url(#p07e5d9e430)" d="M 248.173786 273.312 
L 249.78582 273.312 
L 249.78582 40.057487 
L 248.173786 40.057487 
z
" style="fill:#1f77b4;"/>
   </g>
   <g id="patch_120">
    <path clip-path="url(#p07e5d9e430)" d="M 249.78582 273.312 
L 251.397854 273.312 
L 251.397854 43.047929 
L 249.78582 43.047929 
z
" style="fill:#1f77b4;"/>
   </g>
   <g id="patch_121">
    <path clip-path="url(#p07e5d9e430)" d="M 251.397854 273.312 
L 253.009888 273.312 
L 253.009888 56.50492 
L 251.397854 56.50492 
z
" style="fill:#1f77b4;"/>
   </g>
   <g id="patch_122">
    <path clip-path="url(#p07e5d9e430)" d="M 253.009888 273.312 
L 254.621923 273.312 
L 254.621923 56.50492 
L 253.009888 56.50492 
z
" style="fill:#1f77b4;"/>
   </g>
   <g id="patch_123">
    <path clip-path="url(#p07e5d9e430)" d="M 254.621923 273.312 
L 256.233957 273.312 
L 256.233957 34.076602 
L 254.621923 34.076602 
z
" style="fill:#1f77b4;"/>
   </g>
   <g id="patch_124">
    <path clip-path="url(#p07e5d9e430)" d="M 256.233957 273.312 
L 257.845991 273.312 
L 257.845991 41.552708 
L 256.233957 41.552708 
z
" style="fill:#1f77b4;"/>
   </g>
   <g id="patch_125">
    <path clip-path="url(#p07e5d9e430)" d="M 257.845991 273.312 
L 259.458026 273.312 
L 259.458026 27.348106 
L 257.845991 27.348106 
z
" style="fill:#1f77b4;"/>
   </g>
   <g id="patch_126">
    <path clip-path="url(#p07e5d9e430)" d="M 259.458026 273.312 
L 261.07006 273.312 
L 261.07006 40.057487 
L 259.458026 40.057487 
z
" style="fill:#1f77b4;"/>
   </g>
   <g id="patch_127">
    <path clip-path="url(#p07e5d9e430)" d="M 261.07006 273.312 
L 262.682094 273.312 
L 262.682094 80.42846 
L 261.07006 80.42846 
z
" style="fill:#1f77b4;"/>
   </g>
   <g id="patch_128">
    <path clip-path="url(#p07e5d9e430)" d="M 262.682094 273.312 
L 264.294128 273.312 
L 264.294128 37.067044 
L 262.682094 37.067044 
z
" style="fill:#1f77b4;"/>
   </g>
   <g id="patch_129">
    <path clip-path="url(#p07e5d9e430)" d="M 264.294128 273.312 
L 265.906163 273.312 
L 265.906163 74.447575 
L 264.294128 74.447575 
z
" style="fill:#1f77b4;"/>
   </g>
   <g id="patch_130">
    <path clip-path="url(#p07e5d9e430)" d="M 265.906163 273.312 
L 267.518197 273.312 
L 267.518197 40.805097 
L 265.906163 40.805097 
z
" style="fill:#1f77b4;"/>
   </g>
   <g id="patch_131">
    <path clip-path="url(#p07e5d9e430)" d="M 267.518197 273.312 
L 269.130231 273.312 
L 269.130231 65.476248 
L 267.518197 65.476248 
z
" style="fill:#1f77b4;"/>
   </g>
   <g id="patch_132">
    <path clip-path="url(#p07e5d9e430)" d="M 269.130231 273.312 
L 270.742266 273.312 
L 270.742266 33.328991 
L 269.130231 33.328991 
z
" style="fill:#1f77b4;"/>
   </g>
   <g id="patch_133">
    <path clip-path="url(#p07e5d9e430)" d="M 270.742266 273.312 
L 272.3543 273.312 
L 272.3543 64.728637 
L 270.742266 64.728637 
z
" style="fill:#1f77b4;"/>
   </g>
   <g id="patch_134">
    <path clip-path="url(#p07e5d9e430)" d="M 272.3543 273.312 
L 273.966334 273.312 
L 273.966334 74.447575 
L 272.3543 74.447575 
z
" style="fill:#1f77b4;"/>
   </g>
   <g id="patch_135">
    <path clip-path="url(#p07e5d9e430)" d="M 273.966334 273.312 
L 275.578368 273.312 
L 275.578368 36.319434 
L 273.966334 36.319434 
z
" style="fill:#1f77b4;"/>
   </g>
   <g id="patch_136">
    <path clip-path="url(#p07e5d9e430)" d="M 275.578368 273.312 
L 277.190403 273.312 
L 277.190403 53.514478 
L 275.578368 53.514478 
z
" style="fill:#1f77b4;"/>
   </g>
   <g id="patch_137">
    <path clip-path="url(#p07e5d9e430)" d="M 277.190403 273.312 
L 278.802437 273.312 
L 278.802437 60.990584 
L 277.190403 60.990584 
z
" style="fill:#1f77b4;"/>
   </g>
   <g id="patch_138">
    <path clip-path="url(#p07e5d9e430)" d="M 278.802437 273.312 
L 280.414471 273.312 
L 280.414471 76.690407 
L 278.802437 76.690407 
z
" style="fill:#1f77b4;"/>
   </g>
   <g id="patch_139">
    <path clip-path="url(#p07e5d9e430)" d="M 280.414471 273.312 
L 282.026506 273.312 
L 282.026506 49.028814 
L 280.414471 49.028814 
z
" style="fill:#1f77b4;"/>
   </g>
   <g id="patch_140">
    <path clip-path="url(#p07e5d9e430)" d="M 282.026506 273.312 
L 283.63854 273.312 
L 283.63854 78.933239 
L 282.026506 78.933239 
z
" style="fill:#1f77b4;"/>
   </g>
   <g id="patch_141">
    <path clip-path="url(#p07e5d9e430)" d="M 283.63854 273.312 
L 285.250574 273.312 
L 285.250574 101.361558 
L 283.63854 101.361558 
z
" style="fill:#1f77b4;"/>
   </g>
   <g id="patch_142">
    <path clip-path="url(#p07e5d9e430)" d="M 285.250574 273.312 
L 286.862608 273.312 
L 286.862608 78.185628 
L 285.250574 78.185628 
z
" style="fill:#1f77b4;"/>
   </g>
   <g id="patch_143">
    <path clip-path="url(#p07e5d9e430)" d="M 286.862608 273.312 
L 288.474643 273.312 
L 288.474643 93.137841 
L 286.862608 93.137841 
z
" style="fill:#1f77b4;"/>
   </g>
   <g id="patch_144">
    <path clip-path="url(#p07e5d9e430)" d="M 288.474643 273.312 
L 290.086677 273.312 
L 290.086677 90.895009 
L 288.474643 90.895009 
z
" style="fill:#1f77b4;"/>
   </g>
   <g id="patch_145">
    <path clip-path="url(#p07e5d9e430)" d="M 290.086677 273.312 
L 291.698711 273.312 
L 291.698711 90.147398 
L 290.086677 90.147398 
z
" style="fill:#1f77b4;"/>
   </g>
   <g id="patch_146">
    <path clip-path="url(#p07e5d9e430)" d="M 291.698711 273.312 
L 293.310746 273.312 
L 293.310746 99.866336 
L 291.698711 99.866336 
z
" style="fill:#1f77b4;"/>
   </g>
   <g id="patch_147">
    <path clip-path="url(#p07e5d9e430)" d="M 293.310746 273.312 
L 294.92278 273.312 
L 294.92278 105.847221 
L 293.310746 105.847221 
z
" style="fill:#1f77b4;"/>
   </g>
   <g id="patch_148">
    <path clip-path="url(#p07e5d9e430)" d="M 294.92278 273.312 
L 296.534814 273.312 
L 296.534814 85.661735 
L 294.92278 85.661735 
z
" style="fill:#1f77b4;"/>
   </g>
   <g id="patch_149">
    <path clip-path="url(#p07e5d9e430)" d="M 296.534814 273.312 
L 298.146848 273.312 
L 298.146848 98.371115 
L 296.534814 98.371115 
z
" style="fill:#1f77b4;"/>
   </g>
   <g id="patch_150">
    <path clip-path="url(#p07e5d9e430)" d="M 298.146848 273.312 
L 299.758883 273.312 
L 299.758883 94.633062 
L 298.146848 94.633062 
z
" style="fill:#1f77b4;"/>
   </g>
   <g id="patch_151">
    <path clip-path="url(#p07e5d9e430)" d="M 299.758883 273.312 
L 301.370917 273.312 
L 301.370917 111.080496 
L 299.758883 111.080496 
z
" style="fill:#1f77b4;"/>
   </g>
   <g id="patch_152">
    <path clip-path="url(#p07e5d9e430)" d="M 301.370917 273.312 
L 302.982951 273.312 
L 302.982951 96.875894 
L 301.370917 96.875894 
z
" style="fill:#1f77b4;"/>
   </g>
   <g id="patch_153">
    <path clip-path="url(#p07e5d9e430)" d="M 302.982951 273.312 
L 304.594986 273.312 
L 304.594986 97.623504 
L 302.982951 97.623504 
z
" style="fill:#1f77b4;"/>
   </g>
   <g id="patch_154">
    <path clip-path="url(#p07e5d9e430)" d="M 304.594986 273.312 
L 306.20702 273.312 
L 306.20702 125.285097 
L 304.594986 125.285097 
z
" style="fill:#1f77b4;"/>
   </g>
   <g id="patch_155">
    <path clip-path="url(#p07e5d9e430)" d="M 306.20702 273.312 
L 307.819054 273.312 
L 307.819054 121.547044 
L 306.20702 121.547044 
z
" style="fill:#1f77b4;"/>
   </g>
   <g id="patch_156">
    <path clip-path="url(#p07e5d9e430)" d="M 307.819054 273.312 
L 309.431088 273.312 
L 309.431088 125.285097 
L 307.819054 125.285097 
z
" style="fill:#1f77b4;"/>
   </g>
   <g id="patch_157">
    <path clip-path="url(#p07e5d9e430)" d="M 309.431088 273.312 
L 311.043123 273.312 
L 311.043123 118.556602 
L 309.431088 118.556602 
z
" style="fill:#1f77b4;"/>
   </g>
   <g id="patch_158">
    <path clip-path="url(#p07e5d9e430)" d="M 311.043123 273.312 
L 312.655157 273.312 
L 312.655157 122.294655 
L 311.043123 122.294655 
z
" style="fill:#1f77b4;"/>
   </g>
   <g id="patch_159">
    <path clip-path="url(#p07e5d9e430)" d="M 312.655157 273.312 
L 314.267191 273.312 
L 314.267191 123.042265 
L 312.655157 123.042265 
z
" style="fill:#1f77b4;"/>
   </g>
   <g id="patch_160">
    <path clip-path="url(#p07e5d9e430)" d="M 314.267191 273.312 
L 315.879226 273.312 
L 315.879226 142.480142 
L 314.267191 142.480142 
z
" style="fill:#1f77b4;"/>
   </g>
   <g id="patch_161">
    <path clip-path="url(#p07e5d9e430)" d="M 315.879226 273.312 
L 317.49126 273.312 
L 317.49126 129.02315 
L 315.879226 129.02315 
z
" style="fill:#1f77b4;"/>
   </g>
   <g id="patch_162">
    <path clip-path="url(#p07e5d9e430)" d="M 317.49126 273.312 
L 319.103294 273.312 
L 319.103294 102.109168 
L 317.49126 102.109168 
z
" style="fill:#1f77b4;"/>
   </g>
   <g id="patch_163">
    <path clip-path="url(#p07e5d9e430)" d="M 319.103294 273.312 
L 320.715328 273.312 
L 320.715328 146.965805 
L 319.103294 146.965805 
z
" style="fill:#1f77b4;"/>
   </g>
   <g id="patch_164">
    <path clip-path="url(#p07e5d9e430)" d="M 320.715328 273.312 
L 322.327363 273.312 
L 322.327363 135.004035 
L 320.715328 135.004035 
z
" style="fill:#1f77b4;"/>
   </g>
   <g id="patch_165">
    <path clip-path="url(#p07e5d9e430)" d="M 322.327363 273.312 
L 323.939397 273.312 
L 323.939397 158.927575 
L 322.327363 158.927575 
z
" style="fill:#1f77b4;"/>
   </g>
   <g id="patch_166">
    <path clip-path="url(#p07e5d9e430)" d="M 323.939397 273.312 
L 325.551431 273.312 
L 325.551431 146.965805 
L 323.939397 146.965805 
z
" style="fill:#1f77b4;"/>
   </g>
   <g id="patch_167">
    <path clip-path="url(#p07e5d9e430)" d="M 325.551431 273.312 
L 327.163466 273.312 
L 327.163466 155.189522 
L 325.551431 155.189522 
z
" style="fill:#1f77b4;"/>
   </g>
   <g id="patch_168">
    <path clip-path="url(#p07e5d9e430)" d="M 327.163466 273.312 
L 328.7755 273.312 
L 328.7755 162.665628 
L 327.163466 162.665628 
z
" style="fill:#1f77b4;"/>
   </g>
   <g id="patch_169">
    <path clip-path="url(#p07e5d9e430)" d="M 328.7755 273.312 
L 330.387534 273.312 
L 330.387534 145.470584 
L 328.7755 145.470584 
z
" style="fill:#1f77b4;"/>
   </g>
   <g id="patch_170">
    <path clip-path="url(#p07e5d9e430)" d="M 330.387534 273.312 
L 331.999568 273.312 
L 331.999568 155.189522 
L 330.387534 155.189522 
z
" style="fill:#1f77b4;"/>
   </g>
   <g id="patch_171">
    <path clip-path="url(#p07e5d9e430)" d="M 331.999568 273.312 
L 333.611603 273.312 
L 333.611603 171.636956 
L 331.999568 171.636956 
z
" style="fill:#1f77b4;"/>
   </g>
   <g id="patch_172">
    <path clip-path="url(#p07e5d9e430)" d="M 333.611603 273.312 
L 335.223637 273.312 
L 335.223637 180.608283 
L 333.611603 180.608283 
z
" style="fill:#1f77b4;"/>
   </g>
   <g id="patch_173">
    <path clip-path="url(#p07e5d9e430)" d="M 335.223637 273.312 
L 336.835671 273.312 
L 336.835671 188.084389 
L 335.223637 188.084389 
z
" style="fill:#1f77b4;"/>
   </g>
   <g id="patch_174">
    <path clip-path="url(#p07e5d9e430)" d="M 336.835671 273.312 
L 338.447706 273.312 
L 338.447706 185.093947 
L 336.835671 185.093947 
z
" style="fill:#1f77b4;"/>
   </g>
   <g id="patch_175">
    <path clip-path="url(#p07e5d9e430)" d="M 338.447706 273.312 
L 340.05974 273.312 
L 340.05974 164.90846 
L 338.447706 164.90846 
z
" style="fill:#1f77b4;"/>
   </g>
   <g id="patch_176">
    <path clip-path="url(#p07e5d9e430)" d="M 340.05974 273.312 
L 341.671774 273.312 
L 341.671774 196.308106 
L 340.05974 196.308106 
z
" style="fill:#1f77b4;"/>
   </g>
   <g id="patch_177">
    <path clip-path="url(#p07e5d9e430)" d="M 341.671774 273.312 
L 343.283808 273.312 
L 343.283808 189.579611 
L 341.671774 189.579611 
z
" style="fill:#1f77b4;"/>
   </g>
   <g id="patch_178">
    <path clip-path="url(#p07e5d9e430)" d="M 343.283808 273.312 
L 344.895843 273.312 
L 344.895843 177.617841 
L 343.283808 177.617841 
z
" style="fill:#1f77b4;"/>
   </g>
   <g id="patch_179">
    <path clip-path="url(#p07e5d9e430)" d="M 344.895843 273.312 
L 346.507877 273.312 
L 346.507877 180.608283 
L 344.895843 180.608283 
z
" style="fill:#1f77b4;"/>
   </g>
   <g id="patch_180">
    <path clip-path="url(#p07e5d9e430)" d="M 346.507877 273.312 
L 348.119911 273.312 
L 348.119911 206.027044 
L 346.507877 206.027044 
z
" style="fill:#1f77b4;"/>
   </g>
   <g id="patch_181">
    <path clip-path="url(#p07e5d9e430)" d="M 348.119911 273.312 
L 349.731946 273.312 
L 349.731946 188.084389 
L 348.119911 188.084389 
z
" style="fill:#1f77b4;"/>
   </g>
   <g id="patch_182">
    <path clip-path="url(#p07e5d9e430)" d="M 349.731946 273.312 
L 351.34398 273.312 
L 351.34398 204.531823 
L 349.731946 204.531823 
z
" style="fill:#1f77b4;"/>
   </g>
   <g id="patch_183">
    <path clip-path="url(#p07e5d9e430)" d="M 351.34398 273.312 
L 352.956014 273.312 
L 352.956014 203.784212 
L 351.34398 203.784212 
z
" style="fill:#1f77b4;"/>
   </g>
   <g id="patch_184">
    <path clip-path="url(#p07e5d9e430)" d="M 352.956014 273.312 
L 354.568049 273.312 
L 354.568049 209.017487 
L 352.956014 209.017487 
z
" style="fill:#1f77b4;"/>
   </g>
   <g id="patch_185">
    <path clip-path="url(#p07e5d9e430)" d="M 354.568049 273.312 
L 356.180083 273.312 
L 356.180083 209.765097 
L 354.568049 209.765097 
z
" style="fill:#1f77b4;"/>
   </g>
   <g id="patch_186">
    <path clip-path="url(#p07e5d9e430)" d="M 356.180083 273.312 
L 357.792117 273.312 
L 357.792117 213.50315 
L 356.180083 213.50315 
z
" style="fill:#1f77b4;"/>
   </g>
   <g id="patch_187">
    <path clip-path="url(#p07e5d9e430)" d="M 357.792117 273.312 
L 359.404151 273.312 
L 359.404151 231.445805 
L 357.792117 231.445805 
z
" style="fill:#1f77b4;"/>
   </g>
   <g id="patch_188">
    <path clip-path="url(#p07e5d9e430)" d="M 359.404151 273.312 
L 361.016186 273.312 
L 361.016186 215.745982 
L 359.404151 215.745982 
z
" style="fill:#1f77b4;"/>
   </g>
   <g id="patch_189">
    <path clip-path="url(#p07e5d9e430)" d="M 361.016186 273.312 
L 362.62822 273.312 
L 362.62822 209.765097 
L 361.016186 209.765097 
z
" style="fill:#1f77b4;"/>
   </g>
   <g id="patch_190">
    <path clip-path="url(#p07e5d9e430)" d="M 362.62822 273.312 
L 364.240254 273.312 
L 364.240254 226.212531 
L 362.62822 226.212531 
z
" style="fill:#1f77b4;"/>
   </g>
   <g id="patch_191">
    <path clip-path="url(#p07e5d9e430)" d="M 364.240254 273.312 
L 365.852289 273.312 
L 365.852289 229.202973 
L 364.240254 229.202973 
z
" style="fill:#1f77b4;"/>
   </g>
   <g id="patch_192">
    <path clip-path="url(#p07e5d9e430)" d="M 365.852289 273.312 
L 367.464323 273.312 
L 367.464323 244.155186 
L 365.852289 244.155186 
z
" style="fill:#1f77b4;"/>
   </g>
   <g id="patch_193">
    <path clip-path="url(#p07e5d9e430)" d="M 367.464323 273.312 
L 369.076357 273.312 
L 369.076357 241.912354 
L 367.464323 241.912354 
z
" style="fill:#1f77b4;"/>
   </g>
   <g id="patch_194">
    <path clip-path="url(#p07e5d9e430)" d="M 369.076357 273.312 
L 370.688391 273.312 
L 370.688391 247.893239 
L 369.076357 247.893239 
z
" style="fill:#1f77b4;"/>
   </g>
   <g id="patch_195">
    <path clip-path="url(#p07e5d9e430)" d="M 370.688391 273.312 
L 372.300426 273.312 
L 372.300426 251.631292 
L 370.688391 251.631292 
z
" style="fill:#1f77b4;"/>
   </g>
   <g id="patch_196">
    <path clip-path="url(#p07e5d9e430)" d="M 372.300426 273.312 
L 373.91246 273.312 
L 373.91246 240.417133 
L 372.300426 240.417133 
z
" style="fill:#1f77b4;"/>
   </g>
   <g id="patch_197">
    <path clip-path="url(#p07e5d9e430)" d="M 373.91246 273.312 
L 375.524494 273.312 
L 375.524494 244.902796 
L 373.91246 244.902796 
z
" style="fill:#1f77b4;"/>
   </g>
   <g id="patch_198">
    <path clip-path="url(#p07e5d9e430)" d="M 375.524494 273.312 
L 377.136529 273.312 
L 377.136529 250.883681 
L 375.524494 250.883681 
z
" style="fill:#1f77b4;"/>
   </g>
   <g id="patch_199">
    <path clip-path="url(#p07e5d9e430)" d="M 377.136529 273.312 
L 378.748563 273.312 
L 378.748563 251.631292 
L 377.136529 251.631292 
z
" style="fill:#1f77b4;"/>
   </g>
   <g id="patch_200">
    <path clip-path="url(#p07e5d9e430)" d="M 378.748563 273.312 
L 380.360597 273.312 
L 380.360597 262.845451 
L 378.748563 262.845451 
z
" style="fill:#1f77b4;"/>
   </g>
   <g id="patch_201">
    <path clip-path="url(#p07e5d9e430)" d="M 380.360597 273.312 
L 381.972631 273.312 
L 381.972631 266.583504 
L 380.360597 266.583504 
z
" style="fill:#1f77b4;"/>
   </g>
   <g id="patch_202">
    <path clip-path="url(#p07e5d9e430)" d="M 381.972631 273.312 
L 383.584666 273.312 
L 383.584666 271.069168 
L 381.972631 271.069168 
z
" style="fill:#1f77b4;"/>
   </g>
   <g id="matplotlib.axis_1">
    <g id="xtick_1">
     <g id="line2d_1">
      <defs>
       <path d="M 0 0 
L 0 3.5 
" id="m7a440a27d9" style="stroke:#000000;stroke-width:0.8;"/>
      </defs>
      <g>
       <use style="stroke:#000000;stroke-width:0.8;" x="60.013977" xlink:href="#m7a440a27d9" y="273.312"/>
      </g>
     </g>
     <g id="text_1">
      <!-- 0.0 -->
      <g transform="translate(52.062415 287.910437)scale(0.1 -0.1)">
       <defs>
        <path d="M 2034 4250 
Q 1547 4250 1301 3770 
Q 1056 3291 1056 2328 
Q 1056 1369 1301 889 
Q 1547 409 2034 409 
Q 2525 409 2770 889 
Q 3016 1369 3016 2328 
Q 3016 3291 2770 3770 
Q 2525 4250 2034 4250 
z
M 2034 4750 
Q 2819 4750 3233 4129 
Q 3647 3509 3647 2328 
Q 3647 1150 3233 529 
Q 2819 -91 2034 -91 
Q 1250 -91 836 529 
Q 422 1150 422 2328 
Q 422 3509 836 4129 
Q 1250 4750 2034 4750 
z
" id="DejaVuSans-30" transform="scale(0.015625)"/>
        <path d="M 684 794 
L 1344 794 
L 1344 0 
L 684 0 
L 684 794 
z
" id="DejaVuSans-2e" transform="scale(0.015625)"/>
       </defs>
       <use xlink:href="#DejaVuSans-30"/>
       <use x="63.623047" xlink:href="#DejaVuSans-2e"/>
       <use x="95.410156" xlink:href="#DejaVuSans-30"/>
      </g>
     </g>
    </g>
    <g id="xtick_2">
     <g id="line2d_2">
      <g>
       <use style="stroke:#000000;stroke-width:0.8;" x="101.350278" xlink:href="#m7a440a27d9" y="273.312"/>
      </g>
     </g>
     <g id="text_2">
      <!-- 0.2 -->
      <g transform="translate(93.398715 287.910437)scale(0.1 -0.1)">
       <defs>
        <path d="M 1228 531 
L 3431 531 
L 3431 0 
L 469 0 
L 469 531 
Q 828 903 1448 1529 
Q 2069 2156 2228 2338 
Q 2531 2678 2651 2914 
Q 2772 3150 2772 3378 
Q 2772 3750 2511 3984 
Q 2250 4219 1831 4219 
Q 1534 4219 1204 4116 
Q 875 4013 500 3803 
L 500 4441 
Q 881 4594 1212 4672 
Q 1544 4750 1819 4750 
Q 2544 4750 2975 4387 
Q 3406 4025 3406 3419 
Q 3406 3131 3298 2873 
Q 3191 2616 2906 2266 
Q 2828 2175 2409 1742 
Q 1991 1309 1228 531 
z
" id="DejaVuSans-32" transform="scale(0.015625)"/>
       </defs>
       <use xlink:href="#DejaVuSans-30"/>
       <use x="63.623047" xlink:href="#DejaVuSans-2e"/>
       <use x="95.410156" xlink:href="#DejaVuSans-32"/>
      </g>
     </g>
    </g>
    <g id="xtick_3">
     <g id="line2d_3">
      <g>
       <use style="stroke:#000000;stroke-width:0.8;" x="142.686578" xlink:href="#m7a440a27d9" y="273.312"/>
      </g>
     </g>
     <g id="text_3">
      <!-- 0.4 -->
      <g transform="translate(134.735016 287.910437)scale(0.1 -0.1)">
       <defs>
        <path d="M 2419 4116 
L 825 1625 
L 2419 1625 
L 2419 4116 
z
M 2253 4666 
L 3047 4666 
L 3047 1625 
L 3713 1625 
L 3713 1100 
L 3047 1100 
L 3047 0 
L 2419 0 
L 2419 1100 
L 313 1100 
L 313 1709 
L 2253 4666 
z
" id="DejaVuSans-34" transform="scale(0.015625)"/>
       </defs>
       <use xlink:href="#DejaVuSans-30"/>
       <use x="63.623047" xlink:href="#DejaVuSans-2e"/>
       <use x="95.410156" xlink:href="#DejaVuSans-34"/>
      </g>
     </g>
    </g>
    <g id="xtick_4">
     <g id="line2d_4">
      <g>
       <use style="stroke:#000000;stroke-width:0.8;" x="184.022879" xlink:href="#m7a440a27d9" y="273.312"/>
      </g>
     </g>
     <g id="text_4">
      <!-- 0.6 -->
      <g transform="translate(176.071316 287.910437)scale(0.1 -0.1)">
       <defs>
        <path d="M 2113 2584 
Q 1688 2584 1439 2293 
Q 1191 2003 1191 1497 
Q 1191 994 1439 701 
Q 1688 409 2113 409 
Q 2538 409 2786 701 
Q 3034 994 3034 1497 
Q 3034 2003 2786 2293 
Q 2538 2584 2113 2584 
z
M 3366 4563 
L 3366 3988 
Q 3128 4100 2886 4159 
Q 2644 4219 2406 4219 
Q 1781 4219 1451 3797 
Q 1122 3375 1075 2522 
Q 1259 2794 1537 2939 
Q 1816 3084 2150 3084 
Q 2853 3084 3261 2657 
Q 3669 2231 3669 1497 
Q 3669 778 3244 343 
Q 2819 -91 2113 -91 
Q 1303 -91 875 529 
Q 447 1150 447 2328 
Q 447 3434 972 4092 
Q 1497 4750 2381 4750 
Q 2619 4750 2861 4703 
Q 3103 4656 3366 4563 
z
" id="DejaVuSans-36" transform="scale(0.015625)"/>
       </defs>
       <use xlink:href="#DejaVuSans-30"/>
       <use x="63.623047" xlink:href="#DejaVuSans-2e"/>
       <use x="95.410156" xlink:href="#DejaVuSans-36"/>
      </g>
     </g>
    </g>
    <g id="xtick_5">
     <g id="line2d_5">
      <g>
       <use style="stroke:#000000;stroke-width:0.8;" x="225.35918" xlink:href="#m7a440a27d9" y="273.312"/>
      </g>
     </g>
     <g id="text_5">
      <!-- 0.8 -->
      <g transform="translate(217.407617 287.910437)scale(0.1 -0.1)">
       <defs>
        <path d="M 2034 2216 
Q 1584 2216 1326 1975 
Q 1069 1734 1069 1313 
Q 1069 891 1326 650 
Q 1584 409 2034 409 
Q 2484 409 2743 651 
Q 3003 894 3003 1313 
Q 3003 1734 2745 1975 
Q 2488 2216 2034 2216 
z
M 1403 2484 
Q 997 2584 770 2862 
Q 544 3141 544 3541 
Q 544 4100 942 4425 
Q 1341 4750 2034 4750 
Q 2731 4750 3128 4425 
Q 3525 4100 3525 3541 
Q 3525 3141 3298 2862 
Q 3072 2584 2669 2484 
Q 3125 2378 3379 2068 
Q 3634 1759 3634 1313 
Q 3634 634 3220 271 
Q 2806 -91 2034 -91 
Q 1263 -91 848 271 
Q 434 634 434 1313 
Q 434 1759 690 2068 
Q 947 2378 1403 2484 
z
M 1172 3481 
Q 1172 3119 1398 2916 
Q 1625 2713 2034 2713 
Q 2441 2713 2670 2916 
Q 2900 3119 2900 3481 
Q 2900 3844 2670 4047 
Q 2441 4250 2034 4250 
Q 1625 4250 1398 4047 
Q 1172 3844 1172 3481 
z
" id="DejaVuSans-38" transform="scale(0.015625)"/>
       </defs>
       <use xlink:href="#DejaVuSans-30"/>
       <use x="63.623047" xlink:href="#DejaVuSans-2e"/>
       <use x="95.410156" xlink:href="#DejaVuSans-38"/>
      </g>
     </g>
    </g>
    <g id="xtick_6">
     <g id="line2d_6">
      <g>
       <use style="stroke:#000000;stroke-width:0.8;" x="266.69548" xlink:href="#m7a440a27d9" y="273.312"/>
      </g>
     </g>
     <g id="text_6">
      <!-- 1.0 -->
      <g transform="translate(258.743918 287.910437)scale(0.1 -0.1)">
       <defs>
        <path d="M 794 531 
L 1825 531 
L 1825 4091 
L 703 3866 
L 703 4441 
L 1819 4666 
L 2450 4666 
L 2450 531 
L 3481 531 
L 3481 0 
L 794 0 
L 794 531 
z
" id="DejaVuSans-31" transform="scale(0.015625)"/>
       </defs>
       <use xlink:href="#DejaVuSans-31"/>
       <use x="63.623047" xlink:href="#DejaVuSans-2e"/>
       <use x="95.410156" xlink:href="#DejaVuSans-30"/>
      </g>
     </g>
    </g>
    <g id="xtick_7">
     <g id="line2d_7">
      <g>
       <use style="stroke:#000000;stroke-width:0.8;" x="308.031781" xlink:href="#m7a440a27d9" y="273.312"/>
      </g>
     </g>
     <g id="text_7">
      <!-- 1.2 -->
      <g transform="translate(300.080218 287.910437)scale(0.1 -0.1)">
       <use xlink:href="#DejaVuSans-31"/>
       <use x="63.623047" xlink:href="#DejaVuSans-2e"/>
       <use x="95.410156" xlink:href="#DejaVuSans-32"/>
      </g>
     </g>
    </g>
    <g id="xtick_8">
     <g id="line2d_8">
      <g>
       <use style="stroke:#000000;stroke-width:0.8;" x="349.368081" xlink:href="#m7a440a27d9" y="273.312"/>
      </g>
     </g>
     <g id="text_8">
      <!-- 1.4 -->
      <g transform="translate(341.416519 287.910437)scale(0.1 -0.1)">
       <use xlink:href="#DejaVuSans-31"/>
       <use x="63.623047" xlink:href="#DejaVuSans-2e"/>
       <use x="95.410156" xlink:href="#DejaVuSans-34"/>
      </g>
     </g>
    </g>
    <g id="xtick_9">
     <g id="line2d_9">
      <g>
       <use style="stroke:#000000;stroke-width:0.8;" x="390.704382" xlink:href="#m7a440a27d9" y="273.312"/>
      </g>
     </g>
     <g id="text_9">
      <!-- 1.6 -->
      <g transform="translate(382.752819 287.910437)scale(0.1 -0.1)">
       <use xlink:href="#DejaVuSans-31"/>
       <use x="63.623047" xlink:href="#DejaVuSans-2e"/>
       <use x="95.410156" xlink:href="#DejaVuSans-36"/>
      </g>
     </g>
    </g>
    <g id="text_10">
     <!-- Angle with normal (rad) -->
     <g transform="translate(163.023281 301.588562)scale(0.1 -0.1)">
      <defs>
       <path d="M 2188 4044 
L 1331 1722 
L 3047 1722 
L 2188 4044 
z
M 1831 4666 
L 2547 4666 
L 4325 0 
L 3669 0 
L 3244 1197 
L 1141 1197 
L 716 0 
L 50 0 
L 1831 4666 
z
" id="DejaVuSans-41" transform="scale(0.015625)"/>
       <path d="M 3513 2113 
L 3513 0 
L 2938 0 
L 2938 2094 
Q 2938 2591 2744 2837 
Q 2550 3084 2163 3084 
Q 1697 3084 1428 2787 
Q 1159 2491 1159 1978 
L 1159 0 
L 581 0 
L 581 3500 
L 1159 3500 
L 1159 2956 
Q 1366 3272 1645 3428 
Q 1925 3584 2291 3584 
Q 2894 3584 3203 3211 
Q 3513 2838 3513 2113 
z
" id="DejaVuSans-6e" transform="scale(0.015625)"/>
       <path d="M 2906 1791 
Q 2906 2416 2648 2759 
Q 2391 3103 1925 3103 
Q 1463 3103 1205 2759 
Q 947 2416 947 1791 
Q 947 1169 1205 825 
Q 1463 481 1925 481 
Q 2391 481 2648 825 
Q 2906 1169 2906 1791 
z
M 3481 434 
Q 3481 -459 3084 -895 
Q 2688 -1331 1869 -1331 
Q 1566 -1331 1297 -1286 
Q 1028 -1241 775 -1147 
L 775 -588 
Q 1028 -725 1275 -790 
Q 1522 -856 1778 -856 
Q 2344 -856 2625 -561 
Q 2906 -266 2906 331 
L 2906 616 
Q 2728 306 2450 153 
Q 2172 0 1784 0 
Q 1141 0 747 490 
Q 353 981 353 1791 
Q 353 2603 747 3093 
Q 1141 3584 1784 3584 
Q 2172 3584 2450 3431 
Q 2728 3278 2906 2969 
L 2906 3500 
L 3481 3500 
L 3481 434 
z
" id="DejaVuSans-67" transform="scale(0.015625)"/>
       <path d="M 603 4863 
L 1178 4863 
L 1178 0 
L 603 0 
L 603 4863 
z
" id="DejaVuSans-6c" transform="scale(0.015625)"/>
       <path d="M 3597 1894 
L 3597 1613 
L 953 1613 
Q 991 1019 1311 708 
Q 1631 397 2203 397 
Q 2534 397 2845 478 
Q 3156 559 3463 722 
L 3463 178 
Q 3153 47 2828 -22 
Q 2503 -91 2169 -91 
Q 1331 -91 842 396 
Q 353 884 353 1716 
Q 353 2575 817 3079 
Q 1281 3584 2069 3584 
Q 2775 3584 3186 3129 
Q 3597 2675 3597 1894 
z
M 3022 2063 
Q 3016 2534 2758 2815 
Q 2500 3097 2075 3097 
Q 1594 3097 1305 2825 
Q 1016 2553 972 2059 
L 3022 2063 
z
" id="DejaVuSans-65" transform="scale(0.015625)"/>
       <path id="DejaVuSans-20" transform="scale(0.015625)"/>
       <path d="M 269 3500 
L 844 3500 
L 1563 769 
L 2278 3500 
L 2956 3500 
L 3675 769 
L 4391 3500 
L 4966 3500 
L 4050 0 
L 3372 0 
L 2619 2869 
L 1863 0 
L 1184 0 
L 269 3500 
z
" id="DejaVuSans-77" transform="scale(0.015625)"/>
       <path d="M 603 3500 
L 1178 3500 
L 1178 0 
L 603 0 
L 603 3500 
z
M 603 4863 
L 1178 4863 
L 1178 4134 
L 603 4134 
L 603 4863 
z
" id="DejaVuSans-69" transform="scale(0.015625)"/>
       <path d="M 1172 4494 
L 1172 3500 
L 2356 3500 
L 2356 3053 
L 1172 3053 
L 1172 1153 
Q 1172 725 1289 603 
Q 1406 481 1766 481 
L 2356 481 
L 2356 0 
L 1766 0 
Q 1100 0 847 248 
Q 594 497 594 1153 
L 594 3053 
L 172 3053 
L 172 3500 
L 594 3500 
L 594 4494 
L 1172 4494 
z
" id="DejaVuSans-74" transform="scale(0.015625)"/>
       <path d="M 3513 2113 
L 3513 0 
L 2938 0 
L 2938 2094 
Q 2938 2591 2744 2837 
Q 2550 3084 2163 3084 
Q 1697 3084 1428 2787 
Q 1159 2491 1159 1978 
L 1159 0 
L 581 0 
L 581 4863 
L 1159 4863 
L 1159 2956 
Q 1366 3272 1645 3428 
Q 1925 3584 2291 3584 
Q 2894 3584 3203 3211 
Q 3513 2838 3513 2113 
z
" id="DejaVuSans-68" transform="scale(0.015625)"/>
       <path d="M 1959 3097 
Q 1497 3097 1228 2736 
Q 959 2375 959 1747 
Q 959 1119 1226 758 
Q 1494 397 1959 397 
Q 2419 397 2687 759 
Q 2956 1122 2956 1747 
Q 2956 2369 2687 2733 
Q 2419 3097 1959 3097 
z
M 1959 3584 
Q 2709 3584 3137 3096 
Q 3566 2609 3566 1747 
Q 3566 888 3137 398 
Q 2709 -91 1959 -91 
Q 1206 -91 779 398 
Q 353 888 353 1747 
Q 353 2609 779 3096 
Q 1206 3584 1959 3584 
z
" id="DejaVuSans-6f" transform="scale(0.015625)"/>
       <path d="M 2631 2963 
Q 2534 3019 2420 3045 
Q 2306 3072 2169 3072 
Q 1681 3072 1420 2755 
Q 1159 2438 1159 1844 
L 1159 0 
L 581 0 
L 581 3500 
L 1159 3500 
L 1159 2956 
Q 1341 3275 1631 3429 
Q 1922 3584 2338 3584 
Q 2397 3584 2469 3576 
Q 2541 3569 2628 3553 
L 2631 2963 
z
" id="DejaVuSans-72" transform="scale(0.015625)"/>
       <path d="M 3328 2828 
Q 3544 3216 3844 3400 
Q 4144 3584 4550 3584 
Q 5097 3584 5394 3201 
Q 5691 2819 5691 2113 
L 5691 0 
L 5113 0 
L 5113 2094 
Q 5113 2597 4934 2840 
Q 4756 3084 4391 3084 
Q 3944 3084 3684 2787 
Q 3425 2491 3425 1978 
L 3425 0 
L 2847 0 
L 2847 2094 
Q 2847 2600 2669 2842 
Q 2491 3084 2119 3084 
Q 1678 3084 1418 2786 
Q 1159 2488 1159 1978 
L 1159 0 
L 581 0 
L 581 3500 
L 1159 3500 
L 1159 2956 
Q 1356 3278 1631 3431 
Q 1906 3584 2284 3584 
Q 2666 3584 2933 3390 
Q 3200 3197 3328 2828 
z
" id="DejaVuSans-6d" transform="scale(0.015625)"/>
       <path d="M 2194 1759 
Q 1497 1759 1228 1600 
Q 959 1441 959 1056 
Q 959 750 1161 570 
Q 1363 391 1709 391 
Q 2188 391 2477 730 
Q 2766 1069 2766 1631 
L 2766 1759 
L 2194 1759 
z
M 3341 1997 
L 3341 0 
L 2766 0 
L 2766 531 
Q 2569 213 2275 61 
Q 1981 -91 1556 -91 
Q 1019 -91 701 211 
Q 384 513 384 1019 
Q 384 1609 779 1909 
Q 1175 2209 1959 2209 
L 2766 2209 
L 2766 2266 
Q 2766 2663 2505 2880 
Q 2244 3097 1772 3097 
Q 1472 3097 1187 3025 
Q 903 2953 641 2809 
L 641 3341 
Q 956 3463 1253 3523 
Q 1550 3584 1831 3584 
Q 2591 3584 2966 3190 
Q 3341 2797 3341 1997 
z
" id="DejaVuSans-61" transform="scale(0.015625)"/>
       <path d="M 1984 4856 
Q 1566 4138 1362 3434 
Q 1159 2731 1159 2009 
Q 1159 1288 1364 580 
Q 1569 -128 1984 -844 
L 1484 -844 
Q 1016 -109 783 600 
Q 550 1309 550 2009 
Q 550 2706 781 3412 
Q 1013 4119 1484 4856 
L 1984 4856 
z
" id="DejaVuSans-28" transform="scale(0.015625)"/>
       <path d="M 2906 2969 
L 2906 4863 
L 3481 4863 
L 3481 0 
L 2906 0 
L 2906 525 
Q 2725 213 2448 61 
Q 2172 -91 1784 -91 
Q 1150 -91 751 415 
Q 353 922 353 1747 
Q 353 2572 751 3078 
Q 1150 3584 1784 3584 
Q 2172 3584 2448 3432 
Q 2725 3281 2906 2969 
z
M 947 1747 
Q 947 1113 1208 752 
Q 1469 391 1925 391 
Q 2381 391 2643 752 
Q 2906 1113 2906 1747 
Q 2906 2381 2643 2742 
Q 2381 3103 1925 3103 
Q 1469 3103 1208 2742 
Q 947 2381 947 1747 
z
" id="DejaVuSans-64" transform="scale(0.015625)"/>
       <path d="M 513 4856 
L 1013 4856 
Q 1481 4119 1714 3412 
Q 1947 2706 1947 2009 
Q 1947 1309 1714 600 
Q 1481 -109 1013 -844 
L 513 -844 
Q 928 -128 1133 580 
Q 1338 1288 1338 2009 
Q 1338 2731 1133 3434 
Q 928 4138 513 4856 
z
" id="DejaVuSans-29" transform="scale(0.015625)"/>
      </defs>
      <use xlink:href="#DejaVuSans-41"/>
      <use x="68.408203" xlink:href="#DejaVuSans-6e"/>
      <use x="131.787109" xlink:href="#DejaVuSans-67"/>
      <use x="195.263672" xlink:href="#DejaVuSans-6c"/>
      <use x="223.046875" xlink:href="#DejaVuSans-65"/>
      <use x="284.570312" xlink:href="#DejaVuSans-20"/>
      <use x="316.357422" xlink:href="#DejaVuSans-77"/>
      <use x="398.144531" xlink:href="#DejaVuSans-69"/>
      <use x="425.927734" xlink:href="#DejaVuSans-74"/>
      <use x="465.136719" xlink:href="#DejaVuSans-68"/>
      <use x="528.515625" xlink:href="#DejaVuSans-20"/>
      <use x="560.302734" xlink:href="#DejaVuSans-6e"/>
      <use x="623.681641" xlink:href="#DejaVuSans-6f"/>
      <use x="684.863281" xlink:href="#DejaVuSans-72"/>
      <use x="724.226562" xlink:href="#DejaVuSans-6d"/>
      <use x="821.638672" xlink:href="#DejaVuSans-61"/>
      <use x="882.917969" xlink:href="#DejaVuSans-6c"/>
      <use x="910.701172" xlink:href="#DejaVuSans-20"/>
      <use x="942.488281" xlink:href="#DejaVuSans-28"/>
      <use x="981.501953" xlink:href="#DejaVuSans-72"/>
      <use x="1022.615234" xlink:href="#DejaVuSans-61"/>
      <use x="1083.894531" xlink:href="#DejaVuSans-64"/>
      <use x="1147.371094" xlink:href="#DejaVuSans-29"/>
     </g>
    </g>
   </g>
   <g id="matplotlib.axis_2">
    <g id="ytick_1">
     <g id="line2d_10">
      <defs>
       <path d="M 0 0 
L -3.5 0 
" id="ma898e31a29" style="stroke:#000000;stroke-width:0.8;"/>
      </defs>
      <g>
       <use style="stroke:#000000;stroke-width:0.8;" x="43.78125" xlink:href="#ma898e31a29" y="273.312"/>
      </g>
     </g>
     <g id="text_11">
      <!-- 0.0 -->
      <g transform="translate(20.878125 277.111219)scale(0.1 -0.1)">
       <use xlink:href="#DejaVuSans-30"/>
       <use x="63.623047" xlink:href="#DejaVuSans-2e"/>
       <use x="95.410156" xlink:href="#DejaVuSans-30"/>
      </g>
     </g>
    </g>
    <g id="ytick_2">
     <g id="line2d_11">
      <g>
       <use style="stroke:#000000;stroke-width:0.8;" x="43.78125" xlink:href="#ma898e31a29" y="226.663454"/>
      </g>
     </g>
     <g id="text_12">
      <!-- 0.2 -->
      <g transform="translate(20.878125 230.462673)scale(0.1 -0.1)">
       <use xlink:href="#DejaVuSans-30"/>
       <use x="63.623047" xlink:href="#DejaVuSans-2e"/>
       <use x="95.410156" xlink:href="#DejaVuSans-32"/>
      </g>
     </g>
    </g>
    <g id="ytick_3">
     <g id="line2d_12">
      <g>
       <use style="stroke:#000000;stroke-width:0.8;" x="43.78125" xlink:href="#ma898e31a29" y="180.014908"/>
      </g>
     </g>
     <g id="text_13">
      <!-- 0.4 -->
      <g transform="translate(20.878125 183.814127)scale(0.1 -0.1)">
       <use xlink:href="#DejaVuSans-30"/>
       <use x="63.623047" xlink:href="#DejaVuSans-2e"/>
       <use x="95.410156" xlink:href="#DejaVuSans-34"/>
      </g>
     </g>
    </g>
    <g id="ytick_4">
     <g id="line2d_13">
      <g>
       <use style="stroke:#000000;stroke-width:0.8;" x="43.78125" xlink:href="#ma898e31a29" y="133.366362"/>
      </g>
     </g>
     <g id="text_14">
      <!-- 0.6 -->
      <g transform="translate(20.878125 137.16558)scale(0.1 -0.1)">
       <use xlink:href="#DejaVuSans-30"/>
       <use x="63.623047" xlink:href="#DejaVuSans-2e"/>
       <use x="95.410156" xlink:href="#DejaVuSans-36"/>
      </g>
     </g>
    </g>
    <g id="ytick_5">
     <g id="line2d_14">
      <g>
       <use style="stroke:#000000;stroke-width:0.8;" x="43.78125" xlink:href="#ma898e31a29" y="86.717816"/>
      </g>
     </g>
     <g id="text_15">
      <!-- 0.8 -->
      <g transform="translate(20.878125 90.517034)scale(0.1 -0.1)">
       <use xlink:href="#DejaVuSans-30"/>
       <use x="63.623047" xlink:href="#DejaVuSans-2e"/>
       <use x="95.410156" xlink:href="#DejaVuSans-38"/>
      </g>
     </g>
    </g>
    <g id="ytick_6">
     <g id="line2d_15">
      <g>
       <use style="stroke:#000000;stroke-width:0.8;" x="43.78125" xlink:href="#ma898e31a29" y="40.069269"/>
      </g>
     </g>
     <g id="text_16">
      <!-- 1.0 -->
      <g transform="translate(20.878125 43.868488)scale(0.1 -0.1)">
       <use xlink:href="#DejaVuSans-31"/>
       <use x="63.623047" xlink:href="#DejaVuSans-2e"/>
       <use x="95.410156" xlink:href="#DejaVuSans-30"/>
      </g>
     </g>
    </g>
    <g id="text_17">
     <!-- Probability density -->
     <g transform="translate(14.798438 186.606781)rotate(-90)scale(0.1 -0.1)">
      <defs>
       <path d="M 1259 4147 
L 1259 2394 
L 2053 2394 
Q 2494 2394 2734 2622 
Q 2975 2850 2975 3272 
Q 2975 3691 2734 3919 
Q 2494 4147 2053 4147 
L 1259 4147 
z
M 628 4666 
L 2053 4666 
Q 2838 4666 3239 4311 
Q 3641 3956 3641 3272 
Q 3641 2581 3239 2228 
Q 2838 1875 2053 1875 
L 1259 1875 
L 1259 0 
L 628 0 
L 628 4666 
z
" id="DejaVuSans-50" transform="scale(0.015625)"/>
       <path d="M 3116 1747 
Q 3116 2381 2855 2742 
Q 2594 3103 2138 3103 
Q 1681 3103 1420 2742 
Q 1159 2381 1159 1747 
Q 1159 1113 1420 752 
Q 1681 391 2138 391 
Q 2594 391 2855 752 
Q 3116 1113 3116 1747 
z
M 1159 2969 
Q 1341 3281 1617 3432 
Q 1894 3584 2278 3584 
Q 2916 3584 3314 3078 
Q 3713 2572 3713 1747 
Q 3713 922 3314 415 
Q 2916 -91 2278 -91 
Q 1894 -91 1617 61 
Q 1341 213 1159 525 
L 1159 0 
L 581 0 
L 581 4863 
L 1159 4863 
L 1159 2969 
z
" id="DejaVuSans-62" transform="scale(0.015625)"/>
       <path d="M 2059 -325 
Q 1816 -950 1584 -1140 
Q 1353 -1331 966 -1331 
L 506 -1331 
L 506 -850 
L 844 -850 
Q 1081 -850 1212 -737 
Q 1344 -625 1503 -206 
L 1606 56 
L 191 3500 
L 800 3500 
L 1894 763 
L 2988 3500 
L 3597 3500 
L 2059 -325 
z
" id="DejaVuSans-79" transform="scale(0.015625)"/>
       <path d="M 2834 3397 
L 2834 2853 
Q 2591 2978 2328 3040 
Q 2066 3103 1784 3103 
Q 1356 3103 1142 2972 
Q 928 2841 928 2578 
Q 928 2378 1081 2264 
Q 1234 2150 1697 2047 
L 1894 2003 
Q 2506 1872 2764 1633 
Q 3022 1394 3022 966 
Q 3022 478 2636 193 
Q 2250 -91 1575 -91 
Q 1294 -91 989 -36 
Q 684 19 347 128 
L 347 722 
Q 666 556 975 473 
Q 1284 391 1588 391 
Q 1994 391 2212 530 
Q 2431 669 2431 922 
Q 2431 1156 2273 1281 
Q 2116 1406 1581 1522 
L 1381 1569 
Q 847 1681 609 1914 
Q 372 2147 372 2553 
Q 372 3047 722 3315 
Q 1072 3584 1716 3584 
Q 2034 3584 2315 3537 
Q 2597 3491 2834 3397 
z
" id="DejaVuSans-73" transform="scale(0.015625)"/>
      </defs>
      <use xlink:href="#DejaVuSans-50"/>
      <use x="58.552734" xlink:href="#DejaVuSans-72"/>
      <use x="97.416016" xlink:href="#DejaVuSans-6f"/>
      <use x="158.597656" xlink:href="#DejaVuSans-62"/>
      <use x="222.074219" xlink:href="#DejaVuSans-61"/>
      <use x="283.353516" xlink:href="#DejaVuSans-62"/>
      <use x="346.830078" xlink:href="#DejaVuSans-69"/>
      <use x="374.613281" xlink:href="#DejaVuSans-6c"/>
      <use x="402.396484" xlink:href="#DejaVuSans-69"/>
      <use x="430.179688" xlink:href="#DejaVuSans-74"/>
      <use x="469.388672" xlink:href="#DejaVuSans-79"/>
      <use x="528.568359" xlink:href="#DejaVuSans-20"/>
      <use x="560.355469" xlink:href="#DejaVuSans-64"/>
      <use x="623.832031" xlink:href="#DejaVuSans-65"/>
      <use x="685.355469" xlink:href="#DejaVuSans-6e"/>
      <use x="748.734375" xlink:href="#DejaVuSans-73"/>
      <use x="800.833984" xlink:href="#DejaVuSans-69"/>
      <use x="828.617188" xlink:href="#DejaVuSans-74"/>
      <use x="867.826172" xlink:href="#DejaVuSans-79"/>
     </g>
    </g>
   </g>
   <g id="line2d_16">
    <path clip-path="url(#p07e5d9e430)" d="M 60.013977 273.312 
L 79.837728 228.84319 
L 90.237073 206.065977 
L 99.01152 187.367793 
L 106.811029 171.262938 
L 113.960578 157.008388 
L 120.460169 144.530841 
L 126.63478 133.148132 
L 132.484411 122.825321 
L 138.009063 113.518084 
L 143.208736 105.174961 
L 148.408408 97.257418 
L 153.283101 90.239071 
L 157.832814 84.055773 
L 162.382528 78.239254 
L 166.607261 73.176482 
L 170.831995 68.448151 
L 175.056729 64.062162 
L 178.956483 60.323759 
L 182.856238 56.88863 
L 186.755992 53.761666 
L 190.330767 51.169808 
L 193.905542 48.843742 
L 197.480316 46.786251 
L 201.055091 44.999797 
L 204.304886 43.612751 
L 207.554682 42.452843 
L 210.804477 41.521222 
L 214.054272 40.818809 
L 217.304067 40.346298 
L 220.553863 40.104156 
L 223.803658 40.092624 
L 227.053453 40.311711 
L 230.303248 40.761203 
L 233.553044 41.440653 
L 236.802839 42.349391 
L 240.052634 43.486518 
L 243.302429 44.850909 
L 246.552225 46.441215 
L 250.126999 48.4496 
L 253.701774 50.727032 
L 257.276549 53.270785 
L 260.851324 56.077817 
L 264.751078 59.436346 
L 268.650832 63.099413 
L 272.550587 67.061801 
L 276.77532 71.685612 
L 281.000054 76.646354 
L 285.224788 81.935739 
L 289.774501 87.989384 
L 294.324215 94.402185 
L 299.198908 101.657463 
L 304.39858 109.816931 
L 309.598252 118.390228 
L 315.122904 127.928501 
L 320.972536 138.480031 
L 327.147147 150.085623 
L 333.646737 162.776352 
L 340.796287 177.239028 
L 348.595795 193.538288 
L 357.370243 212.413137 
L 367.769587 235.34043 
L 382.393666 268.178005 
L 384.668523 273.312 
L 384.668523 273.312 
" style="fill:none;stroke:#ff7f0e;stroke-linecap:square;stroke-width:1.5;"/>
   </g>
   <g id="patch_203">
    <path d="M 43.78125 273.312 
L 43.78125 7.2 
" style="fill:none;stroke:#000000;stroke-linecap:square;stroke-linejoin:miter;stroke-width:0.8;"/>
   </g>
   <g id="patch_204">
    <path d="M 400.90125 273.312 
L 400.90125 7.2 
" style="fill:none;stroke:#000000;stroke-linecap:square;stroke-linejoin:miter;stroke-width:0.8;"/>
   </g>
   <g id="patch_205">
    <path d="M 43.78125 273.312 
L 400.90125 273.312 
" style="fill:none;stroke:#000000;stroke-linecap:square;stroke-linejoin:miter;stroke-width:0.8;"/>
   </g>
   <g id="patch_206">
    <path d="M 43.78125 7.2 
L 400.90125 7.2 
" style="fill:none;stroke:#000000;stroke-linecap:square;stroke-linejoin:miter;stroke-width:0.8;"/>
   </g>
  </g>
 </g>
 <defs>
  <clipPath id="p07e5d9e430">
   <rect height="266.112" width="357.12" x="43.78125" y="7.2"/>
  </clipPath>
 </defs>
</svg>
