<?xml version="1.0" encoding="utf-8" standalone="no"?>
<!DOCTYPE svg PUBLIC "-//W3C//DTD SVG 1.1//EN"
  "http://www.w3.org/Graphics/SVG/1.1/DTD/svg11.dtd">
<svg height="310.86825pt" version="1.1" viewBox="0 0 414.46375 310.86825" width="414.46375pt" xmlns="http://www.w3.org/2000/svg" xmlns:xlink="http://www.w3.org/1999/xlink">
 <metadata>
  <rdf:RDF xmlns:cc="http://creativecommons.org/ns#" xmlns:dc="http://purl.org/dc/elements/1.1/" xmlns:rdf="http://www.w3.org/1999/02/22-rdf-syntax-ns#">
   <cc:Work>
    <dc:type rdf:resource="http://purl.org/dc/dcmitype/StillImage"/>
    <dc:date>2021-09-24T21:36:50.722219</dc:date>
    <dc:format>image/svg+xml</dc:format>
    <dc:creator>
     <cc:Agent>
      <dc:title>Matplotlib v3.4.3, https://matplotlib.org/</dc:title>
     </cc:Agent>
    </dc:creator>
   </cc:Work>
  </rdf:RDF>
 </metadata>
 <defs>
  <style type="text/css">*{stroke-linecap:butt;stroke-linejoin:round;}</style>
 </defs>
 <g id="figure_1">
  <g id="patch_1">
   <path d="M 0 310.86825 
L 414.46375 310.86825 
L 414.46375 0 
L 0 0 
z
" style="fill:#ffffff;"/>
  </g>
  <g id="axes_1">
   <g id="patch_2">
    <path d="M 50.14375 273.312 
L 407.26375 273.312 
L 407.26375 7.2 
L 50.14375 7.2 
z
" style="fill:#ffffff;"/>
   </g>
   <g id="patch_3">
    <path clip-path="url(#pfe76886ba2)" d="M 68.078988 273.312 
L 69.693723 273.312 
L 69.693723 272.70423 
L 68.078988 272.70423 
z
" style="fill:#1f77b4;"/>
   </g>
   <g id="patch_4">
    <path clip-path="url(#pfe76886ba2)" d="M 69.693723 273.312 
L 71.308457 273.312 
L 71.308457 269.665381 
L 69.693723 269.665381 
z
" style="fill:#1f77b4;"/>
   </g>
   <g id="patch_5">
    <path clip-path="url(#pfe76886ba2)" d="M 71.308457 273.312 
L 72.923191 273.312 
L 72.923191 270.273151 
L 71.308457 270.273151 
z
" style="fill:#1f77b4;"/>
   </g>
   <g id="patch_6">
    <path clip-path="url(#pfe76886ba2)" d="M 72.923191 273.312 
L 74.537926 273.312 
L 74.537926 269.665381 
L 72.923191 269.665381 
z
" style="fill:#1f77b4;"/>
   </g>
   <g id="patch_7">
    <path clip-path="url(#pfe76886ba2)" d="M 74.537926 273.312 
L 76.15266 273.312 
L 76.15266 267.234302 
L 74.537926 267.234302 
z
" style="fill:#1f77b4;"/>
   </g>
   <g id="patch_8">
    <path clip-path="url(#pfe76886ba2)" d="M 76.15266 273.312 
L 77.767395 273.312 
L 77.767395 261.764374 
L 76.15266 261.764374 
z
" style="fill:#1f77b4;"/>
   </g>
   <g id="patch_9">
    <path clip-path="url(#pfe76886ba2)" d="M 77.767395 273.312 
L 79.382129 273.312 
L 79.382129 258.117755 
L 77.767395 258.117755 
z
" style="fill:#1f77b4;"/>
   </g>
   <g id="patch_10">
    <path clip-path="url(#pfe76886ba2)" d="M 79.382129 273.312 
L 80.996864 273.312 
L 80.996864 264.803223 
L 79.382129 264.803223 
z
" style="fill:#1f77b4;"/>
   </g>
   <g id="patch_11">
    <path clip-path="url(#pfe76886ba2)" d="M 80.996864 273.312 
L 82.611598 273.312 
L 82.611598 258.117755 
L 80.996864 258.117755 
z
" style="fill:#1f77b4;"/>
   </g>
   <g id="patch_12">
    <path clip-path="url(#pfe76886ba2)" d="M 82.611598 273.312 
L 84.226333 273.312 
L 84.226333 254.471137 
L 82.611598 254.471137 
z
" style="fill:#1f77b4;"/>
   </g>
   <g id="patch_13">
    <path clip-path="url(#pfe76886ba2)" d="M 84.226333 273.312 
L 85.841067 273.312 
L 85.841067 258.117755 
L 84.226333 258.117755 
z
" style="fill:#1f77b4;"/>
   </g>
   <g id="patch_14">
    <path clip-path="url(#pfe76886ba2)" d="M 85.841067 273.312 
L 87.455801 273.312 
L 87.455801 261.764374 
L 85.841067 261.764374 
z
" style="fill:#1f77b4;"/>
   </g>
   <g id="patch_15">
    <path clip-path="url(#pfe76886ba2)" d="M 87.455801 273.312 
L 89.070536 273.312 
L 89.070536 260.548835 
L 87.455801 260.548835 
z
" style="fill:#1f77b4;"/>
   </g>
   <g id="patch_16">
    <path clip-path="url(#pfe76886ba2)" d="M 89.070536 273.312 
L 90.68527 273.312 
L 90.68527 259.941065 
L 89.070536 259.941065 
z
" style="fill:#1f77b4;"/>
   </g>
   <g id="patch_17">
    <path clip-path="url(#pfe76886ba2)" d="M 90.68527 273.312 
L 92.300005 273.312 
L 92.300005 259.941065 
L 90.68527 259.941065 
z
" style="fill:#1f77b4;"/>
   </g>
   <g id="patch_18">
    <path clip-path="url(#pfe76886ba2)" d="M 92.300005 273.312 
L 93.914739 273.312 
L 93.914739 256.294446 
L 92.300005 256.294446 
z
" style="fill:#1f77b4;"/>
   </g>
   <g id="patch_19">
    <path clip-path="url(#pfe76886ba2)" d="M 93.914739 273.312 
L 95.529474 273.312 
L 95.529474 256.902216 
L 93.914739 256.902216 
z
" style="fill:#1f77b4;"/>
   </g>
   <g id="patch_20">
    <path clip-path="url(#pfe76886ba2)" d="M 95.529474 273.312 
L 97.144208 273.312 
L 97.144208 249.001209 
L 95.529474 249.001209 
z
" style="fill:#1f77b4;"/>
   </g>
   <g id="patch_21">
    <path clip-path="url(#pfe76886ba2)" d="M 97.144208 273.312 
L 98.758942 273.312 
L 98.758942 253.255597 
L 97.144208 253.255597 
z
" style="fill:#1f77b4;"/>
   </g>
   <g id="patch_22">
    <path clip-path="url(#pfe76886ba2)" d="M 98.758942 273.312 
L 100.373677 273.312 
L 100.373677 249.608978 
L 98.758942 249.608978 
z
" style="fill:#1f77b4;"/>
   </g>
   <g id="patch_23">
    <path clip-path="url(#pfe76886ba2)" d="M 100.373677 273.312 
L 101.988411 273.312 
L 101.988411 247.177899 
L 100.373677 247.177899 
z
" style="fill:#1f77b4;"/>
   </g>
   <g id="patch_24">
    <path clip-path="url(#pfe76886ba2)" d="M 101.988411 273.312 
L 103.603146 273.312 
L 103.603146 235.630273 
L 101.988411 235.630273 
z
" style="fill:#1f77b4;"/>
   </g>
   <g id="patch_25">
    <path clip-path="url(#pfe76886ba2)" d="M 103.603146 273.312 
L 105.21788 273.312 
L 105.21788 246.570129 
L 103.603146 246.570129 
z
" style="fill:#1f77b4;"/>
   </g>
   <g id="patch_26">
    <path clip-path="url(#pfe76886ba2)" d="M 105.21788 273.312 
L 106.832615 273.312 
L 106.832615 244.74682 
L 105.21788 244.74682 
z
" style="fill:#1f77b4;"/>
   </g>
   <g id="patch_27">
    <path clip-path="url(#pfe76886ba2)" d="M 106.832615 273.312 
L 108.447349 273.312 
L 108.447349 250.824518 
L 106.832615 250.824518 
z
" style="fill:#1f77b4;"/>
   </g>
   <g id="patch_28">
    <path clip-path="url(#pfe76886ba2)" d="M 108.447349 273.312 
L 110.062084 273.312 
L 110.062084 240.492432 
L 108.447349 240.492432 
z
" style="fill:#1f77b4;"/>
   </g>
   <g id="patch_29">
    <path clip-path="url(#pfe76886ba2)" d="M 110.062084 273.312 
L 111.676818 273.312 
L 111.676818 239.884662 
L 110.062084 239.884662 
z
" style="fill:#1f77b4;"/>
   </g>
   <g id="patch_30">
    <path clip-path="url(#pfe76886ba2)" d="M 111.676818 273.312 
L 113.291552 273.312 
L 113.291552 245.96236 
L 111.676818 245.96236 
z
" style="fill:#1f77b4;"/>
   </g>
   <g id="patch_31">
    <path clip-path="url(#pfe76886ba2)" d="M 113.291552 273.312 
L 114.906287 273.312 
L 114.906287 240.492432 
L 113.291552 240.492432 
z
" style="fill:#1f77b4;"/>
   </g>
   <g id="patch_32">
    <path clip-path="url(#pfe76886ba2)" d="M 114.906287 273.312 
L 116.521021 273.312 
L 116.521021 234.414734 
L 114.906287 234.414734 
z
" style="fill:#1f77b4;"/>
   </g>
   <g id="patch_33">
    <path clip-path="url(#pfe76886ba2)" d="M 116.521021 273.312 
L 118.135756 273.312 
L 118.135756 238.669122 
L 116.521021 238.669122 
z
" style="fill:#1f77b4;"/>
   </g>
   <g id="patch_34">
    <path clip-path="url(#pfe76886ba2)" d="M 118.135756 273.312 
L 119.75049 273.312 
L 119.75049 233.806964 
L 118.135756 233.806964 
z
" style="fill:#1f77b4;"/>
   </g>
   <g id="patch_35">
    <path clip-path="url(#pfe76886ba2)" d="M 119.75049 273.312 
L 121.365225 273.312 
L 121.365225 233.199194 
L 119.75049 233.199194 
z
" style="fill:#1f77b4;"/>
   </g>
   <g id="patch_36">
    <path clip-path="url(#pfe76886ba2)" d="M 121.365225 273.312 
L 122.979959 273.312 
L 122.979959 234.414734 
L 121.365225 234.414734 
z
" style="fill:#1f77b4;"/>
   </g>
   <g id="patch_37">
    <path clip-path="url(#pfe76886ba2)" d="M 122.979959 273.312 
L 124.594693 273.312 
L 124.594693 231.983655 
L 122.979959 231.983655 
z
" style="fill:#1f77b4;"/>
   </g>
   <g id="patch_38">
    <path clip-path="url(#pfe76886ba2)" d="M 124.594693 273.312 
L 126.209428 273.312 
L 126.209428 237.453583 
L 124.594693 237.453583 
z
" style="fill:#1f77b4;"/>
   </g>
   <g id="patch_39">
    <path clip-path="url(#pfe76886ba2)" d="M 126.209428 273.312 
L 127.824162 273.312 
L 127.824162 222.259338 
L 126.209428 222.259338 
z
" style="fill:#1f77b4;"/>
   </g>
   <g id="patch_40">
    <path clip-path="url(#pfe76886ba2)" d="M 127.824162 273.312 
L 129.438897 273.312 
L 129.438897 225.905957 
L 127.824162 225.905957 
z
" style="fill:#1f77b4;"/>
   </g>
   <g id="patch_41">
    <path clip-path="url(#pfe76886ba2)" d="M 129.438897 273.312 
L 131.053631 273.312 
L 131.053631 223.474878 
L 129.438897 223.474878 
z
" style="fill:#1f77b4;"/>
   </g>
   <g id="patch_42">
    <path clip-path="url(#pfe76886ba2)" d="M 131.053631 273.312 
L 132.668366 273.312 
L 132.668366 228.337036 
L 131.053631 228.337036 
z
" style="fill:#1f77b4;"/>
   </g>
   <g id="patch_43">
    <path clip-path="url(#pfe76886ba2)" d="M 132.668366 273.312 
L 134.2831 273.312 
L 134.2831 231.983655 
L 132.668366 231.983655 
z
" style="fill:#1f77b4;"/>
   </g>
   <g id="patch_44">
    <path clip-path="url(#pfe76886ba2)" d="M 134.2831 273.312 
L 135.897834 273.312 
L 135.897834 230.768115 
L 134.2831 230.768115 
z
" style="fill:#1f77b4;"/>
   </g>
   <g id="patch_45">
    <path clip-path="url(#pfe76886ba2)" d="M 135.897834 273.312 
L 137.512569 273.312 
L 137.512569 214.358331 
L 135.897834 214.358331 
z
" style="fill:#1f77b4;"/>
   </g>
   <g id="patch_46">
    <path clip-path="url(#pfe76886ba2)" d="M 137.512569 273.312 
L 139.127303 273.312 
L 139.127303 222.259338 
L 137.512569 222.259338 
z
" style="fill:#1f77b4;"/>
   </g>
   <g id="patch_47">
    <path clip-path="url(#pfe76886ba2)" d="M 139.127303 273.312 
L 140.742038 273.312 
L 140.742038 227.121496 
L 139.127303 227.121496 
z
" style="fill:#1f77b4;"/>
   </g>
   <g id="patch_48">
    <path clip-path="url(#pfe76886ba2)" d="M 140.742038 273.312 
L 142.356772 273.312 
L 142.356772 225.905957 
L 140.742038 225.905957 
z
" style="fill:#1f77b4;"/>
   </g>
   <g id="patch_49">
    <path clip-path="url(#pfe76886ba2)" d="M 142.356772 273.312 
L 143.971507 273.312 
L 143.971507 226.513727 
L 142.356772 226.513727 
z
" style="fill:#1f77b4;"/>
   </g>
   <g id="patch_50">
    <path clip-path="url(#pfe76886ba2)" d="M 143.971507 273.312 
L 145.586241 273.312 
L 145.586241 228.337036 
L 143.971507 228.337036 
z
" style="fill:#1f77b4;"/>
   </g>
   <g id="patch_51">
    <path clip-path="url(#pfe76886ba2)" d="M 145.586241 273.312 
L 147.200976 273.312 
L 147.200976 221.651568 
L 145.586241 221.651568 
z
" style="fill:#1f77b4;"/>
   </g>
   <g id="patch_52">
    <path clip-path="url(#pfe76886ba2)" d="M 147.200976 273.312 
L 148.81571 273.312 
L 148.81571 213.750561 
L 147.200976 213.750561 
z
" style="fill:#1f77b4;"/>
   </g>
   <g id="patch_53">
    <path clip-path="url(#pfe76886ba2)" d="M 148.81571 273.312 
L 150.430444 273.312 
L 150.430444 208.280633 
L 148.81571 208.280633 
z
" style="fill:#1f77b4;"/>
   </g>
   <g id="patch_54">
    <path clip-path="url(#pfe76886ba2)" d="M 150.430444 273.312 
L 152.045179 273.312 
L 152.045179 208.888403 
L 150.430444 208.888403 
z
" style="fill:#1f77b4;"/>
   </g>
   <g id="patch_55">
    <path clip-path="url(#pfe76886ba2)" d="M 152.045179 273.312 
L 153.659913 273.312 
L 153.659913 194.909698 
L 152.045179 194.909698 
z
" style="fill:#1f77b4;"/>
   </g>
   <g id="patch_56">
    <path clip-path="url(#pfe76886ba2)" d="M 153.659913 273.312 
L 155.274648 273.312 
L 155.274648 218.00495 
L 153.659913 218.00495 
z
" style="fill:#1f77b4;"/>
   </g>
   <g id="patch_57">
    <path clip-path="url(#pfe76886ba2)" d="M 155.274648 273.312 
L 156.889382 273.312 
L 156.889382 216.18164 
L 155.274648 216.18164 
z
" style="fill:#1f77b4;"/>
   </g>
   <g id="patch_58">
    <path clip-path="url(#pfe76886ba2)" d="M 156.889382 273.312 
L 158.504117 273.312 
L 158.504117 207.672863 
L 156.889382 207.672863 
z
" style="fill:#1f77b4;"/>
   </g>
   <g id="patch_59">
    <path clip-path="url(#pfe76886ba2)" d="M 158.504117 273.312 
L 160.118851 273.312 
L 160.118851 199.164086 
L 158.504117 199.164086 
z
" style="fill:#1f77b4;"/>
   </g>
   <g id="patch_60">
    <path clip-path="url(#pfe76886ba2)" d="M 160.118851 273.312 
L 161.733585 273.312 
L 161.733585 219.828259 
L 160.118851 219.828259 
z
" style="fill:#1f77b4;"/>
   </g>
   <g id="patch_61">
    <path clip-path="url(#pfe76886ba2)" d="M 161.733585 273.312 
L 163.34832 273.312 
L 163.34832 200.987396 
L 161.733585 200.987396 
z
" style="fill:#1f77b4;"/>
   </g>
   <g id="patch_62">
    <path clip-path="url(#pfe76886ba2)" d="M 163.34832 273.312 
L 164.963054 273.312 
L 164.963054 199.164086 
L 163.34832 199.164086 
z
" style="fill:#1f77b4;"/>
   </g>
   <g id="patch_63">
    <path clip-path="url(#pfe76886ba2)" d="M 164.963054 273.312 
L 166.577789 273.312 
L 166.577789 198.556317 
L 164.963054 198.556317 
z
" style="fill:#1f77b4;"/>
   </g>
   <g id="patch_64">
    <path clip-path="url(#pfe76886ba2)" d="M 166.577789 273.312 
L 168.192523 273.312 
L 168.192523 206.457324 
L 166.577789 206.457324 
z
" style="fill:#1f77b4;"/>
   </g>
   <g id="patch_65">
    <path clip-path="url(#pfe76886ba2)" d="M 168.192523 273.312 
L 169.807258 273.312 
L 169.807258 172.422216 
L 168.192523 172.422216 
z
" style="fill:#1f77b4;"/>
   </g>
   <g id="patch_66">
    <path clip-path="url(#pfe76886ba2)" d="M 169.807258 273.312 
L 171.421992 273.312 
L 171.421992 186.400921 
L 169.807258 186.400921 
z
" style="fill:#1f77b4;"/>
   </g>
   <g id="patch_67">
    <path clip-path="url(#pfe76886ba2)" d="M 171.421992 273.312 
L 173.036727 273.312 
L 173.036727 199.771856 
L 171.421992 199.771856 
z
" style="fill:#1f77b4;"/>
   </g>
   <g id="patch_68">
    <path clip-path="url(#pfe76886ba2)" d="M 173.036727 273.312 
L 174.651461 273.312 
L 174.651461 201.595165 
L 173.036727 201.595165 
z
" style="fill:#1f77b4;"/>
   </g>
   <g id="patch_69">
    <path clip-path="url(#pfe76886ba2)" d="M 174.651461 273.312 
L 176.266195 273.312 
L 176.266195 193.086388 
L 174.651461 193.086388 
z
" style="fill:#1f77b4;"/>
   </g>
   <g id="patch_70">
    <path clip-path="url(#pfe76886ba2)" d="M 176.266195 273.312 
L 177.88093 273.312 
L 177.88093 191.263079 
L 176.266195 191.263079 
z
" style="fill:#1f77b4;"/>
   </g>
   <g id="patch_71">
    <path clip-path="url(#pfe76886ba2)" d="M 177.88093 273.312 
L 179.495664 273.312 
L 179.495664 191.263079 
L 177.88093 191.263079 
z
" style="fill:#1f77b4;"/>
   </g>
   <g id="patch_72">
    <path clip-path="url(#pfe76886ba2)" d="M 179.495664 273.312 
L 181.110399 273.312 
L 181.110399 185.185381 
L 179.495664 185.185381 
z
" style="fill:#1f77b4;"/>
   </g>
   <g id="patch_73">
    <path clip-path="url(#pfe76886ba2)" d="M 181.110399 273.312 
L 182.725133 273.312 
L 182.725133 191.263079 
L 181.110399 191.263079 
z
" style="fill:#1f77b4;"/>
   </g>
   <g id="patch_74">
    <path clip-path="url(#pfe76886ba2)" d="M 182.725133 273.312 
L 184.339868 273.312 
L 184.339868 190.04754 
L 182.725133 190.04754 
z
" style="fill:#1f77b4;"/>
   </g>
   <g id="patch_75">
    <path clip-path="url(#pfe76886ba2)" d="M 184.339868 273.312 
L 185.954602 273.312 
L 185.954602 191.870849 
L 184.339868 191.870849 
z
" style="fill:#1f77b4;"/>
   </g>
   <g id="patch_76">
    <path clip-path="url(#pfe76886ba2)" d="M 185.954602 273.312 
L 187.569336 273.312 
L 187.569336 181.538763 
L 185.954602 181.538763 
z
" style="fill:#1f77b4;"/>
   </g>
   <g id="patch_77">
    <path clip-path="url(#pfe76886ba2)" d="M 187.569336 273.312 
L 189.184071 273.312 
L 189.184071 193.086388 
L 187.569336 193.086388 
z
" style="fill:#1f77b4;"/>
   </g>
   <g id="patch_78">
    <path clip-path="url(#pfe76886ba2)" d="M 189.184071 273.312 
L 190.798805 273.312 
L 190.798805 177.284374 
L 189.184071 177.284374 
z
" style="fill:#1f77b4;"/>
   </g>
   <g id="patch_79">
    <path clip-path="url(#pfe76886ba2)" d="M 190.798805 273.312 
L 192.41354 273.312 
L 192.41354 177.284374 
L 190.798805 177.284374 
z
" style="fill:#1f77b4;"/>
   </g>
   <g id="patch_80">
    <path clip-path="url(#pfe76886ba2)" d="M 192.41354 273.312 
L 194.028274 273.312 
L 194.028274 176.676604 
L 192.41354 176.676604 
z
" style="fill:#1f77b4;"/>
   </g>
   <g id="patch_81">
    <path clip-path="url(#pfe76886ba2)" d="M 194.028274 273.312 
L 195.643009 273.312 
L 195.643009 178.499914 
L 194.028274 178.499914 
z
" style="fill:#1f77b4;"/>
   </g>
   <g id="patch_82">
    <path clip-path="url(#pfe76886ba2)" d="M 195.643009 273.312 
L 197.257743 273.312 
L 197.257743 166.952288 
L 195.643009 166.952288 
z
" style="fill:#1f77b4;"/>
   </g>
   <g id="patch_83">
    <path clip-path="url(#pfe76886ba2)" d="M 197.257743 273.312 
L 198.872478 273.312 
L 198.872478 180.323223 
L 197.257743 180.323223 
z
" style="fill:#1f77b4;"/>
   </g>
   <g id="patch_84">
    <path clip-path="url(#pfe76886ba2)" d="M 198.872478 273.312 
L 200.487212 273.312 
L 200.487212 168.167827 
L 198.872478 168.167827 
z
" style="fill:#1f77b4;"/>
   </g>
   <g id="patch_85">
    <path clip-path="url(#pfe76886ba2)" d="M 200.487212 273.312 
L 202.101946 273.312 
L 202.101946 174.245525 
L 200.487212 174.245525 
z
" style="fill:#1f77b4;"/>
   </g>
   <g id="patch_86">
    <path clip-path="url(#pfe76886ba2)" d="M 202.101946 273.312 
L 203.716681 273.312 
L 203.716681 163.913439 
L 202.101946 163.913439 
z
" style="fill:#1f77b4;"/>
   </g>
   <g id="patch_87">
    <path clip-path="url(#pfe76886ba2)" d="M 203.716681 273.312 
L 205.331415 273.312 
L 205.331415 182.146532 
L 203.716681 182.146532 
z
" style="fill:#1f77b4;"/>
   </g>
   <g id="patch_88">
    <path clip-path="url(#pfe76886ba2)" d="M 205.331415 273.312 
L 206.94615 273.312 
L 206.94615 170.598906 
L 205.331415 170.598906 
z
" style="fill:#1f77b4;"/>
   </g>
   <g id="patch_89">
    <path clip-path="url(#pfe76886ba2)" d="M 206.94615 273.312 
L 208.560884 273.312 
L 208.560884 174.853295 
L 206.94615 174.853295 
z
" style="fill:#1f77b4;"/>
   </g>
   <g id="patch_90">
    <path clip-path="url(#pfe76886ba2)" d="M 208.560884 273.312 
L 210.175619 273.312 
L 210.175619 165.128978 
L 208.560884 165.128978 
z
" style="fill:#1f77b4;"/>
   </g>
   <g id="patch_91">
    <path clip-path="url(#pfe76886ba2)" d="M 210.175619 273.312 
L 211.790353 273.312 
L 211.790353 173.637755 
L 210.175619 173.637755 
z
" style="fill:#1f77b4;"/>
   </g>
   <g id="patch_92">
    <path clip-path="url(#pfe76886ba2)" d="M 211.790353 273.312 
L 213.405087 273.312 
L 213.405087 169.383367 
L 211.790353 169.383367 
z
" style="fill:#1f77b4;"/>
   </g>
   <g id="patch_93">
    <path clip-path="url(#pfe76886ba2)" d="M 213.405087 273.312 
L 215.019822 273.312 
L 215.019822 160.26682 
L 213.405087 160.26682 
z
" style="fill:#1f77b4;"/>
   </g>
   <g id="patch_94">
    <path clip-path="url(#pfe76886ba2)" d="M 215.019822 273.312 
L 216.634556 273.312 
L 216.634556 156.620201 
L 215.019822 156.620201 
z
" style="fill:#1f77b4;"/>
   </g>
   <g id="patch_95">
    <path clip-path="url(#pfe76886ba2)" d="M 216.634556 273.312 
L 218.249291 273.312 
L 218.249291 171.206676 
L 216.634556 171.206676 
z
" style="fill:#1f77b4;"/>
   </g>
   <g id="patch_96">
    <path clip-path="url(#pfe76886ba2)" d="M 218.249291 273.312 
L 219.864025 273.312 
L 219.864025 163.305669 
L 218.249291 163.305669 
z
" style="fill:#1f77b4;"/>
   </g>
   <g id="patch_97">
    <path clip-path="url(#pfe76886ba2)" d="M 219.864025 273.312 
L 221.47876 273.312 
L 221.47876 158.443511 
L 219.864025 158.443511 
z
" style="fill:#1f77b4;"/>
   </g>
   <g id="patch_98">
    <path clip-path="url(#pfe76886ba2)" d="M 221.47876 273.312 
L 223.093494 273.312 
L 223.093494 134.740489 
L 221.47876 134.740489 
z
" style="fill:#1f77b4;"/>
   </g>
   <g id="patch_99">
    <path clip-path="url(#pfe76886ba2)" d="M 223.093494 273.312 
L 224.708229 273.312 
L 224.708229 166.952288 
L 223.093494 166.952288 
z
" style="fill:#1f77b4;"/>
   </g>
   <g id="patch_100">
    <path clip-path="url(#pfe76886ba2)" d="M 224.708229 273.312 
L 226.322963 273.312 
L 226.322963 142.033727 
L 224.708229 142.033727 
z
" style="fill:#1f77b4;"/>
   </g>
   <g id="patch_101">
    <path clip-path="url(#pfe76886ba2)" d="M 226.322963 273.312 
L 227.937697 273.312 
L 227.937697 152.365813 
L 226.322963 152.365813 
z
" style="fill:#1f77b4;"/>
   </g>
   <g id="patch_102">
    <path clip-path="url(#pfe76886ba2)" d="M 227.937697 273.312 
L 229.552432 273.312 
L 229.552432 128.662791 
L 227.937697 128.662791 
z
" style="fill:#1f77b4;"/>
   </g>
   <g id="patch_103">
    <path clip-path="url(#pfe76886ba2)" d="M 229.552432 273.312 
L 231.167166 273.312 
L 231.167166 142.641496 
L 229.552432 142.641496 
z
" style="fill:#1f77b4;"/>
   </g>
   <g id="patch_104">
    <path clip-path="url(#pfe76886ba2)" d="M 231.167166 273.312 
L 232.781901 273.312 
L 232.781901 143.249266 
L 231.167166 143.249266 
z
" style="fill:#1f77b4;"/>
   </g>
   <g id="patch_105">
    <path clip-path="url(#pfe76886ba2)" d="M 232.781901 273.312 
L 234.396635 273.312 
L 234.396635 151.150273 
L 232.781901 151.150273 
z
" style="fill:#1f77b4;"/>
   </g>
   <g id="patch_106">
    <path clip-path="url(#pfe76886ba2)" d="M 234.396635 273.312 
L 236.01137 273.312 
L 236.01137 146.288115 
L 234.396635 146.288115 
z
" style="fill:#1f77b4;"/>
   </g>
   <g id="patch_107">
    <path clip-path="url(#pfe76886ba2)" d="M 236.01137 273.312 
L 237.626104 273.312 
L 237.626104 132.91718 
L 236.01137 132.91718 
z
" style="fill:#1f77b4;"/>
   </g>
   <g id="patch_108">
    <path clip-path="url(#pfe76886ba2)" d="M 237.626104 273.312 
L 239.240838 273.312 
L 239.240838 127.447252 
L 237.626104 127.447252 
z
" style="fill:#1f77b4;"/>
   </g>
   <g id="patch_109">
    <path clip-path="url(#pfe76886ba2)" d="M 239.240838 273.312 
L 240.855573 273.312 
L 240.855573 148.111424 
L 239.240838 148.111424 
z
" style="fill:#1f77b4;"/>
   </g>
   <g id="patch_110">
    <path clip-path="url(#pfe76886ba2)" d="M 240.855573 273.312 
L 242.470307 273.312 
L 242.470307 129.270561 
L 240.855573 129.270561 
z
" style="fill:#1f77b4;"/>
   </g>
   <g id="patch_111">
    <path clip-path="url(#pfe76886ba2)" d="M 242.470307 273.312 
L 244.085042 273.312 
L 244.085042 137.171568 
L 242.470307 137.171568 
z
" style="fill:#1f77b4;"/>
   </g>
   <g id="patch_112">
    <path clip-path="url(#pfe76886ba2)" d="M 244.085042 273.312 
L 245.699776 273.312 
L 245.699776 146.288115 
L 244.085042 146.288115 
z
" style="fill:#1f77b4;"/>
   </g>
   <g id="patch_113">
    <path clip-path="url(#pfe76886ba2)" d="M 245.699776 273.312 
L 247.314511 273.312 
L 247.314511 137.171568 
L 245.699776 137.171568 
z
" style="fill:#1f77b4;"/>
   </g>
   <g id="patch_114">
    <path clip-path="url(#pfe76886ba2)" d="M 247.314511 273.312 
L 248.929245 273.312 
L 248.929245 151.758043 
L 247.314511 151.758043 
z
" style="fill:#1f77b4;"/>
   </g>
   <g id="patch_115">
    <path clip-path="url(#pfe76886ba2)" d="M 248.929245 273.312 
L 250.54398 273.312 
L 250.54398 131.70164 
L 248.929245 131.70164 
z
" style="fill:#1f77b4;"/>
   </g>
   <g id="patch_116">
    <path clip-path="url(#pfe76886ba2)" d="M 250.54398 273.312 
L 252.158714 273.312 
L 252.158714 121.977324 
L 250.54398 121.977324 
z
" style="fill:#1f77b4;"/>
   </g>
   <g id="patch_117">
    <path clip-path="url(#pfe76886ba2)" d="M 252.158714 273.312 
L 253.773448 273.312 
L 253.773448 114.684086 
L 252.158714 114.684086 
z
" style="fill:#1f77b4;"/>
   </g>
   <g id="patch_118">
    <path clip-path="url(#pfe76886ba2)" d="M 253.773448 273.312 
L 255.388183 273.312 
L 255.388183 126.839482 
L 253.773448 126.839482 
z
" style="fill:#1f77b4;"/>
   </g>
   <g id="patch_119">
    <path clip-path="url(#pfe76886ba2)" d="M 255.388183 273.312 
L 257.002917 273.312 
L 257.002917 118.938475 
L 255.388183 118.938475 
z
" style="fill:#1f77b4;"/>
   </g>
   <g id="patch_120">
    <path clip-path="url(#pfe76886ba2)" d="M 257.002917 273.312 
L 258.617652 273.312 
L 258.617652 131.093871 
L 257.002917 131.093871 
z
" style="fill:#1f77b4;"/>
   </g>
   <g id="patch_121">
    <path clip-path="url(#pfe76886ba2)" d="M 258.617652 273.312 
L 260.232386 273.312 
L 260.232386 138.994878 
L 258.617652 138.994878 
z
" style="fill:#1f77b4;"/>
   </g>
   <g id="patch_122">
    <path clip-path="url(#pfe76886ba2)" d="M 260.232386 273.312 
L 261.847121 273.312 
L 261.847121 132.30941 
L 260.232386 132.30941 
z
" style="fill:#1f77b4;"/>
   </g>
   <g id="patch_123">
    <path clip-path="url(#pfe76886ba2)" d="M 261.847121 273.312 
L 263.461855 273.312 
L 263.461855 116.507396 
L 261.847121 116.507396 
z
" style="fill:#1f77b4;"/>
   </g>
   <g id="patch_124">
    <path clip-path="url(#pfe76886ba2)" d="M 263.461855 273.312 
L 265.076589 273.312 
L 265.076589 116.507396 
L 263.461855 116.507396 
z
" style="fill:#1f77b4;"/>
   </g>
   <g id="patch_125">
    <path clip-path="url(#pfe76886ba2)" d="M 265.076589 273.312 
L 266.691324 273.312 
L 266.691324 123.192863 
L 265.076589 123.192863 
z
" style="fill:#1f77b4;"/>
   </g>
   <g id="patch_126">
    <path clip-path="url(#pfe76886ba2)" d="M 266.691324 273.312 
L 268.306058 273.312 
L 268.306058 125.016173 
L 266.691324 125.016173 
z
" style="fill:#1f77b4;"/>
   </g>
   <g id="patch_127">
    <path clip-path="url(#pfe76886ba2)" d="M 268.306058 273.312 
L 269.920793 273.312 
L 269.920793 140.818187 
L 268.306058 140.818187 
z
" style="fill:#1f77b4;"/>
   </g>
   <g id="patch_128">
    <path clip-path="url(#pfe76886ba2)" d="M 269.920793 273.312 
L 271.535527 273.312 
L 271.535527 131.70164 
L 269.920793 131.70164 
z
" style="fill:#1f77b4;"/>
   </g>
   <g id="patch_129">
    <path clip-path="url(#pfe76886ba2)" d="M 271.535527 273.312 
L 273.150262 273.312 
L 273.150262 109.821928 
L 271.535527 109.821928 
z
" style="fill:#1f77b4;"/>
   </g>
   <g id="patch_130">
    <path clip-path="url(#pfe76886ba2)" d="M 273.150262 273.312 
L 274.764996 273.312 
L 274.764996 108.606388 
L 273.150262 108.606388 
z
" style="fill:#1f77b4;"/>
   </g>
   <g id="patch_131">
    <path clip-path="url(#pfe76886ba2)" d="M 274.764996 273.312 
L 276.379731 273.312 
L 276.379731 114.076317 
L 274.764996 114.076317 
z
" style="fill:#1f77b4;"/>
   </g>
   <g id="patch_132">
    <path clip-path="url(#pfe76886ba2)" d="M 276.379731 273.312 
L 277.994465 273.312 
L 277.994465 112.860777 
L 276.379731 112.860777 
z
" style="fill:#1f77b4;"/>
   </g>
   <g id="patch_133">
    <path clip-path="url(#pfe76886ba2)" d="M 277.994465 273.312 
L 279.609199 273.312 
L 279.609199 128.055022 
L 277.994465 128.055022 
z
" style="fill:#1f77b4;"/>
   </g>
   <g id="patch_134">
    <path clip-path="url(#pfe76886ba2)" d="M 279.609199 273.312 
L 281.223934 273.312 
L 281.223934 98.274302 
L 279.609199 98.274302 
z
" style="fill:#1f77b4;"/>
   </g>
   <g id="patch_135">
    <path clip-path="url(#pfe76886ba2)" d="M 281.223934 273.312 
L 282.838668 273.312 
L 282.838668 105.56754 
L 281.223934 105.56754 
z
" style="fill:#1f77b4;"/>
   </g>
   <g id="patch_136">
    <path clip-path="url(#pfe76886ba2)" d="M 282.838668 273.312 
L 284.453403 273.312 
L 284.453403 102.528691 
L 282.838668 102.528691 
z
" style="fill:#1f77b4;"/>
   </g>
   <g id="patch_137">
    <path clip-path="url(#pfe76886ba2)" d="M 284.453403 273.312 
L 286.068137 273.312 
L 286.068137 111.037468 
L 284.453403 111.037468 
z
" style="fill:#1f77b4;"/>
   </g>
   <g id="patch_138">
    <path clip-path="url(#pfe76886ba2)" d="M 286.068137 273.312 
L 287.682872 273.312 
L 287.682872 103.74423 
L 286.068137 103.74423 
z
" style="fill:#1f77b4;"/>
   </g>
   <g id="patch_139">
    <path clip-path="url(#pfe76886ba2)" d="M 287.682872 273.312 
L 289.297606 273.312 
L 289.297606 117.722935 
L 287.682872 117.722935 
z
" style="fill:#1f77b4;"/>
   </g>
   <g id="patch_140">
    <path clip-path="url(#pfe76886ba2)" d="M 289.297606 273.312 
L 290.91234 273.312 
L 290.91234 115.899626 
L 289.297606 115.899626 
z
" style="fill:#1f77b4;"/>
   </g>
   <g id="patch_141">
    <path clip-path="url(#pfe76886ba2)" d="M 290.91234 273.312 
L 292.527075 273.312 
L 292.527075 100.705381 
L 290.91234 100.705381 
z
" style="fill:#1f77b4;"/>
   </g>
   <g id="patch_142">
    <path clip-path="url(#pfe76886ba2)" d="M 292.527075 273.312 
L 294.141809 273.312 
L 294.141809 112.860777 
L 292.527075 112.860777 
z
" style="fill:#1f77b4;"/>
   </g>
   <g id="patch_143">
    <path clip-path="url(#pfe76886ba2)" d="M 294.141809 273.312 
L 295.756544 273.312 
L 295.756544 121.369554 
L 294.141809 121.369554 
z
" style="fill:#1f77b4;"/>
   </g>
   <g id="patch_144">
    <path clip-path="url(#pfe76886ba2)" d="M 295.756544 273.312 
L 297.371278 273.312 
L 297.371278 111.645237 
L 295.756544 111.645237 
z
" style="fill:#1f77b4;"/>
   </g>
   <g id="patch_145">
    <path clip-path="url(#pfe76886ba2)" d="M 297.371278 273.312 
L 298.986013 273.312 
L 298.986013 89.765525 
L 297.371278 89.765525 
z
" style="fill:#1f77b4;"/>
   </g>
   <g id="patch_146">
    <path clip-path="url(#pfe76886ba2)" d="M 298.986013 273.312 
L 300.600747 273.312 
L 300.600747 89.765525 
L 298.986013 89.765525 
z
" style="fill:#1f77b4;"/>
   </g>
   <g id="patch_147">
    <path clip-path="url(#pfe76886ba2)" d="M 300.600747 273.312 
L 302.215482 273.312 
L 302.215482 96.450993 
L 300.600747 96.450993 
z
" style="fill:#1f77b4;"/>
   </g>
   <g id="patch_148">
    <path clip-path="url(#pfe76886ba2)" d="M 302.215482 273.312 
L 303.830216 273.312 
L 303.830216 96.450993 
L 302.215482 96.450993 
z
" style="fill:#1f77b4;"/>
   </g>
   <g id="patch_149">
    <path clip-path="url(#pfe76886ba2)" d="M 303.830216 273.312 
L 305.44495 273.312 
L 305.44495 107.998619 
L 303.830216 107.998619 
z
" style="fill:#1f77b4;"/>
   </g>
   <g id="patch_150">
    <path clip-path="url(#pfe76886ba2)" d="M 305.44495 273.312 
L 307.059685 273.312 
L 307.059685 87.942216 
L 305.44495 87.942216 
z
" style="fill:#1f77b4;"/>
   </g>
   <g id="patch_151">
    <path clip-path="url(#pfe76886ba2)" d="M 307.059685 273.312 
L 308.674419 273.312 
L 308.674419 95.235453 
L 307.059685 95.235453 
z
" style="fill:#1f77b4;"/>
   </g>
   <g id="patch_152">
    <path clip-path="url(#pfe76886ba2)" d="M 308.674419 273.312 
L 310.289154 273.312 
L 310.289154 108.606388 
L 308.674419 108.606388 
z
" style="fill:#1f77b4;"/>
   </g>
   <g id="patch_153">
    <path clip-path="url(#pfe76886ba2)" d="M 310.289154 273.312 
L 311.903888 273.312 
L 311.903888 85.511137 
L 310.289154 85.511137 
z
" style="fill:#1f77b4;"/>
   </g>
   <g id="patch_154">
    <path clip-path="url(#pfe76886ba2)" d="M 311.903888 273.312 
L 313.518623 273.312 
L 313.518623 93.412144 
L 311.903888 93.412144 
z
" style="fill:#1f77b4;"/>
   </g>
   <g id="patch_155">
    <path clip-path="url(#pfe76886ba2)" d="M 313.518623 273.312 
L 315.133357 273.312 
L 315.133357 87.942216 
L 313.518623 87.942216 
z
" style="fill:#1f77b4;"/>
   </g>
   <g id="patch_156">
    <path clip-path="url(#pfe76886ba2)" d="M 315.133357 273.312 
L 316.748091 273.312 
L 316.748091 97.666532 
L 315.133357 97.666532 
z
" style="fill:#1f77b4;"/>
   </g>
   <g id="patch_157">
    <path clip-path="url(#pfe76886ba2)" d="M 316.748091 273.312 
L 318.362826 273.312 
L 318.362826 112.860777 
L 316.748091 112.860777 
z
" style="fill:#1f77b4;"/>
   </g>
   <g id="patch_158">
    <path clip-path="url(#pfe76886ba2)" d="M 318.362826 273.312 
L 319.97756 273.312 
L 319.97756 72.140201 
L 318.362826 72.140201 
z
" style="fill:#1f77b4;"/>
   </g>
   <g id="patch_159">
    <path clip-path="url(#pfe76886ba2)" d="M 319.97756 273.312 
L 321.592295 273.312 
L 321.592295 77.00236 
L 319.97756 77.00236 
z
" style="fill:#1f77b4;"/>
   </g>
   <g id="patch_160">
    <path clip-path="url(#pfe76886ba2)" d="M 321.592295 273.312 
L 323.207029 273.312 
L 323.207029 91.588835 
L 321.592295 91.588835 
z
" style="fill:#1f77b4;"/>
   </g>
   <g id="patch_161">
    <path clip-path="url(#pfe76886ba2)" d="M 323.207029 273.312 
L 324.821764 273.312 
L 324.821764 68.493583 
L 323.207029 68.493583 
z
" style="fill:#1f77b4;"/>
   </g>
   <g id="patch_162">
    <path clip-path="url(#pfe76886ba2)" d="M 324.821764 273.312 
L 326.436498 273.312 
L 326.436498 94.019914 
L 324.821764 94.019914 
z
" style="fill:#1f77b4;"/>
   </g>
   <g id="patch_163">
    <path clip-path="url(#pfe76886ba2)" d="M 326.436498 273.312 
L 328.051233 273.312 
L 328.051233 75.78682 
L 326.436498 75.78682 
z
" style="fill:#1f77b4;"/>
   </g>
   <g id="patch_164">
    <path clip-path="url(#pfe76886ba2)" d="M 328.051233 273.312 
L 329.665967 273.312 
L 329.665967 77.00236 
L 328.051233 77.00236 
z
" style="fill:#1f77b4;"/>
   </g>
   <g id="patch_165">
    <path clip-path="url(#pfe76886ba2)" d="M 329.665967 273.312 
L 331.280701 273.312 
L 331.280701 68.493583 
L 329.665967 68.493583 
z
" style="fill:#1f77b4;"/>
   </g>
   <g id="patch_166">
    <path clip-path="url(#pfe76886ba2)" d="M 331.280701 273.312 
L 332.895436 273.312 
L 332.895436 84.295597 
L 331.280701 84.295597 
z
" style="fill:#1f77b4;"/>
   </g>
   <g id="patch_167">
    <path clip-path="url(#pfe76886ba2)" d="M 332.895436 273.312 
L 334.51017 273.312 
L 334.51017 85.511137 
L 332.895436 85.511137 
z
" style="fill:#1f77b4;"/>
   </g>
   <g id="patch_168">
    <path clip-path="url(#pfe76886ba2)" d="M 334.51017 273.312 
L 336.124905 273.312 
L 336.124905 87.334446 
L 334.51017 87.334446 
z
" style="fill:#1f77b4;"/>
   </g>
   <g id="patch_169">
    <path clip-path="url(#pfe76886ba2)" d="M 336.124905 273.312 
L 337.739639 273.312 
L 337.739639 75.78682 
L 336.124905 75.78682 
z
" style="fill:#1f77b4;"/>
   </g>
   <g id="patch_170">
    <path clip-path="url(#pfe76886ba2)" d="M 337.739639 273.312 
L 339.354374 273.312 
L 339.354374 70.316892 
L 337.739639 70.316892 
z
" style="fill:#1f77b4;"/>
   </g>
   <g id="patch_171">
    <path clip-path="url(#pfe76886ba2)" d="M 339.354374 273.312 
L 340.969108 273.312 
L 340.969108 71.532432 
L 339.354374 71.532432 
z
" style="fill:#1f77b4;"/>
   </g>
   <g id="patch_172">
    <path clip-path="url(#pfe76886ba2)" d="M 340.969108 273.312 
L 342.583842 273.312 
L 342.583842 80.648978 
L 340.969108 80.648978 
z
" style="fill:#1f77b4;"/>
   </g>
   <g id="patch_173">
    <path clip-path="url(#pfe76886ba2)" d="M 342.583842 273.312 
L 344.198577 273.312 
L 344.198577 52.691568 
L 342.583842 52.691568 
z
" style="fill:#1f77b4;"/>
   </g>
   <g id="patch_174">
    <path clip-path="url(#pfe76886ba2)" d="M 344.198577 273.312 
L 345.813311 273.312 
L 345.813311 65.454734 
L 344.198577 65.454734 
z
" style="fill:#1f77b4;"/>
   </g>
   <g id="patch_175">
    <path clip-path="url(#pfe76886ba2)" d="M 345.813311 273.312 
L 347.428046 273.312 
L 347.428046 47.82941 
L 345.813311 47.82941 
z
" style="fill:#1f77b4;"/>
   </g>
   <g id="patch_176">
    <path clip-path="url(#pfe76886ba2)" d="M 347.428046 273.312 
L 349.04278 273.312 
L 349.04278 79.433439 
L 347.428046 79.433439 
z
" style="fill:#1f77b4;"/>
   </g>
   <g id="patch_177">
    <path clip-path="url(#pfe76886ba2)" d="M 349.04278 273.312 
L 350.657515 273.312 
L 350.657515 56.338187 
L 349.04278 56.338187 
z
" style="fill:#1f77b4;"/>
   </g>
   <g id="patch_178">
    <path clip-path="url(#pfe76886ba2)" d="M 350.657515 273.312 
L 352.272249 273.312 
L 352.272249 46.613871 
L 350.657515 46.613871 
z
" style="fill:#1f77b4;"/>
   </g>
   <g id="patch_179">
    <path clip-path="url(#pfe76886ba2)" d="M 352.272249 273.312 
L 353.886984 273.312 
L 353.886984 67.278043 
L 352.272249 67.278043 
z
" style="fill:#1f77b4;"/>
   </g>
   <g id="patch_180">
    <path clip-path="url(#pfe76886ba2)" d="M 353.886984 273.312 
L 355.501718 273.312 
L 355.501718 41.143942 
L 353.886984 41.143942 
z
" style="fill:#1f77b4;"/>
   </g>
   <g id="patch_181">
    <path clip-path="url(#pfe76886ba2)" d="M 355.501718 273.312 
L 357.116452 273.312 
L 357.116452 47.22164 
L 355.501718 47.22164 
z
" style="fill:#1f77b4;"/>
   </g>
   <g id="patch_182">
    <path clip-path="url(#pfe76886ba2)" d="M 357.116452 273.312 
L 358.731187 273.312 
L 358.731187 59.377036 
L 357.116452 59.377036 
z
" style="fill:#1f77b4;"/>
   </g>
   <g id="patch_183">
    <path clip-path="url(#pfe76886ba2)" d="M 358.731187 273.312 
L 360.345921 273.312 
L 360.345921 39.320633 
L 358.731187 39.320633 
z
" style="fill:#1f77b4;"/>
   </g>
   <g id="patch_184">
    <path clip-path="url(#pfe76886ba2)" d="M 360.345921 273.312 
L 361.960656 273.312 
L 361.960656 49.04495 
L 360.345921 49.04495 
z
" style="fill:#1f77b4;"/>
   </g>
   <g id="patch_185">
    <path clip-path="url(#pfe76886ba2)" d="M 361.960656 273.312 
L 363.57539 273.312 
L 363.57539 44.790561 
L 361.960656 44.790561 
z
" style="fill:#1f77b4;"/>
   </g>
   <g id="patch_186">
    <path clip-path="url(#pfe76886ba2)" d="M 363.57539 273.312 
L 365.190125 273.312 
L 365.190125 71.532432 
L 363.57539 71.532432 
z
" style="fill:#1f77b4;"/>
   </g>
   <g id="patch_187">
    <path clip-path="url(#pfe76886ba2)" d="M 365.190125 273.312 
L 366.804859 273.312 
L 366.804859 62.415885 
L 365.190125 62.415885 
z
" style="fill:#1f77b4;"/>
   </g>
   <g id="patch_188">
    <path clip-path="url(#pfe76886ba2)" d="M 366.804859 273.312 
L 368.419593 273.312 
L 368.419593 40.536173 
L 366.804859 40.536173 
z
" style="fill:#1f77b4;"/>
   </g>
   <g id="patch_189">
    <path clip-path="url(#pfe76886ba2)" d="M 368.419593 273.312 
L 370.034328 273.312 
L 370.034328 53.299338 
L 368.419593 53.299338 
z
" style="fill:#1f77b4;"/>
   </g>
   <g id="patch_190">
    <path clip-path="url(#pfe76886ba2)" d="M 370.034328 273.312 
L 371.649062 273.312 
L 371.649062 51.476029 
L 370.034328 51.476029 
z
" style="fill:#1f77b4;"/>
   </g>
   <g id="patch_191">
    <path clip-path="url(#pfe76886ba2)" d="M 371.649062 273.312 
L 373.263797 273.312 
L 373.263797 22.910849 
L 371.649062 22.910849 
z
" style="fill:#1f77b4;"/>
   </g>
   <g id="patch_192">
    <path clip-path="url(#pfe76886ba2)" d="M 373.263797 273.312 
L 374.878531 273.312 
L 374.878531 61.808115 
L 373.263797 61.808115 
z
" style="fill:#1f77b4;"/>
   </g>
   <g id="patch_193">
    <path clip-path="url(#pfe76886ba2)" d="M 374.878531 273.312 
L 376.493266 273.312 
L 376.493266 42.359482 
L 374.878531 42.359482 
z
" style="fill:#1f77b4;"/>
   </g>
   <g id="patch_194">
    <path clip-path="url(#pfe76886ba2)" d="M 376.493266 273.312 
L 378.108 273.312 
L 378.108 46.006101 
L 376.493266 46.006101 
z
" style="fill:#1f77b4;"/>
   </g>
   <g id="patch_195">
    <path clip-path="url(#pfe76886ba2)" d="M 378.108 273.312 
L 379.722735 273.312 
L 379.722735 19.872 
L 378.108 19.872 
z
" style="fill:#1f77b4;"/>
   </g>
   <g id="patch_196">
    <path clip-path="url(#pfe76886ba2)" d="M 379.722735 273.312 
L 381.337469 273.312 
L 381.337469 41.143942 
L 379.722735 41.143942 
z
" style="fill:#1f77b4;"/>
   </g>
   <g id="patch_197">
    <path clip-path="url(#pfe76886ba2)" d="M 381.337469 273.312 
L 382.952203 273.312 
L 382.952203 39.928403 
L 381.337469 39.928403 
z
" style="fill:#1f77b4;"/>
   </g>
   <g id="patch_198">
    <path clip-path="url(#pfe76886ba2)" d="M 382.952203 273.312 
L 384.566938 273.312 
L 384.566938 31.419626 
L 382.952203 31.419626 
z
" style="fill:#1f77b4;"/>
   </g>
   <g id="patch_199">
    <path clip-path="url(#pfe76886ba2)" d="M 384.566938 273.312 
L 386.181672 273.312 
L 386.181672 36.889554 
L 384.566938 36.889554 
z
" style="fill:#1f77b4;"/>
   </g>
   <g id="patch_200">
    <path clip-path="url(#pfe76886ba2)" d="M 386.181672 273.312 
L 387.796407 273.312 
L 387.796407 30.204086 
L 386.181672 30.204086 
z
" style="fill:#1f77b4;"/>
   </g>
   <g id="patch_201">
    <path clip-path="url(#pfe76886ba2)" d="M 387.796407 273.312 
L 389.411141 273.312 
L 389.411141 27.165237 
L 387.796407 27.165237 
z
" style="fill:#1f77b4;"/>
   </g>
   <g id="patch_202">
    <path clip-path="url(#pfe76886ba2)" d="M 389.411141 273.312 
L 391.025876 273.312 
L 391.025876 36.889554 
L 389.411141 36.889554 
z
" style="fill:#1f77b4;"/>
   </g>
   <g id="matplotlib.axis_1">
    <g id="xtick_1">
     <g id="line2d_1">
      <defs>
       <path d="M 0 0 
L 0 3.5 
" id="m68c5444bd2" style="stroke:#000000;stroke-width:0.8;"/>
      </defs>
      <g>
       <use style="stroke:#000000;stroke-width:0.8;" x="66.376477" xlink:href="#m68c5444bd2" y="273.312"/>
      </g>
     </g>
     <g id="text_1">
      <!-- 0.0 -->
      <g transform="translate(58.424915 287.910437)scale(0.1 -0.1)">
       <defs>
        <path d="M 2034 4250 
Q 1547 4250 1301 3770 
Q 1056 3291 1056 2328 
Q 1056 1369 1301 889 
Q 1547 409 2034 409 
Q 2525 409 2770 889 
Q 3016 1369 3016 2328 
Q 3016 3291 2770 3770 
Q 2525 4250 2034 4250 
z
M 2034 4750 
Q 2819 4750 3233 4129 
Q 3647 3509 3647 2328 
Q 3647 1150 3233 529 
Q 2819 -91 2034 -91 
Q 1250 -91 836 529 
Q 422 1150 422 2328 
Q 422 3509 836 4129 
Q 1250 4750 2034 4750 
z
" id="DejaVuSans-30" transform="scale(0.015625)"/>
        <path d="M 684 794 
L 1344 794 
L 1344 0 
L 684 0 
L 684 794 
z
" id="DejaVuSans-2e" transform="scale(0.015625)"/>
       </defs>
       <use xlink:href="#DejaVuSans-30"/>
       <use x="63.623047" xlink:href="#DejaVuSans-2e"/>
       <use x="95.410156" xlink:href="#DejaVuSans-30"/>
      </g>
     </g>
    </g>
    <g id="xtick_2">
     <g id="line2d_2">
      <g>
       <use style="stroke:#000000;stroke-width:0.8;" x="131.307386" xlink:href="#m68c5444bd2" y="273.312"/>
      </g>
     </g>
     <g id="text_2">
      <!-- 0.2 -->
      <g transform="translate(123.355824 287.910437)scale(0.1 -0.1)">
       <defs>
        <path d="M 1228 531 
L 3431 531 
L 3431 0 
L 469 0 
L 469 531 
Q 828 903 1448 1529 
Q 2069 2156 2228 2338 
Q 2531 2678 2651 2914 
Q 2772 3150 2772 3378 
Q 2772 3750 2511 3984 
Q 2250 4219 1831 4219 
Q 1534 4219 1204 4116 
Q 875 4013 500 3803 
L 500 4441 
Q 881 4594 1212 4672 
Q 1544 4750 1819 4750 
Q 2544 4750 2975 4387 
Q 3406 4025 3406 3419 
Q 3406 3131 3298 2873 
Q 3191 2616 2906 2266 
Q 2828 2175 2409 1742 
Q 1991 1309 1228 531 
z
" id="DejaVuSans-32" transform="scale(0.015625)"/>
       </defs>
       <use xlink:href="#DejaVuSans-30"/>
       <use x="63.623047" xlink:href="#DejaVuSans-2e"/>
       <use x="95.410156" xlink:href="#DejaVuSans-32"/>
      </g>
     </g>
    </g>
    <g id="xtick_3">
     <g id="line2d_3">
      <g>
       <use style="stroke:#000000;stroke-width:0.8;" x="196.238295" xlink:href="#m68c5444bd2" y="273.312"/>
      </g>
     </g>
     <g id="text_3">
      <!-- 0.4 -->
      <g transform="translate(188.286733 287.910437)scale(0.1 -0.1)">
       <defs>
        <path d="M 2419 4116 
L 825 1625 
L 2419 1625 
L 2419 4116 
z
M 2253 4666 
L 3047 4666 
L 3047 1625 
L 3713 1625 
L 3713 1100 
L 3047 1100 
L 3047 0 
L 2419 0 
L 2419 1100 
L 313 1100 
L 313 1709 
L 2253 4666 
z
" id="DejaVuSans-34" transform="scale(0.015625)"/>
       </defs>
       <use xlink:href="#DejaVuSans-30"/>
       <use x="63.623047" xlink:href="#DejaVuSans-2e"/>
       <use x="95.410156" xlink:href="#DejaVuSans-34"/>
      </g>
     </g>
    </g>
    <g id="xtick_4">
     <g id="line2d_4">
      <g>
       <use style="stroke:#000000;stroke-width:0.8;" x="261.169205" xlink:href="#m68c5444bd2" y="273.312"/>
      </g>
     </g>
     <g id="text_4">
      <!-- 0.6 -->
      <g transform="translate(253.217642 287.910437)scale(0.1 -0.1)">
       <defs>
        <path d="M 2113 2584 
Q 1688 2584 1439 2293 
Q 1191 2003 1191 1497 
Q 1191 994 1439 701 
Q 1688 409 2113 409 
Q 2538 409 2786 701 
Q 3034 994 3034 1497 
Q 3034 2003 2786 2293 
Q 2538 2584 2113 2584 
z
M 3366 4563 
L 3366 3988 
Q 3128 4100 2886 4159 
Q 2644 4219 2406 4219 
Q 1781 4219 1451 3797 
Q 1122 3375 1075 2522 
Q 1259 2794 1537 2939 
Q 1816 3084 2150 3084 
Q 2853 3084 3261 2657 
Q 3669 2231 3669 1497 
Q 3669 778 3244 343 
Q 2819 -91 2113 -91 
Q 1303 -91 875 529 
Q 447 1150 447 2328 
Q 447 3434 972 4092 
Q 1497 4750 2381 4750 
Q 2619 4750 2861 4703 
Q 3103 4656 3366 4563 
z
" id="DejaVuSans-36" transform="scale(0.015625)"/>
       </defs>
       <use xlink:href="#DejaVuSans-30"/>
       <use x="63.623047" xlink:href="#DejaVuSans-2e"/>
       <use x="95.410156" xlink:href="#DejaVuSans-36"/>
      </g>
     </g>
    </g>
    <g id="xtick_5">
     <g id="line2d_5">
      <g>
       <use style="stroke:#000000;stroke-width:0.8;" x="326.100114" xlink:href="#m68c5444bd2" y="273.312"/>
      </g>
     </g>
     <g id="text_5">
      <!-- 0.8 -->
      <g transform="translate(318.148551 287.910437)scale(0.1 -0.1)">
       <defs>
        <path d="M 2034 2216 
Q 1584 2216 1326 1975 
Q 1069 1734 1069 1313 
Q 1069 891 1326 650 
Q 1584 409 2034 409 
Q 2484 409 2743 651 
Q 3003 894 3003 1313 
Q 3003 1734 2745 1975 
Q 2488 2216 2034 2216 
z
M 1403 2484 
Q 997 2584 770 2862 
Q 544 3141 544 3541 
Q 544 4100 942 4425 
Q 1341 4750 2034 4750 
Q 2731 4750 3128 4425 
Q 3525 4100 3525 3541 
Q 3525 3141 3298 2862 
Q 3072 2584 2669 2484 
Q 3125 2378 3379 2068 
Q 3634 1759 3634 1313 
Q 3634 634 3220 271 
Q 2806 -91 2034 -91 
Q 1263 -91 848 271 
Q 434 634 434 1313 
Q 434 1759 690 2068 
Q 947 2378 1403 2484 
z
M 1172 3481 
Q 1172 3119 1398 2916 
Q 1625 2713 2034 2713 
Q 2441 2713 2670 2916 
Q 2900 3119 2900 3481 
Q 2900 3844 2670 4047 
Q 2441 4250 2034 4250 
Q 1625 4250 1398 4047 
Q 1172 3844 1172 3481 
z
" id="DejaVuSans-38" transform="scale(0.015625)"/>
       </defs>
       <use xlink:href="#DejaVuSans-30"/>
       <use x="63.623047" xlink:href="#DejaVuSans-2e"/>
       <use x="95.410156" xlink:href="#DejaVuSans-38"/>
      </g>
     </g>
    </g>
    <g id="xtick_6">
     <g id="line2d_6">
      <g>
       <use style="stroke:#000000;stroke-width:0.8;" x="391.031023" xlink:href="#m68c5444bd2" y="273.312"/>
      </g>
     </g>
     <g id="text_6">
      <!-- 1.0 -->
      <g transform="translate(383.07946 287.910437)scale(0.1 -0.1)">
       <defs>
        <path d="M 794 531 
L 1825 531 
L 1825 4091 
L 703 3866 
L 703 4441 
L 1819 4666 
L 2450 4666 
L 2450 531 
L 3481 531 
L 3481 0 
L 794 0 
L 794 531 
z
" id="DejaVuSans-31" transform="scale(0.015625)"/>
       </defs>
       <use xlink:href="#DejaVuSans-31"/>
       <use x="63.623047" xlink:href="#DejaVuSans-2e"/>
       <use x="95.410156" xlink:href="#DejaVuSans-30"/>
      </g>
     </g>
    </g>
    <g id="text_7">
     <!-- Propagation direction -->
     <g transform="translate(175.221719 301.588562)scale(0.1 -0.1)">
      <defs>
       <path d="M 1259 4147 
L 1259 2394 
L 2053 2394 
Q 2494 2394 2734 2622 
Q 2975 2850 2975 3272 
Q 2975 3691 2734 3919 
Q 2494 4147 2053 4147 
L 1259 4147 
z
M 628 4666 
L 2053 4666 
Q 2838 4666 3239 4311 
Q 3641 3956 3641 3272 
Q 3641 2581 3239 2228 
Q 2838 1875 2053 1875 
L 1259 1875 
L 1259 0 
L 628 0 
L 628 4666 
z
" id="DejaVuSans-50" transform="scale(0.015625)"/>
       <path d="M 2631 2963 
Q 2534 3019 2420 3045 
Q 2306 3072 2169 3072 
Q 1681 3072 1420 2755 
Q 1159 2438 1159 1844 
L 1159 0 
L 581 0 
L 581 3500 
L 1159 3500 
L 1159 2956 
Q 1341 3275 1631 3429 
Q 1922 3584 2338 3584 
Q 2397 3584 2469 3576 
Q 2541 3569 2628 3553 
L 2631 2963 
z
" id="DejaVuSans-72" transform="scale(0.015625)"/>
       <path d="M 1959 3097 
Q 1497 3097 1228 2736 
Q 959 2375 959 1747 
Q 959 1119 1226 758 
Q 1494 397 1959 397 
Q 2419 397 2687 759 
Q 2956 1122 2956 1747 
Q 2956 2369 2687 2733 
Q 2419 3097 1959 3097 
z
M 1959 3584 
Q 2709 3584 3137 3096 
Q 3566 2609 3566 1747 
Q 3566 888 3137 398 
Q 2709 -91 1959 -91 
Q 1206 -91 779 398 
Q 353 888 353 1747 
Q 353 2609 779 3096 
Q 1206 3584 1959 3584 
z
" id="DejaVuSans-6f" transform="scale(0.015625)"/>
       <path d="M 1159 525 
L 1159 -1331 
L 581 -1331 
L 581 3500 
L 1159 3500 
L 1159 2969 
Q 1341 3281 1617 3432 
Q 1894 3584 2278 3584 
Q 2916 3584 3314 3078 
Q 3713 2572 3713 1747 
Q 3713 922 3314 415 
Q 2916 -91 2278 -91 
Q 1894 -91 1617 61 
Q 1341 213 1159 525 
z
M 3116 1747 
Q 3116 2381 2855 2742 
Q 2594 3103 2138 3103 
Q 1681 3103 1420 2742 
Q 1159 2381 1159 1747 
Q 1159 1113 1420 752 
Q 1681 391 2138 391 
Q 2594 391 2855 752 
Q 3116 1113 3116 1747 
z
" id="DejaVuSans-70" transform="scale(0.015625)"/>
       <path d="M 2194 1759 
Q 1497 1759 1228 1600 
Q 959 1441 959 1056 
Q 959 750 1161 570 
Q 1363 391 1709 391 
Q 2188 391 2477 730 
Q 2766 1069 2766 1631 
L 2766 1759 
L 2194 1759 
z
M 3341 1997 
L 3341 0 
L 2766 0 
L 2766 531 
Q 2569 213 2275 61 
Q 1981 -91 1556 -91 
Q 1019 -91 701 211 
Q 384 513 384 1019 
Q 384 1609 779 1909 
Q 1175 2209 1959 2209 
L 2766 2209 
L 2766 2266 
Q 2766 2663 2505 2880 
Q 2244 3097 1772 3097 
Q 1472 3097 1187 3025 
Q 903 2953 641 2809 
L 641 3341 
Q 956 3463 1253 3523 
Q 1550 3584 1831 3584 
Q 2591 3584 2966 3190 
Q 3341 2797 3341 1997 
z
" id="DejaVuSans-61" transform="scale(0.015625)"/>
       <path d="M 2906 1791 
Q 2906 2416 2648 2759 
Q 2391 3103 1925 3103 
Q 1463 3103 1205 2759 
Q 947 2416 947 1791 
Q 947 1169 1205 825 
Q 1463 481 1925 481 
Q 2391 481 2648 825 
Q 2906 1169 2906 1791 
z
M 3481 434 
Q 3481 -459 3084 -895 
Q 2688 -1331 1869 -1331 
Q 1566 -1331 1297 -1286 
Q 1028 -1241 775 -1147 
L 775 -588 
Q 1028 -725 1275 -790 
Q 1522 -856 1778 -856 
Q 2344 -856 2625 -561 
Q 2906 -266 2906 331 
L 2906 616 
Q 2728 306 2450 153 
Q 2172 0 1784 0 
Q 1141 0 747 490 
Q 353 981 353 1791 
Q 353 2603 747 3093 
Q 1141 3584 1784 3584 
Q 2172 3584 2450 3431 
Q 2728 3278 2906 2969 
L 2906 3500 
L 3481 3500 
L 3481 434 
z
" id="DejaVuSans-67" transform="scale(0.015625)"/>
       <path d="M 1172 4494 
L 1172 3500 
L 2356 3500 
L 2356 3053 
L 1172 3053 
L 1172 1153 
Q 1172 725 1289 603 
Q 1406 481 1766 481 
L 2356 481 
L 2356 0 
L 1766 0 
Q 1100 0 847 248 
Q 594 497 594 1153 
L 594 3053 
L 172 3053 
L 172 3500 
L 594 3500 
L 594 4494 
L 1172 4494 
z
" id="DejaVuSans-74" transform="scale(0.015625)"/>
       <path d="M 603 3500 
L 1178 3500 
L 1178 0 
L 603 0 
L 603 3500 
z
M 603 4863 
L 1178 4863 
L 1178 4134 
L 603 4134 
L 603 4863 
z
" id="DejaVuSans-69" transform="scale(0.015625)"/>
       <path d="M 3513 2113 
L 3513 0 
L 2938 0 
L 2938 2094 
Q 2938 2591 2744 2837 
Q 2550 3084 2163 3084 
Q 1697 3084 1428 2787 
Q 1159 2491 1159 1978 
L 1159 0 
L 581 0 
L 581 3500 
L 1159 3500 
L 1159 2956 
Q 1366 3272 1645 3428 
Q 1925 3584 2291 3584 
Q 2894 3584 3203 3211 
Q 3513 2838 3513 2113 
z
" id="DejaVuSans-6e" transform="scale(0.015625)"/>
       <path id="DejaVuSans-20" transform="scale(0.015625)"/>
       <path d="M 2906 2969 
L 2906 4863 
L 3481 4863 
L 3481 0 
L 2906 0 
L 2906 525 
Q 2725 213 2448 61 
Q 2172 -91 1784 -91 
Q 1150 -91 751 415 
Q 353 922 353 1747 
Q 353 2572 751 3078 
Q 1150 3584 1784 3584 
Q 2172 3584 2448 3432 
Q 2725 3281 2906 2969 
z
M 947 1747 
Q 947 1113 1208 752 
Q 1469 391 1925 391 
Q 2381 391 2643 752 
Q 2906 1113 2906 1747 
Q 2906 2381 2643 2742 
Q 2381 3103 1925 3103 
Q 1469 3103 1208 2742 
Q 947 2381 947 1747 
z
" id="DejaVuSans-64" transform="scale(0.015625)"/>
       <path d="M 3597 1894 
L 3597 1613 
L 953 1613 
Q 991 1019 1311 708 
Q 1631 397 2203 397 
Q 2534 397 2845 478 
Q 3156 559 3463 722 
L 3463 178 
Q 3153 47 2828 -22 
Q 2503 -91 2169 -91 
Q 1331 -91 842 396 
Q 353 884 353 1716 
Q 353 2575 817 3079 
Q 1281 3584 2069 3584 
Q 2775 3584 3186 3129 
Q 3597 2675 3597 1894 
z
M 3022 2063 
Q 3016 2534 2758 2815 
Q 2500 3097 2075 3097 
Q 1594 3097 1305 2825 
Q 1016 2553 972 2059 
L 3022 2063 
z
" id="DejaVuSans-65" transform="scale(0.015625)"/>
       <path d="M 3122 3366 
L 3122 2828 
Q 2878 2963 2633 3030 
Q 2388 3097 2138 3097 
Q 1578 3097 1268 2742 
Q 959 2388 959 1747 
Q 959 1106 1268 751 
Q 1578 397 2138 397 
Q 2388 397 2633 464 
Q 2878 531 3122 666 
L 3122 134 
Q 2881 22 2623 -34 
Q 2366 -91 2075 -91 
Q 1284 -91 818 406 
Q 353 903 353 1747 
Q 353 2603 823 3093 
Q 1294 3584 2113 3584 
Q 2378 3584 2631 3529 
Q 2884 3475 3122 3366 
z
" id="DejaVuSans-63" transform="scale(0.015625)"/>
      </defs>
      <use xlink:href="#DejaVuSans-50"/>
      <use x="58.552734" xlink:href="#DejaVuSans-72"/>
      <use x="97.416016" xlink:href="#DejaVuSans-6f"/>
      <use x="158.597656" xlink:href="#DejaVuSans-70"/>
      <use x="222.074219" xlink:href="#DejaVuSans-61"/>
      <use x="283.353516" xlink:href="#DejaVuSans-67"/>
      <use x="346.830078" xlink:href="#DejaVuSans-61"/>
      <use x="408.109375" xlink:href="#DejaVuSans-74"/>
      <use x="447.318359" xlink:href="#DejaVuSans-69"/>
      <use x="475.101562" xlink:href="#DejaVuSans-6f"/>
      <use x="536.283203" xlink:href="#DejaVuSans-6e"/>
      <use x="599.662109" xlink:href="#DejaVuSans-20"/>
      <use x="631.449219" xlink:href="#DejaVuSans-64"/>
      <use x="694.925781" xlink:href="#DejaVuSans-69"/>
      <use x="722.708984" xlink:href="#DejaVuSans-72"/>
      <use x="761.572266" xlink:href="#DejaVuSans-65"/>
      <use x="823.095703" xlink:href="#DejaVuSans-63"/>
      <use x="878.076172" xlink:href="#DejaVuSans-74"/>
      <use x="917.285156" xlink:href="#DejaVuSans-69"/>
      <use x="945.068359" xlink:href="#DejaVuSans-6f"/>
      <use x="1006.25" xlink:href="#DejaVuSans-6e"/>
     </g>
    </g>
   </g>
   <g id="matplotlib.axis_2">
    <g id="ytick_1">
     <g id="line2d_7">
      <defs>
       <path d="M 0 0 
L -3.5 0 
" id="me4882c90bb" style="stroke:#000000;stroke-width:0.8;"/>
      </defs>
      <g>
       <use style="stroke:#000000;stroke-width:0.8;" x="50.14375" xlink:href="#me4882c90bb" y="273.312"/>
      </g>
     </g>
     <g id="text_8">
      <!-- 0.00 -->
      <g transform="translate(20.878125 277.111219)scale(0.1 -0.1)">
       <use xlink:href="#DejaVuSans-30"/>
       <use x="63.623047" xlink:href="#DejaVuSans-2e"/>
       <use x="95.410156" xlink:href="#DejaVuSans-30"/>
       <use x="159.033203" xlink:href="#DejaVuSans-30"/>
      </g>
     </g>
    </g>
    <g id="ytick_2">
     <g id="line2d_8">
      <g>
       <use style="stroke:#000000;stroke-width:0.8;" x="50.14375" xlink:href="#me4882c90bb" y="243.083352"/>
      </g>
     </g>
     <g id="text_9">
      <!-- 0.25 -->
      <g transform="translate(20.878125 246.882571)scale(0.1 -0.1)">
       <defs>
        <path d="M 691 4666 
L 3169 4666 
L 3169 4134 
L 1269 4134 
L 1269 2991 
Q 1406 3038 1543 3061 
Q 1681 3084 1819 3084 
Q 2600 3084 3056 2656 
Q 3513 2228 3513 1497 
Q 3513 744 3044 326 
Q 2575 -91 1722 -91 
Q 1428 -91 1123 -41 
Q 819 9 494 109 
L 494 744 
Q 775 591 1075 516 
Q 1375 441 1709 441 
Q 2250 441 2565 725 
Q 2881 1009 2881 1497 
Q 2881 1984 2565 2268 
Q 2250 2553 1709 2553 
Q 1456 2553 1204 2497 
Q 953 2441 691 2322 
L 691 4666 
z
" id="DejaVuSans-35" transform="scale(0.015625)"/>
       </defs>
       <use xlink:href="#DejaVuSans-30"/>
       <use x="63.623047" xlink:href="#DejaVuSans-2e"/>
       <use x="95.410156" xlink:href="#DejaVuSans-32"/>
       <use x="159.033203" xlink:href="#DejaVuSans-35"/>
      </g>
     </g>
    </g>
    <g id="ytick_3">
     <g id="line2d_9">
      <g>
       <use style="stroke:#000000;stroke-width:0.8;" x="50.14375" xlink:href="#me4882c90bb" y="212.854704"/>
      </g>
     </g>
     <g id="text_10">
      <!-- 0.50 -->
      <g transform="translate(20.878125 216.653923)scale(0.1 -0.1)">
       <use xlink:href="#DejaVuSans-30"/>
       <use x="63.623047" xlink:href="#DejaVuSans-2e"/>
       <use x="95.410156" xlink:href="#DejaVuSans-35"/>
       <use x="159.033203" xlink:href="#DejaVuSans-30"/>
      </g>
     </g>
    </g>
    <g id="ytick_4">
     <g id="line2d_10">
      <g>
       <use style="stroke:#000000;stroke-width:0.8;" x="50.14375" xlink:href="#me4882c90bb" y="182.626056"/>
      </g>
     </g>
     <g id="text_11">
      <!-- 0.75 -->
      <g transform="translate(20.878125 186.425274)scale(0.1 -0.1)">
       <defs>
        <path d="M 525 4666 
L 3525 4666 
L 3525 4397 
L 1831 0 
L 1172 0 
L 2766 4134 
L 525 4134 
L 525 4666 
z
" id="DejaVuSans-37" transform="scale(0.015625)"/>
       </defs>
       <use xlink:href="#DejaVuSans-30"/>
       <use x="63.623047" xlink:href="#DejaVuSans-2e"/>
       <use x="95.410156" xlink:href="#DejaVuSans-37"/>
       <use x="159.033203" xlink:href="#DejaVuSans-35"/>
      </g>
     </g>
    </g>
    <g id="ytick_5">
     <g id="line2d_11">
      <g>
       <use style="stroke:#000000;stroke-width:0.8;" x="50.14375" xlink:href="#me4882c90bb" y="152.397408"/>
      </g>
     </g>
     <g id="text_12">
      <!-- 1.00 -->
      <g transform="translate(20.878125 156.196626)scale(0.1 -0.1)">
       <use xlink:href="#DejaVuSans-31"/>
       <use x="63.623047" xlink:href="#DejaVuSans-2e"/>
       <use x="95.410156" xlink:href="#DejaVuSans-30"/>
       <use x="159.033203" xlink:href="#DejaVuSans-30"/>
      </g>
     </g>
    </g>
    <g id="ytick_6">
     <g id="line2d_12">
      <g>
       <use style="stroke:#000000;stroke-width:0.8;" x="50.14375" xlink:href="#me4882c90bb" y="122.16876"/>
      </g>
     </g>
     <g id="text_13">
      <!-- 1.25 -->
      <g transform="translate(20.878125 125.967978)scale(0.1 -0.1)">
       <use xlink:href="#DejaVuSans-31"/>
       <use x="63.623047" xlink:href="#DejaVuSans-2e"/>
       <use x="95.410156" xlink:href="#DejaVuSans-32"/>
       <use x="159.033203" xlink:href="#DejaVuSans-35"/>
      </g>
     </g>
    </g>
    <g id="ytick_7">
     <g id="line2d_13">
      <g>
       <use style="stroke:#000000;stroke-width:0.8;" x="50.14375" xlink:href="#me4882c90bb" y="91.940111"/>
      </g>
     </g>
     <g id="text_14">
      <!-- 1.50 -->
      <g transform="translate(20.878125 95.73933)scale(0.1 -0.1)">
       <use xlink:href="#DejaVuSans-31"/>
       <use x="63.623047" xlink:href="#DejaVuSans-2e"/>
       <use x="95.410156" xlink:href="#DejaVuSans-35"/>
       <use x="159.033203" xlink:href="#DejaVuSans-30"/>
      </g>
     </g>
    </g>
    <g id="ytick_8">
     <g id="line2d_14">
      <g>
       <use style="stroke:#000000;stroke-width:0.8;" x="50.14375" xlink:href="#me4882c90bb" y="61.711463"/>
      </g>
     </g>
     <g id="text_15">
      <!-- 1.75 -->
      <g transform="translate(20.878125 65.510682)scale(0.1 -0.1)">
       <use xlink:href="#DejaVuSans-31"/>
       <use x="63.623047" xlink:href="#DejaVuSans-2e"/>
       <use x="95.410156" xlink:href="#DejaVuSans-37"/>
       <use x="159.033203" xlink:href="#DejaVuSans-35"/>
      </g>
     </g>
    </g>
    <g id="ytick_9">
     <g id="line2d_15">
      <g>
       <use style="stroke:#000000;stroke-width:0.8;" x="50.14375" xlink:href="#me4882c90bb" y="31.482815"/>
      </g>
     </g>
     <g id="text_16">
      <!-- 2.00 -->
      <g transform="translate(20.878125 35.282034)scale(0.1 -0.1)">
       <use xlink:href="#DejaVuSans-32"/>
       <use x="63.623047" xlink:href="#DejaVuSans-2e"/>
       <use x="95.410156" xlink:href="#DejaVuSans-30"/>
       <use x="159.033203" xlink:href="#DejaVuSans-30"/>
      </g>
     </g>
    </g>
    <g id="text_17">
     <!-- Probability density -->
     <g transform="translate(14.798438 186.606781)rotate(-90)scale(0.1 -0.1)">
      <defs>
       <path d="M 3116 1747 
Q 3116 2381 2855 2742 
Q 2594 3103 2138 3103 
Q 1681 3103 1420 2742 
Q 1159 2381 1159 1747 
Q 1159 1113 1420 752 
Q 1681 391 2138 391 
Q 2594 391 2855 752 
Q 3116 1113 3116 1747 
z
M 1159 2969 
Q 1341 3281 1617 3432 
Q 1894 3584 2278 3584 
Q 2916 3584 3314 3078 
Q 3713 2572 3713 1747 
Q 3713 922 3314 415 
Q 2916 -91 2278 -91 
Q 1894 -91 1617 61 
Q 1341 213 1159 525 
L 1159 0 
L 581 0 
L 581 4863 
L 1159 4863 
L 1159 2969 
z
" id="DejaVuSans-62" transform="scale(0.015625)"/>
       <path d="M 603 4863 
L 1178 4863 
L 1178 0 
L 603 0 
L 603 4863 
z
" id="DejaVuSans-6c" transform="scale(0.015625)"/>
       <path d="M 2059 -325 
Q 1816 -950 1584 -1140 
Q 1353 -1331 966 -1331 
L 506 -1331 
L 506 -850 
L 844 -850 
Q 1081 -850 1212 -737 
Q 1344 -625 1503 -206 
L 1606 56 
L 191 3500 
L 800 3500 
L 1894 763 
L 2988 3500 
L 3597 3500 
L 2059 -325 
z
" id="DejaVuSans-79" transform="scale(0.015625)"/>
       <path d="M 2834 3397 
L 2834 2853 
Q 2591 2978 2328 3040 
Q 2066 3103 1784 3103 
Q 1356 3103 1142 2972 
Q 928 2841 928 2578 
Q 928 2378 1081 2264 
Q 1234 2150 1697 2047 
L 1894 2003 
Q 2506 1872 2764 1633 
Q 3022 1394 3022 966 
Q 3022 478 2636 193 
Q 2250 -91 1575 -91 
Q 1294 -91 989 -36 
Q 684 19 347 128 
L 347 722 
Q 666 556 975 473 
Q 1284 391 1588 391 
Q 1994 391 2212 530 
Q 2431 669 2431 922 
Q 2431 1156 2273 1281 
Q 2116 1406 1581 1522 
L 1381 1569 
Q 847 1681 609 1914 
Q 372 2147 372 2553 
Q 372 3047 722 3315 
Q 1072 3584 1716 3584 
Q 2034 3584 2315 3537 
Q 2597 3491 2834 3397 
z
" id="DejaVuSans-73" transform="scale(0.015625)"/>
      </defs>
      <use xlink:href="#DejaVuSans-50"/>
      <use x="58.552734" xlink:href="#DejaVuSans-72"/>
      <use x="97.416016" xlink:href="#DejaVuSans-6f"/>
      <use x="158.597656" xlink:href="#DejaVuSans-62"/>
      <use x="222.074219" xlink:href="#DejaVuSans-61"/>
      <use x="283.353516" xlink:href="#DejaVuSans-62"/>
      <use x="346.830078" xlink:href="#DejaVuSans-69"/>
      <use x="374.613281" xlink:href="#DejaVuSans-6c"/>
      <use x="402.396484" xlink:href="#DejaVuSans-69"/>
      <use x="430.179688" xlink:href="#DejaVuSans-74"/>
      <use x="469.388672" xlink:href="#DejaVuSans-79"/>
      <use x="528.568359" xlink:href="#DejaVuSans-20"/>
      <use x="560.355469" xlink:href="#DejaVuSans-64"/>
      <use x="623.832031" xlink:href="#DejaVuSans-65"/>
      <use x="685.355469" xlink:href="#DejaVuSans-6e"/>
      <use x="748.734375" xlink:href="#DejaVuSans-73"/>
      <use x="800.833984" xlink:href="#DejaVuSans-69"/>
      <use x="828.617188" xlink:href="#DejaVuSans-74"/>
      <use x="867.826172" xlink:href="#DejaVuSans-79"/>
     </g>
    </g>
   </g>
   <g id="line2d_16">
    <path clip-path="url(#pfe76886ba2)" d="M 66.376477 273.312 
L 391.031023 31.482815 
L 391.031023 31.482815 
" style="fill:none;stroke:#ff7f0e;stroke-linecap:square;stroke-width:1.5;"/>
   </g>
   <g id="patch_203">
    <path d="M 50.14375 273.312 
L 50.14375 7.2 
" style="fill:none;stroke:#000000;stroke-linecap:square;stroke-linejoin:miter;stroke-width:0.8;"/>
   </g>
   <g id="patch_204">
    <path d="M 407.26375 273.312 
L 407.26375 7.2 
" style="fill:none;stroke:#000000;stroke-linecap:square;stroke-linejoin:miter;stroke-width:0.8;"/>
   </g>
   <g id="patch_205">
    <path d="M 50.14375 273.312 
L 407.26375 273.312 
" style="fill:none;stroke:#000000;stroke-linecap:square;stroke-linejoin:miter;stroke-width:0.8;"/>
   </g>
   <g id="patch_206">
    <path d="M 50.14375 7.2 
L 407.26375 7.2 
" style="fill:none;stroke:#000000;stroke-linecap:square;stroke-linejoin:miter;stroke-width:0.8;"/>
   </g>
  </g>
 </g>
 <defs>
  <clipPath id="pfe76886ba2">
   <rect height="266.112" width="357.12" x="50.14375" y="7.2"/>
  </clipPath>
 </defs>
</svg>
